<svg width="125" height="37" viewBox="0 0 125 37" fill="none" xmlns="http://www.w3.org/2000/svg">
<g clip-path="url(#clip0_1_12037)">
<g clip-path="url(#clip1_1_12037)">
<path d="M119.55 36.908H4.50067C1.96958 36.908 -0.101318 34.8371 -0.101318 32.306V4.69403C-0.101318 2.16294 1.96958 0.092041 4.50067 0.092041H119.55C122.082 0.092041 124.152 2.16294 124.152 4.69403V32.306C124.152 34.8371 122.082 36.908 119.55 36.908Z" fill="black"/>
<path d="M119.55 0.092041H4.50067C1.96958 0.092041 -0.101318 2.16294 -0.101318 4.69403V32.306C-0.101318 34.8371 1.96958 36.908 4.50067 36.908H119.55C122.082 36.908 124.152 34.8371 124.152 32.306V4.69403C124.152 2.16294 122.082 0.092041 119.55 0.092041ZM119.55 0.828362C121.682 0.828362 123.416 2.56276 123.416 4.69403V32.306C123.416 34.4376 121.682 36.172 119.55 36.172H4.50067C2.3694 36.172 0.635 34.4376 0.635 32.306V4.69403C0.635 2.56276 2.3694 0.828362 4.50067 0.828362H119.55Z" fill="white"/>
<path d="M18.8742 17.8776L9.07544 28.2778C9.07581 28.28 9.07654 28.2818 9.07691 28.2839C9.37741 29.4132 10.4089 30.2448 11.6331 30.2448C12.1224 30.2448 12.5819 30.1124 12.9759 29.8802L13.0072 29.8619L24.037 23.4973L18.8742 17.8776Z" fill="#EB3131"/>
<path d="M28.7876 16.1066L28.7782 16.1002L24.0164 13.3397L18.6516 18.1135L24.0351 23.4962L28.7718 20.7632C29.6022 20.3148 30.166 19.4394 30.166 18.4298C30.166 17.4275 29.6098 16.5564 28.7876 16.1066Z" fill="#F6B60B"/>
<path d="M9.07497 8.53862C9.01607 8.75583 8.98511 8.98335 8.98511 9.21961V27.5973C8.98511 27.8331 9.0157 28.0614 9.07534 28.2778L19.2113 18.1437L9.07497 8.53862Z" fill="#5778C5"/>
<path d="M18.9463 18.4082L24.0182 13.3379L13.0009 6.95027C12.6004 6.71042 12.1331 6.572 11.6329 6.572C10.4088 6.572 9.37591 7.40503 9.07532 8.53571C9.07495 8.53681 9.07495 8.53755 9.07495 8.53856L18.9463 18.4082Z" fill="#3BAD49"/>
</g>
<path d="M98.4238 27.704H100.141V16.1979H98.4238V27.704ZM113.893 20.3426L111.924 25.3311H111.865L109.822 20.3426H107.972L111.036 27.3149L109.289 31.1932H111.081L115.803 20.3426H113.893ZM104.153 26.3971C103.59 26.3971 102.806 26.1159 102.806 25.4199C102.806 24.5318 103.783 24.1914 104.626 24.1914C105.382 24.1914 105.736 24.3542 106.196 24.5764C106.062 25.6421 105.145 26.3971 104.153 26.3971ZM104.36 20.0909C103.117 20.0909 101.829 20.6388 101.296 21.8526L102.821 22.489C103.146 21.8526 103.753 21.6452 104.39 21.6452C105.278 21.6452 106.181 22.1784 106.196 23.1257V23.244C105.885 23.0664 105.219 22.8 104.405 22.8C102.762 22.8 101.088 23.7027 101.088 25.3904C101.088 26.9299 102.436 27.9218 103.945 27.9218C105.1 27.9218 105.736 27.4037 106.137 26.7969H106.196V27.6849H107.853V23.2734C107.853 21.231 106.329 20.0909 104.36 20.0909ZM93.7463 21.7433H91.3036V17.7993H93.7463C95.0303 17.7993 95.7593 18.8623 95.7593 19.7712C95.7593 20.6629 95.0303 21.7433 93.7463 21.7433ZM93.7022 16.1979H89.5871V27.704H91.3036V23.3447H93.7022C95.6055 23.3447 97.4767 21.9666 97.4767 19.7712C97.4767 17.576 95.6055 16.1979 93.7022 16.1979ZM71.2619 26.3992C70.0754 26.3992 69.0821 25.4058 69.0821 24.0414C69.0821 22.6627 70.0754 21.6542 71.2619 21.6542C72.4333 21.6542 73.3526 22.6627 73.3526 24.0414C73.3526 25.4058 72.4333 26.3992 71.2619 26.3992ZM73.234 20.9869H73.1746C72.7892 20.5273 72.0475 20.1122 71.1135 20.1122C69.1562 20.1122 67.3621 21.8321 67.3621 24.0414C67.3621 26.236 69.1562 27.9412 71.1135 27.9412C72.0475 27.9412 72.7892 27.526 73.1746 27.0518H73.234V27.6151C73.234 29.113 72.4333 29.9137 71.1433 29.9137C70.0905 29.9137 69.4381 29.1572 69.1709 28.5197L67.6735 29.1425C68.1035 30.1804 69.2453 31.4557 71.1433 31.4557C73.1599 31.4557 74.8651 30.2692 74.8651 27.3779V20.3494H73.234V20.9869ZM76.0512 27.704H77.7713V16.1975H76.0512V27.704ZM80.307 23.9081C80.2624 22.3955 81.4784 21.6246 82.3531 21.6246C83.0357 21.6246 83.6137 21.9655 83.806 22.4552L80.307 23.9081ZM85.645 22.6033C85.3192 21.7282 84.3251 20.1122 82.2937 20.1122C80.2771 20.1122 78.6017 21.6987 78.6017 24.0267C78.6017 26.2213 80.2624 27.9412 82.4865 27.9412C84.281 27.9412 85.3192 26.8439 85.749 26.2065L84.4144 25.3166C83.9699 25.9692 83.3615 26.3992 82.4865 26.3992C81.6117 26.3992 80.9891 25.9987 80.5885 25.2131L85.8226 23.048L85.645 22.6033ZM43.9434 21.3133V22.9739H47.9172C47.7986 23.9081 47.4872 24.5901 47.0127 25.0646C46.4346 25.6431 45.53 26.2806 43.9434 26.2806C41.4967 26.2806 39.584 24.3085 39.584 21.8619C39.584 19.4153 41.4967 17.443 43.9434 17.443C45.2632 17.443 46.2267 17.9621 46.9386 18.6294L48.11 17.4581C47.1166 16.5089 45.7967 15.7823 43.9434 15.7823C40.5921 15.7823 37.7749 18.5108 37.7749 21.8619C37.7749 25.2131 40.5921 27.9412 43.9434 27.9412C45.7525 27.9412 47.1166 27.3484 48.1841 26.236C49.2814 25.1387 49.6225 23.5967 49.6225 22.3513C49.6225 21.9655 49.593 21.6099 49.5334 21.3133H43.9434ZM54.1404 26.3992C52.9539 26.3992 51.9307 25.4205 51.9307 24.0267C51.9307 22.618 52.9539 21.6542 54.1404 21.6542C55.3264 21.6542 56.3496 22.618 56.3496 24.0267C56.3496 25.4205 55.3264 26.3992 54.1404 26.3992ZM54.1404 20.1122C51.9753 20.1122 50.2107 21.758 50.2107 24.0267C50.2107 26.2806 51.9753 27.9412 54.1404 27.9412C56.3051 27.9412 58.0697 26.2806 58.0697 24.0267C58.0697 21.758 56.3051 20.1122 54.1404 20.1122ZM62.7123 26.3992C61.5262 26.3992 60.5029 25.4205 60.5029 24.0267C60.5029 22.618 61.5262 21.6542 62.7123 21.6542C63.8984 21.6542 64.9216 22.618 64.9216 24.0267C64.9216 25.4205 63.8984 26.3992 62.7123 26.3992ZM62.7123 20.1122C60.5472 20.1122 58.783 21.758 58.783 24.0267C58.783 26.2806 60.5472 27.9412 62.7123 27.9412C64.877 27.9412 66.6416 26.2806 66.6416 24.0267C66.6416 21.758 64.877 20.1122 62.7123 20.1122Z" fill="white"/>
<path d="M40.0342 9.26546C40.0449 10.1391 39.8699 10.8438 39.5103 11.3788H42.302V7.21325H40.0342V9.26546ZM38.7614 13.2292H38.083V11.3788H38.623C39.1012 10.9667 39.3348 10.2628 39.3252 9.26546V6.53482H43.0121V11.3788H43.6288V13.2292H42.95V12.0572H38.7614V13.2292Z" fill="white"/>
<path d="M40.0342 9.26546L39.9421 9.26657L39.9429 9.34094C39.9425 10.1675 39.7699 10.8277 39.4337 11.3273L39.3374 11.4708H42.3941V7.12121H39.9421V9.2662V9.26657L40.0342 9.26546H40.1262V7.30529H42.21V11.2867H39.5103V11.3788L39.5866 11.4299C39.9486 10.8913 40.1269 10.1923 40.1269 9.34094L40.1262 9.26436L40.0342 9.26546H40.1262H40.0342ZM38.7614 13.2292V13.1372H38.175V11.4708H38.623H38.6572L38.683 11.4486C39.1806 11.0193 39.4176 10.3041 39.4176 9.32584L39.4172 9.26473V9.26546V6.62686H42.9201V11.4708H43.5367V13.1372H43.042V12.0572V11.9652H38.6694V13.2292H38.7614V13.1372V13.2292H38.8535V12.1493H42.8579V13.2292V13.3213H43.6288H43.7208V11.2867H43.1041V6.44279H39.2331V9.26583V9.2662L39.2335 9.32584C39.2331 10.2783 39.0023 10.9316 38.5629 11.3087L38.623 11.3788V11.2867H38.083H37.991V13.3213H38.7614H38.8535V13.2292H38.7614Z" fill="white"/>
<path d="M45.6375 10.8811C46.0466 11.2949 46.5464 11.5016 47.1378 11.5016C47.7292 11.5016 48.2297 11.2949 48.6377 10.8811C49.0469 10.4673 49.2518 9.93833 49.2518 9.29589C49.2518 8.65345 49.0469 8.1245 48.6377 7.71069C48.2297 7.29688 47.7292 7.09016 47.1378 7.09016C46.5464 7.09016 46.0466 7.29688 45.6375 7.71069C45.2294 8.1245 45.0245 8.65345 45.0245 9.29589C45.0245 9.93833 45.2294 10.4673 45.6375 10.8811ZM49.1627 11.3434C48.6198 11.9017 47.9449 12.1804 47.1378 12.1804C46.3306 12.1804 45.6554 11.9017 45.1136 11.3434C44.5707 10.7857 44.3 10.1031 44.3 9.29589C44.3 8.4887 44.5707 7.80595 45.1136 7.24837C45.6554 6.68997 46.3306 6.411 47.1378 6.411C47.9402 6.411 48.6137 6.69144 49.159 7.25196C49.7037 7.81249 49.9762 8.49377 49.9762 9.29589C49.9762 10.1031 49.7048 10.7857 49.1627 11.3434Z" fill="white"/>
<path d="M45.6375 10.8812L45.572 10.9459C45.9959 11.3763 46.5247 11.5949 47.1378 11.5938C47.7504 11.5949 48.2804 11.3763 48.7031 10.9459C49.1299 10.5152 49.3446 9.95787 49.3438 9.29601C49.3446 8.63416 49.1299 8.07686 48.7031 7.64611C48.2804 7.21573 47.7504 6.99714 47.1378 6.99824C46.5247 6.99714 45.9959 7.21573 45.572 7.64611C45.1464 8.07686 44.9317 8.63416 44.9325 9.29601C44.9317 9.95787 45.1464 10.5152 45.572 10.9459L45.6375 10.8812L45.7033 10.8165C45.3128 10.4192 45.1176 9.9194 45.1165 9.29601C45.1176 8.67263 45.3128 8.17285 45.7033 7.77552H45.7029C46.0969 7.37827 46.5675 7.18342 47.1378 7.18232C47.7076 7.18342 48.1793 7.37827 48.5723 7.77552L48.5737 7.77699L48.5723 7.77552C48.9638 8.17285 49.1587 8.67263 49.1598 9.29601C49.1587 9.9194 48.9638 10.4192 48.5723 10.8165C48.1793 11.2138 47.7076 11.4086 47.1378 11.4097C46.5675 11.4086 46.0969 11.2138 45.7029 10.8165L45.6375 10.8812ZM49.1627 11.3435L49.0969 11.2796C48.5694 11.8203 47.9238 12.0874 47.1378 12.0885C46.3515 12.0874 45.7061 11.8203 45.1794 11.2796C44.653 10.737 44.3931 10.0827 44.3921 9.29601C44.3931 8.50935 44.653 7.85504 45.1794 7.31247C45.7061 6.77173 46.3515 6.50426 47.1378 6.50316C47.9191 6.50426 48.563 6.77284 49.0933 7.31642C49.6218 7.86148 49.8832 8.51478 49.8842 9.29601C49.8832 10.0827 49.6225 10.737 49.0969 11.2796L49.1627 11.3435L49.2288 11.4075C49.7868 10.8345 50.069 10.1236 50.0683 9.29601C50.069 8.47309 49.7861 7.76374 49.2252 7.18812C48.6643 6.61029 47.9619 6.31807 47.1378 6.31908C46.3095 6.31807 45.6047 6.60891 45.0475 7.18453V7.18416C44.4884 7.75757 44.2073 8.46839 44.208 9.29601C44.2073 10.1236 44.4884 10.8345 45.0475 11.4079V11.4075C45.6047 11.9831 46.3095 12.2733 47.1378 12.2726C47.9658 12.2733 48.6705 11.9831 49.2288 11.4075L49.1627 11.3435Z" fill="white"/>
<path d="M53.5483 12.1804C52.7357 12.1804 52.0545 11.9054 51.5043 11.3549C50.9532 10.8049 50.6792 10.1185 50.6792 9.29589C50.6792 8.47324 50.9532 7.7869 51.5043 7.23687C52.0545 6.68638 52.7357 6.411 53.5483 6.411C54.3806 6.411 55.0573 6.71197 55.5767 7.31345L55.0824 7.79196C54.7078 7.32385 54.1954 7.09016 53.5483 7.09016C52.9461 7.09016 52.438 7.29329 52.0245 7.69955C51.6104 8.10582 51.4036 8.63799 51.4036 9.29589C51.4036 9.95379 51.6104 10.4863 52.0245 10.8922C52.438 11.2985 52.9461 11.5016 53.5483 11.5016C54.2116 11.5016 54.7768 11.2344 55.2452 10.6999L55.7385 11.1931C55.4862 11.4966 55.1705 11.7371 54.7893 11.914C54.4093 12.0916 53.9948 12.1804 53.5483 12.1804Z" fill="white"/>
<path d="M53.5483 12.1805V12.0885C52.7563 12.0874 52.1037 11.8232 51.5694 11.29C51.0355 10.756 50.772 10.0981 50.7712 9.29602C50.772 8.49389 51.0355 7.83599 51.5694 7.30206C52.1037 6.76851 52.7563 6.50426 53.5483 6.50316C54.3587 6.50463 55.003 6.79152 55.507 7.37358L55.5767 7.31357L55.5128 7.24739L55.0184 7.72628L55.0824 7.79209L55.1543 7.73456C54.7638 7.24491 54.217 6.99686 53.5483 6.99824C52.9252 6.99751 52.3891 7.2115 51.9602 7.63387C51.527 8.0578 51.3105 8.61934 51.3116 9.29602C51.3105 9.97269 51.527 10.535 51.9602 10.9582C52.3891 11.3805 52.9252 11.5945 53.5483 11.5938C54.2367 11.5949 54.8332 11.3122 55.3142 10.7607L55.2452 10.7L55.1801 10.7651L55.6735 11.2583L55.7385 11.1932L55.6677 11.1347C55.4239 11.4273 55.1205 11.6589 54.7505 11.8307C54.3827 12.0025 53.983 12.0881 53.5483 12.0885V12.1805V12.2726C54.007 12.2726 54.4356 12.1813 54.8282 11.9976C55.2208 11.8156 55.548 11.5665 55.8093 11.2522L55.8629 11.1879L55.3104 10.6349L55.2406 10.5652L55.1759 10.6392C54.7207 11.1573 54.1865 11.4086 53.5483 11.4097C52.9666 11.4086 52.4873 11.2166 52.0893 10.8265H52.089C51.6935 10.4382 51.4964 9.93523 51.4957 9.29602C51.4964 8.6568 51.6935 8.15454 52.089 7.76549H52.0893C52.4873 7.37542 52.9666 7.18343 53.5483 7.18232C54.1735 7.18379 54.6513 7.40312 55.0105 7.84961L55.0737 7.92876L55.6407 7.37975L55.7033 7.31928L55.6465 7.25356C55.1118 6.63229 54.4025 6.31807 53.5483 6.31908C52.7149 6.31834 52.0048 6.60496 51.4393 7.17192C50.8708 7.73778 50.5861 8.4533 50.5872 9.29602C50.5861 10.1387 50.8708 10.8542 51.4393 11.4205C52.0048 11.9871 52.7149 12.2733 53.5483 12.2726V12.1805Z" fill="white"/>
<path d="M58.6086 12.0573H57.8986V7.21329H56.3562V6.53486H60.151V7.21329H58.6086V12.0573Z" fill="white"/>
<path d="M58.6086 12.0573V11.9652H57.9906V7.12125H56.4482V6.6269H60.059V7.12125H58.5166V12.0573H58.6086V11.9652V12.0573H58.7006V7.30533H60.243V6.53486V6.44282H56.2642V7.21329V7.30533H57.8066V12.1493H58.6086H58.7006V12.0573H58.6086Z" fill="white"/>
<path d="M65.0231 6.5347L62.9335 11.1931C62.6448 11.8515 62.2166 12.1804 61.6457 12.1804C61.476 12.1804 61.2933 12.1395 61.0974 12.0571L61.2825 11.4013C61.4011 11.4685 61.5245 11.5016 61.6529 11.5016C61.8175 11.5016 61.9451 11.4696 62.035 11.4056C62.1249 11.3413 62.2083 11.2237 62.2856 11.0543L62.4862 10.6143L60.6274 6.5347H61.4605L62.8256 9.70464H62.8562L64.1897 6.5347H65.0231Z" fill="white"/>
<path d="M65.0229 6.53481L64.9388 6.49707L62.8492 11.1558L62.8488 11.1566C62.5648 11.7947 62.1768 12.0853 61.6455 12.0885C61.4905 12.0885 61.32 12.0511 61.1327 11.9723L61.0972 12.0572L61.1859 12.0823L61.3708 11.4265L61.2823 11.4014L61.2374 11.4816C61.3683 11.5557 61.5081 11.5941 61.6527 11.5938C61.8285 11.5938 61.9758 11.5604 62.0884 11.4805C62.1991 11.4003 62.2879 11.2698 62.3692 11.0929L62.5698 10.6529L62.5871 10.6144L60.7704 6.62685H61.3999L62.7647 9.79679H62.856H62.9171L64.2506 6.62685H65.0229V6.53481L64.9388 6.49707L65.0229 6.53481V6.44277H64.1895H64.1284L62.7708 9.66922L62.856 9.70475V9.61271H62.8254V9.70475L62.9099 9.66849L61.5211 6.44277H60.6273H60.4841L62.3847 10.6144L62.2017 11.0163C62.1287 11.1778 62.0503 11.282 61.9813 11.3305C61.9141 11.3791 61.8058 11.4101 61.6527 11.4097C61.5401 11.4097 61.4341 11.3813 61.3276 11.3212L61.2255 11.2637L61.0088 12.0321L60.9864 12.1104L61.0616 12.1421C61.2661 12.2279 61.4607 12.2726 61.6455 12.2726C62.2555 12.2754 62.7244 11.908 63.0174 11.2303L63.0171 11.231L65.1649 6.44277H65.0229V6.53481Z" fill="white"/>
<path d="M65.8264 12.0573V6.53486H69.8219V12.0573H69.1119V7.21329H66.5354V12.0573H65.8264Z" fill="white"/>
<path d="M65.8264 12.0573H65.9185V6.6269H69.7295V11.9652H69.2039V7.12125H66.4434V11.9652H65.8264V12.0573H65.9185H65.8264V12.1493H66.5354H66.6274V7.30533H69.0198V12.1493H69.8219H69.9139V6.44282H65.7344V12.1493H65.8264V12.0573Z" fill="white"/>
<path d="M71.0864 12.0573V6.53486H71.7958V8.9024H74.557V6.53486H75.2671V12.0573H74.557V9.56573H71.7958V12.0573H71.0864Z" fill="white"/>
<path d="M71.0864 12.0573H71.1785V6.6269H71.7037V8.99444H74.649V6.6269H75.175V11.9652H74.649V9.47369H71.7037V11.9652H71.0864V12.0573H71.1785H71.0864V12.1493H71.7958H71.8878V9.65777H74.4649V12.1493H75.267H75.3591V6.44282H74.557H74.4649V8.81036H71.8878V6.44282H71.0864H70.9944V12.1493H71.0864V12.0573Z" fill="white"/>
<path d="M77.5227 10.8811C77.9319 11.2949 78.4316 11.5016 79.0231 11.5016C79.6145 11.5016 80.115 11.2949 80.523 10.8811C80.9322 10.4673 81.1371 9.93833 81.1371 9.29589C81.1371 8.65345 80.9322 8.1245 80.523 7.71069C80.115 7.29688 79.6145 7.09016 79.0231 7.09016C78.4316 7.09016 77.9319 7.29688 77.5227 7.71069C77.1151 8.1245 76.9097 8.65345 76.9097 9.29589C76.9097 9.93833 77.1151 10.4673 77.5227 10.8811ZM81.0479 11.3434C80.5055 11.9017 79.8303 12.1804 79.0231 12.1804C78.216 12.1804 77.5411 11.9017 76.9989 11.3434C76.4561 10.7857 76.1853 10.1031 76.1853 9.29589C76.1853 8.4887 76.4561 7.80595 76.9989 7.24837C77.5411 6.68997 78.216 6.411 79.0231 6.411C79.8259 6.411 80.4989 6.69144 81.0443 7.25196C81.589 7.81249 81.8616 8.49377 81.8616 9.29589C81.8616 10.1031 81.5901 10.7857 81.0479 11.3434Z" fill="white"/>
<path d="M77.5227 10.8812L77.4574 10.9459C77.8816 11.3763 78.4101 11.5949 79.0231 11.5938C79.6361 11.5949 80.1657 11.3763 80.5889 10.9459C81.0153 10.5152 81.2299 9.95787 81.2292 9.29601C81.2299 8.63416 81.0153 8.07686 80.5889 7.64611C80.1657 7.21573 79.6361 6.99714 79.0231 6.99824C78.4101 6.99714 77.8816 7.21573 77.4574 7.64611C77.0317 8.07686 76.817 8.63416 76.8177 9.29601C76.817 9.95787 77.0317 10.5152 77.4574 10.9459L77.5227 10.8812L77.5885 10.8165C77.1981 10.4192 77.0029 9.9194 77.0018 9.29601C77.0029 8.67263 77.1981 8.17285 77.5885 7.77552C77.9823 7.37827 78.4533 7.18342 79.0231 7.18232C79.593 7.18342 80.0647 7.37827 80.4576 7.77552L80.4605 7.77846L80.4576 7.77552C80.8491 8.17285 81.0444 8.67263 81.0451 9.29601C81.0444 9.9194 80.8491 10.4192 80.4576 10.8165C80.0647 11.2138 79.593 11.4086 79.0231 11.4097C78.4533 11.4086 77.9823 11.2138 77.5885 10.8165L77.5227 10.8812ZM81.048 11.3435L80.9821 11.2796C80.4548 11.8203 79.809 12.0874 79.0231 12.0885C78.2371 12.0874 77.5915 11.8203 77.0651 11.2796L77.0623 11.2767L77.0651 11.2796C76.5384 10.737 76.2784 10.0827 76.2773 9.29601C76.2784 8.50935 76.5384 7.85504 77.0651 7.31247C77.5915 6.77173 78.2371 6.50426 79.0231 6.50316C79.8044 6.50426 80.4483 6.77284 80.9786 7.31642C81.5071 7.86148 81.7688 8.51478 81.7695 9.29601C81.7688 10.0827 81.5078 10.737 80.9821 11.2796L81.048 11.3435L81.1141 11.4075C81.6724 10.8345 81.9544 10.1236 81.9536 9.29601C81.9544 8.47309 81.6714 7.76374 81.1105 7.18812C80.5497 6.61029 79.8471 6.31807 79.0231 6.31908C78.1947 6.31807 77.4904 6.60891 76.9328 7.18453V7.18416C76.3737 7.75757 76.0925 8.46839 76.0933 9.29601C76.0925 10.1236 76.3737 10.8345 76.9328 11.4079V11.4075C77.4904 11.9831 78.1947 12.2733 79.0231 12.2726C79.8514 12.2733 80.5558 11.9831 81.1141 11.4075L81.048 11.3435Z" fill="white"/>
<path d="M85.4719 11.3788H86.8994C87.1719 11.3788 87.3928 11.2836 87.563 11.0927C87.7324 10.9032 87.8171 10.6946 87.8171 10.4681C87.8171 10.242 87.7296 10.0352 87.5548 9.84756C87.3808 9.65989 87.1507 9.56573 86.8681 9.56573H85.4719V11.3788ZM85.4719 8.9024H86.7605C87.0283 8.9024 87.2427 8.81432 87.4047 8.63631C87.5667 8.45905 87.6477 8.2653 87.6477 8.05425C87.6477 7.84358 87.5695 7.65011 87.4121 7.47615C87.2556 7.301 87.0485 7.21329 86.7917 7.21329H85.4719V8.9024ZM84.7632 12.0573V6.53486H86.7605C87.1921 6.53486 87.5667 6.67798 87.8824 6.96266C88.199 7.24854 88.3573 7.60694 88.3573 8.03879C88.3573 8.30083 88.2892 8.5324 88.1521 8.73305C88.0168 8.9336 87.8355 9.08538 87.6091 9.18819V9.21874C87.8806 9.31115 88.1052 9.47075 88.28 9.69689C88.454 9.9234 88.5423 10.1859 88.5423 10.4839C88.5423 10.9362 88.3767 11.3115 88.0444 11.6097C87.7131 11.9081 87.321 12.0573 86.8681 12.0573H84.7632Z" fill="white"/>
<path d="M85.4719 11.3788V11.4709H86.8994C87.193 11.472 87.4461 11.3641 87.6311 11.1541C87.8134 10.9517 87.91 10.718 87.9091 10.4681C87.91 10.2179 87.8097 9.98525 87.6219 9.78469C87.4314 9.57788 87.1709 9.47259 86.8681 9.47369H85.3798V11.4709H85.4719V11.3788H85.5639V9.65777H86.8681C87.1314 9.65878 87.3293 9.74226 87.4876 9.91014C87.6495 10.0856 87.7241 10.2664 87.725 10.4681C87.7241 10.6712 87.6514 10.8547 87.494 11.0315C87.3403 11.2027 87.1507 11.2853 86.8994 11.2868H85.4719V11.3788H85.5639H85.4719ZM85.4719 8.9024V8.99444H86.7604C87.0476 8.99545 87.2943 8.89623 87.4728 8.69816V8.69853C87.6468 8.50865 87.7397 8.28932 87.7397 8.05425C87.7397 7.82056 87.6505 7.60197 87.4802 7.4143V7.41467C87.3081 7.21973 87.0688 7.12014 86.7917 7.12125H85.3798V8.99444H85.4719V8.9024H85.5639V7.30533H86.7917C87.0283 7.3068 87.2032 7.38227 87.3431 7.53727L87.344 7.53791L87.3431 7.53763C87.4876 7.6987 87.5547 7.86695 87.5557 8.05425C87.5547 8.24082 87.4857 8.4098 87.3366 8.5741V8.57446C87.1912 8.73231 87.008 8.80926 86.7604 8.81036H85.4719V8.9024H85.5639H85.4719ZM84.7632 12.0572H84.8552V6.6269H86.7604C87.1719 6.62764 87.5198 6.76063 87.8207 7.03105C88.1199 7.3021 88.2644 7.62967 88.2653 8.03879C88.2653 8.28509 88.2018 8.49614 88.0766 8.68123C87.9496 8.86826 87.783 9.00769 87.5704 9.10443L87.517 9.12891V9.21874V9.28455L87.5787 9.30572C87.8355 9.39353 88.0426 9.54088 88.2073 9.7534L88.2082 9.75441L88.2073 9.75303C88.3693 9.96445 88.4503 10.2038 88.4503 10.4839C88.4494 10.9139 88.2966 11.258 87.9827 11.5414C87.6661 11.825 87.3007 11.9645 86.8681 11.9652H84.7632V12.0572H84.8552H84.7632V12.1493H86.8681C87.3412 12.15 87.7591 11.9911 88.1061 11.678C88.4558 11.3655 88.6353 10.9588 88.6344 10.4839C88.6353 10.1679 88.5396 9.88244 88.3527 9.64084L88.3518 9.63973L88.3527 9.64047C88.1677 9.40107 87.9266 9.22914 87.6385 9.13176L87.609 9.21874H87.7011V9.18818H87.609L87.6468 9.27194C87.887 9.16306 88.084 8.99941 88.2285 8.78441V8.78478C88.3757 8.56876 88.4494 8.31666 88.4494 8.03879C88.4503 7.58467 88.2791 7.19497 87.9441 6.89437L87.9422 6.89262L87.9441 6.89437C87.6127 6.59487 87.2124 6.44209 86.7604 6.44282H84.6711V12.1493H84.7632V12.0572Z" fill="white"/>
</g>
<defs>
<clipPath id="clip0_1_12037">
<rect width="124.254" height="37" fill="white"/>
</clipPath>
<clipPath id="clip1_1_12037">
<rect width="124.53" height="37" fill="white" transform="translate(-0.193359)"/>
</clipPath>
</defs>
</svg>
