<svg width="111" height="37" viewBox="0 0 111 37" fill="none" xmlns="http://www.w3.org/2000/svg">
<g clip-path="url(#clip0_1_12038)">
<path d="M101.875 -1.82032e-06H8.81958C8.48038 -1.82032e-06 8.14525 -1.82026e-06 7.80695 0.00184818C7.52377 0.00369818 7.24283 0.00907243 6.95693 0.0135957C6.3358 0.0209048 5.71614 0.0755487 5.10332 0.177052C4.49136 0.280766 3.89857 0.476295 3.345 0.757027C2.79211 1.04013 2.28692 1.408 1.84775 1.84729C1.40628 2.28534 1.03828 2.79166 0.757899 3.3468C0.476745 3.90082 0.281792 4.49452 0.179774 5.10737C0.0767851 5.71944 0.021366 6.33858 0.0140138 6.95922C0.00542975 7.24282 0.00452325 7.52737 0 7.81101V29.1917C0.00452325 29.4789 0.00542975 29.7572 0.0140138 30.0445C0.0213683 30.6651 0.0767874 31.2842 0.179774 31.8962C0.281511 32.5094 0.476475 33.1035 0.757899 33.6577C1.03815 34.211 1.4062 34.7153 1.84775 35.1509C2.28525 35.5922 2.79077 35.9603 3.345 36.2412C3.89857 36.5227 4.49129 36.7194 5.10332 36.8247C5.71624 36.9254 6.33584 36.9801 6.95693 36.9882C7.24283 36.9945 7.52377 36.9981 7.80695 36.9981C8.14525 37 8.4804 37 8.81958 37H101.875C102.207 37 102.545 37 102.877 36.9981C103.159 36.9981 103.448 36.9945 103.73 36.9882C104.35 36.9805 104.968 36.9258 105.58 36.8247C106.194 36.7187 106.789 36.522 107.345 36.2412C107.899 35.9601 108.404 35.592 108.841 35.1509C109.282 34.7136 109.65 34.2097 109.934 33.6577C110.213 33.1031 110.407 32.5091 110.507 31.8962C110.61 31.2841 110.667 30.6651 110.678 30.0445C110.682 29.7572 110.682 29.4789 110.682 29.1917C110.689 28.8556 110.689 28.5214 110.689 28.1799V8.82092C110.689 8.48217 110.689 8.14614 110.682 7.81101C110.682 7.52737 110.682 7.24282 110.678 6.95918C110.667 6.33849 110.61 5.71949 110.507 5.10733C110.406 4.49483 110.213 3.90119 109.934 3.34676C109.363 2.23405 108.458 1.32832 107.345 0.756944C106.789 0.476898 106.194 0.281421 105.58 0.176969C104.969 0.0750183 104.35 0.0203554 103.73 0.0134662C103.448 0.00895218 103.159 0.00353168 102.877 0.00172793C102.545 -0.00012207 102.207 -0.00012207 101.875 -0.00012207V-1.82032e-06Z" fill="white"/>
<path d="M7.81155 36.1906C7.52972 36.1906 7.2547 36.187 6.97508 36.1807C6.39583 36.1731 5.81793 36.1227 5.24613 36.0298C4.71295 35.938 4.19644 35.7672 3.71364 35.523C3.23527 35.2809 2.79896 34.9634 2.42142 34.5826C2.03841 34.2064 1.71954 33.7701 1.47745 33.2909C1.23268 32.8086 1.06329 32.2916 0.975172 31.758C0.880012 31.1846 0.828526 30.6048 0.821159 30.0236C0.815295 29.8285 0.807617 29.179 0.807617 29.179V7.81097C0.807617 7.81097 0.815794 7.17141 0.821205 6.98352C0.828259 6.40325 0.879445 5.82436 0.974321 5.25185C1.0626 4.71676 1.23212 4.19829 1.47702 3.71441C1.71823 3.23555 2.03533 2.79887 2.41603 2.42131C2.7963 2.04015 3.23401 1.72101 3.71319 1.47552C4.19488 1.23214 4.71041 1.06253 5.24251 0.972376C5.81619 0.87855 6.3961 0.827823 6.97736 0.82062L7.812 0.809326H102.873L103.718 0.821074C104.294 0.827918 104.868 0.878192 105.437 0.971469C105.974 1.06275 106.495 1.23355 106.982 1.47823C107.942 1.97296 108.723 2.75568 109.216 3.71667C109.457 4.19721 109.624 4.71144 109.711 5.24192C109.807 5.81912 109.861 6.40256 109.872 6.98759C109.875 7.24955 109.875 7.53093 109.875 7.81097C109.882 8.15784 109.882 8.488 109.882 8.82087V28.1799C109.882 28.5159 109.882 28.8439 109.875 29.1745C109.875 29.4753 109.875 29.7508 109.871 30.0344C109.86 30.609 109.807 31.182 109.713 31.7489C109.627 32.2864 109.458 32.8074 109.213 33.2937C108.97 33.7676 108.652 34.2002 108.274 34.5754C107.896 34.9582 107.459 35.2776 106.979 35.5212C106.494 35.7673 105.973 35.9387 105.437 36.0298C104.865 36.1232 104.287 36.1736 103.708 36.1807C103.437 36.187 103.153 36.1906 102.877 36.1906L101.875 36.1924L7.81155 36.1906Z" fill="black"/>
<path d="M23.122 18.3972C23.1324 17.5943 23.3456 16.8071 23.7419 16.1088C24.1383 15.4105 24.7048 14.8238 25.3888 14.4033C24.9543 13.7827 24.381 13.272 23.7146 12.9117C23.0482 12.5514 22.3069 12.3515 21.5497 12.3278C19.9344 12.1582 18.3685 13.2943 17.5454 13.2943C16.7063 13.2943 15.439 12.3446 14.0743 12.3727C13.1916 12.4012 12.3313 12.6579 11.5773 13.1178C10.8233 13.5776 10.2013 14.2249 9.77181 14.9967C7.91153 18.2175 9.29913 22.9511 11.0812 25.5546C11.9727 26.8295 13.0147 28.2535 14.3782 28.203C15.7124 28.1477 16.2107 27.3522 17.8212 27.3522C19.4168 27.3522 19.8843 28.203 21.2754 28.1709C22.7071 28.1477 23.6091 26.8904 24.4695 25.6035C25.1101 24.6951 25.603 23.6911 25.93 22.6288C25.0983 22.277 24.3885 21.6881 23.8891 20.9356C23.3898 20.1831 23.123 19.3003 23.122 18.3972Z" fill="white"/>
<path d="M20.4944 10.6158C21.2751 9.67873 21.6596 8.47425 21.5665 7.25818C20.3739 7.38344 19.2723 7.95342 18.4811 8.85456C18.0943 9.29479 17.798 9.80695 17.6093 10.3617C17.4205 10.9165 17.3429 11.5031 17.381 12.0879C17.9775 12.094 18.5676 11.9647 19.1069 11.7098C19.6462 11.4548 20.1207 11.0807 20.4944 10.6158V10.6158Z" fill="white"/>
<path d="M39.1291 25.1042H34.7507L33.6992 28.2089H31.8447L35.9919 16.7223H37.9186L42.0658 28.2089H40.1797L39.1291 25.1042ZM35.2042 23.6716H38.6748L36.9639 18.6328H36.916L35.2042 23.6716Z" fill="white"/>
<path d="M51.0223 24.0218C51.0223 26.6243 49.6293 28.2963 47.5273 28.2963C46.9948 28.3242 46.4653 28.2015 45.9993 27.9424C45.5333 27.6833 45.1496 27.2982 44.8923 26.8311H44.8526V30.9792H43.1335V19.834H44.7975V21.227H44.8291C45.0982 20.7622 45.4883 20.3791 45.9579 20.1183C46.4274 19.8576 46.9589 19.7291 47.4957 19.7464C49.6212 19.7464 51.0223 21.4266 51.0223 24.0218ZM49.2554 24.0218C49.2554 22.3263 48.3791 21.2116 47.0422 21.2116C45.7288 21.2116 44.8454 22.3498 44.8454 24.0218C44.8454 25.7092 45.7288 26.8393 47.0422 26.8393C48.3792 26.8393 49.2553 25.7327 49.2553 24.0218H49.2554Z" fill="white"/>
<path d="M60.2402 24.0218C60.2402 26.6243 58.8469 28.2963 56.7448 28.2963C56.2124 28.3242 55.6828 28.2015 55.2168 27.9424C54.7508 27.6833 54.3672 27.2982 54.1099 26.8311H54.0701V30.9792H52.3511V19.834H54.015V21.227H54.0466C54.3157 20.7622 54.7058 20.3791 55.1754 20.1183C55.645 19.8576 56.1764 19.7291 56.7132 19.7464C58.8387 19.7464 60.2402 21.4266 60.2402 24.0218ZM58.4729 24.0218C58.4729 22.3263 57.5967 21.2116 56.2598 21.2116C54.9463 21.2116 54.0629 22.3498 54.0629 24.0218C54.0629 25.7092 54.9463 26.8393 56.2598 26.8393C57.5967 26.8393 58.4729 25.7327 58.4729 24.0218V24.0218Z" fill="white"/>
<path d="M66.3312 25.0085C66.4586 26.1476 67.5652 26.8955 69.0773 26.8955C70.5263 26.8955 71.5687 26.1475 71.5687 25.1204C71.5687 24.2289 70.94 23.695 69.4513 23.3292L67.9626 22.9705C65.8534 22.4611 64.8742 21.4746 64.8742 19.874C64.8742 17.8921 66.6013 16.5308 69.053 16.5308C71.4811 16.5308 73.145 17.8921 73.201 19.874H71.4657C71.3618 18.7276 70.4142 18.0357 69.0295 18.0357C67.6447 18.0357 66.6971 18.7358 66.6971 19.7547C66.6971 20.5668 67.3023 21.0447 68.7828 21.4105L70.0484 21.7212C72.4052 22.2786 73.3835 23.2253 73.3835 24.9054C73.3835 27.0544 71.6726 28.4004 68.9499 28.4004C66.4026 28.4004 64.6826 27.086 64.5715 25.0084L66.3312 25.0085Z" fill="white"/>
<path d="M77.0952 17.8523V19.8342H78.6878V21.1955H77.0952V25.8124C77.0952 26.5296 77.4141 26.8638 78.1142 26.8638C78.3032 26.8605 78.492 26.8472 78.6796 26.824V28.1772C78.3649 28.236 78.045 28.2627 77.7248 28.2567C76.0293 28.2567 75.3681 27.6199 75.3681 25.9957V21.1955H74.1504V19.8342H75.368V17.8523H77.0952Z" fill="white"/>
<path d="M79.6091 24.022C79.6091 21.387 81.161 19.7312 83.581 19.7312C86.0092 19.7312 87.5538 21.387 87.5538 24.022C87.5538 26.6642 86.0173 28.3127 83.581 28.3127C81.1457 28.3127 79.6091 26.6642 79.6091 24.022ZM85.8023 24.022C85.8023 22.2144 84.9739 21.1476 83.581 21.1476C82.1881 21.1476 81.3598 22.2226 81.3598 24.022C81.3598 25.8367 82.1881 26.8954 83.581 26.8954C84.9739 26.8954 85.8023 25.8367 85.8023 24.022H85.8023Z" fill="white"/>
<path d="M88.9712 19.834H90.6107V21.2594H90.6505C90.7614 20.8142 91.0222 20.4208 91.3891 20.1452C91.7559 19.8697 92.2064 19.7288 92.6649 19.7463C92.863 19.7456 93.0606 19.7672 93.2539 19.8105V21.4184C93.0038 21.342 92.7429 21.3069 92.4815 21.3145C92.2318 21.3044 91.9828 21.3484 91.7517 21.4436C91.5206 21.5387 91.3128 21.6828 91.1426 21.8658C90.9725 22.0489 90.8439 22.2666 90.7658 22.504C90.6877 22.7414 90.6619 22.9929 90.6902 23.2413V28.2086H88.9712L88.9712 19.834Z" fill="white"/>
<path d="M101.179 25.7491C100.948 27.2694 99.4677 28.3127 97.5734 28.3127C95.1371 28.3127 93.625 26.6804 93.625 24.0617C93.625 21.4349 95.1453 19.7312 97.5011 19.7312C99.8182 19.7312 101.275 21.3228 101.275 23.8621V24.451H95.3603V24.5549C95.333 24.8631 95.3716 25.1736 95.4735 25.4658C95.5754 25.7579 95.7383 26.0251 95.9514 26.2494C96.1645 26.4738 96.4228 26.6502 96.7093 26.7671C96.9959 26.8839 97.304 26.9384 97.6132 26.927C98.0194 26.9651 98.427 26.871 98.7755 26.6588C99.1239 26.4466 99.3946 26.1275 99.5472 25.7491L101.179 25.7491ZM95.3684 23.2496H99.5553C99.5707 22.9725 99.5287 22.6952 99.4319 22.4351C99.335 22.1749 99.1855 21.9376 98.9926 21.7381C98.7997 21.5385 98.5677 21.3809 98.311 21.2753C98.0544 21.1696 97.7786 21.1182 97.5011 21.1241C97.2212 21.1225 96.9437 21.1762 96.6847 21.2824C96.4256 21.3885 96.1902 21.5449 95.9919 21.7425C95.7936 21.9401 95.6364 22.175 95.5294 22.4337C95.4224 22.6924 95.3677 22.9697 95.3684 23.2496V23.2496Z" fill="white"/>
<path d="M33.9829 10.4095H34.7209C34.848 10.4253 34.9769 10.4146 35.0996 10.3781C35.2224 10.3416 35.3362 10.2801 35.434 10.1975C35.5317 10.1148 35.6113 10.0128 35.6677 9.89785C35.7241 9.78291 35.756 9.65753 35.7616 9.52963C35.7616 9.02061 35.3786 8.6918 34.7291 8.6918C34.5989 8.67361 34.4664 8.68169 34.3394 8.71555C34.2125 8.74941 34.0935 8.80838 33.9897 8.88896C33.8859 8.96954 33.7993 9.07011 33.735 9.18472C33.6706 9.29934 33.63 9.42567 33.6153 9.55628H32.805C32.8189 9.3192 32.8815 9.08753 32.9889 8.8757C33.0962 8.66386 33.2461 8.47639 33.429 8.32497C33.612 8.17354 33.8241 8.0614 34.0523 7.99552C34.2805 7.92964 34.5197 7.91144 34.7552 7.94204C35.8419 7.94204 36.6071 8.55042 36.6071 9.42619C36.6096 9.71958 36.5115 10.005 36.329 10.2347C36.1465 10.4645 35.8908 10.6247 35.6044 10.6886V10.7536C35.9439 10.7687 36.2636 10.9175 36.4936 11.1676C36.7237 11.4177 36.8453 11.7487 36.832 12.0883C36.8069 12.3324 36.7333 12.569 36.6155 12.7843C36.4978 12.9996 36.3382 13.1892 36.1462 13.342C35.9542 13.4948 35.7337 13.6078 35.4975 13.6743C35.2613 13.7408 35.0141 13.7594 34.7706 13.7292C34.5266 13.7624 34.2784 13.7462 34.0407 13.6815C33.8031 13.6168 33.581 13.5049 33.3875 13.3525C33.194 13.2001 33.0332 13.0103 32.9147 12.7944C32.7961 12.5785 32.7223 12.341 32.6975 12.096H33.5204C33.5701 12.624 34.0552 12.9645 34.7706 12.9645C35.4861 12.9645 35.9531 12.582 35.9531 12.0427C35.9531 11.4957 35.5132 11.1588 34.7444 11.1588H33.9829V10.4095Z" fill="white"/>
<path d="M37.7668 12.4172C37.7668 11.6674 38.326 11.2352 39.316 11.1737L40.4443 11.1087V10.7492C40.4443 10.3093 40.1543 10.0608 39.5916 10.0608C39.1327 10.0608 38.8156 10.2293 38.7235 10.5238H37.9276C38.0116 9.80837 38.6855 9.34949 39.6304 9.34949C40.6746 9.34949 41.2636 9.86934 41.2636 10.7492V13.5951H40.4714V13.0097H40.4064C40.2743 13.2197 40.089 13.3909 39.8692 13.5058C39.6494 13.6207 39.403 13.6752 39.1553 13.6637C38.9804 13.6819 38.8037 13.6632 38.6365 13.609C38.4693 13.5547 38.3153 13.4659 38.1845 13.3485C38.0537 13.231 37.9489 13.0875 37.877 12.9271C37.8051 12.7667 37.7675 12.593 37.7668 12.4172V12.4172ZM40.4443 12.0612V11.713L39.4271 11.7781C38.8535 11.8164 38.5933 12.0116 38.5933 12.3788C38.5933 12.7536 38.9185 12.9718 39.3657 12.9718C39.4967 12.9851 39.6291 12.9718 39.7549 12.9329C39.8807 12.894 39.9974 12.8301 40.098 12.7452C40.1987 12.6602 40.2812 12.5559 40.3407 12.4384C40.4001 12.3209 40.4354 12.1926 40.4443 12.0612V12.0612Z" fill="white"/>
<path d="M43.4453 10.1219V13.5951H42.6233V9.42993H45.3658V10.1218L43.4453 10.1219Z" fill="white"/>
<path d="M50.3475 11.5114C50.3475 12.8348 49.6781 13.6645 48.6266 13.6645C48.3685 13.6821 48.1108 13.6256 47.8837 13.5017C47.6566 13.3777 47.4696 13.1915 47.3448 12.9648H47.2798V14.9806H46.4578V9.4306H47.2491V10.119H47.3105C47.4375 9.88442 47.6269 9.68955 47.8578 9.55589C48.0886 9.42222 48.3519 9.35496 48.6185 9.36152C49.6781 9.36149 50.3475 10.1876 50.3475 11.5114ZM49.502 11.5114C49.502 10.6316 49.0855 10.1 48.3891 10.1C47.6972 10.1 47.2644 10.6429 47.2644 11.515C47.2644 12.3831 47.6971 12.9265 48.3855 12.9265C49.0855 12.9264 49.502 12.3948 49.502 11.5114Z" fill="white"/>
<path d="M51.4422 15.087V14.3792C51.5311 14.3905 51.6208 14.3957 51.7104 14.3946C51.8856 14.4076 52.0593 14.3554 52.1983 14.2481C52.3374 14.1408 52.4319 13.986 52.4638 13.8133L52.5252 13.6105L51.0176 9.42993H51.9128L52.957 12.7383H53.0221L54.0627 9.42993H54.9344L53.3816 13.7672C53.0257 14.7807 52.6319 15.106 51.7827 15.106C51.7141 15.1059 51.519 15.0983 51.4422 15.087Z" fill="white"/>
<path d="M55.575 12.4132H56.3934C56.4738 12.7804 56.8179 12.9719 57.2994 12.9719C57.8468 12.9719 58.1828 12.7307 58.1828 12.3558C58.1828 11.9543 57.8811 11.7628 57.2994 11.7628H56.6761V11.1242H57.2886C57.7854 11.1242 58.0383 10.9331 58.0383 10.5849C58.0383 10.2791 57.7935 10.0456 57.2886 10.0456C56.8288 10.0456 56.4927 10.2407 56.4394 10.5695H55.6472C55.7064 10.1917 55.9116 9.85223 56.2185 9.62409C56.5255 9.39596 56.9097 9.2974 57.2886 9.34961C58.2786 9.34961 58.845 9.79721 58.845 10.5009C58.8496 10.6969 58.7868 10.8885 58.6671 11.0437C58.5474 11.1989 58.3781 11.3083 58.1874 11.3536V11.4187C58.4144 11.448 58.6228 11.5596 58.773 11.7323C58.9232 11.9051 59.0047 12.127 59.0022 12.3559C59.0022 13.1477 58.3283 13.6715 57.2994 13.6715C56.3897 13.6715 55.6508 13.2546 55.575 12.4132Z" fill="white"/>
<path d="M60.186 13.5951V9.42993H61.0008V12.2948H61.0659L62.9854 9.42994H63.8002V13.5951H62.9854V10.7149H62.924L61.0008 13.5952L60.186 13.5951Z" fill="white"/>
<path d="M68.2887 10.1226H66.9771V13.5958H66.1542V10.1226H64.8425V9.43066H68.2887V10.1226Z" fill="white"/>
<path d="M72.7168 12.4705C72.6048 12.8512 72.3626 13.1804 72.0326 13.4007C71.7025 13.6209 71.3056 13.7182 70.9111 13.6756C70.6367 13.6828 70.364 13.6302 70.1119 13.5215C69.8598 13.4128 69.6344 13.2506 69.4514 13.046C69.2683 12.8414 69.1319 12.5995 69.0518 12.337C68.9716 12.0744 68.9495 11.7976 68.987 11.5257C68.9505 11.2529 68.973 10.9755 69.053 10.7121C69.133 10.4488 69.2686 10.2057 69.4507 9.9994C69.6328 9.79306 69.8571 9.62825 70.1084 9.51614C70.3598 9.40402 70.6323 9.34721 70.9075 9.34956C72.0664 9.34956 72.7665 10.1414 72.7665 11.4493V11.7361H69.8253V11.7822C69.8123 11.9351 69.8314 12.089 69.8814 12.2341C69.9314 12.3791 70.0112 12.5121 70.1157 12.6245C70.2201 12.7369 70.347 12.8262 70.488 12.8866C70.629 12.9471 70.7811 12.9773 70.9346 12.9755C71.1311 12.999 71.3301 12.9635 71.5064 12.8736C71.6827 12.7837 71.8283 12.6434 71.9246 12.4705L72.7168 12.4705ZM69.8253 11.1282H71.9282C71.9386 10.9885 71.9196 10.8481 71.8726 10.7162C71.8255 10.5842 71.7513 10.4635 71.6549 10.3619C71.5584 10.2603 71.4418 10.18 71.3124 10.1261C71.1831 10.0723 71.0439 10.0461 70.9038 10.0492C70.7616 10.0473 70.6205 10.0738 70.4887 10.1274C70.3569 10.1809 70.2373 10.2604 70.1367 10.3609C70.0362 10.4615 69.9568 10.5813 69.9033 10.713C69.8498 10.8448 69.8233 10.986 69.8253 11.1282H69.8253Z" fill="white"/>
<path d="M76.2019 9.42993H78.0799C78.8947 9.42993 79.3725 9.84275 79.3725 10.4891C79.3738 10.6941 79.3046 10.8934 79.1765 11.0536C79.0484 11.2137 78.8692 11.3251 78.6689 11.3689V11.4339C78.9121 11.4493 79.1402 11.5575 79.3059 11.7362C79.4717 11.9149 79.5625 12.1504 79.5595 12.3942C79.5595 13.1209 79.013 13.5951 78.0989 13.5951H76.2019V9.42993ZM77.0167 10.0609V11.1395H77.8315C78.3283 11.1395 78.5659 10.9484 78.5659 10.5961C78.5659 10.2714 78.359 10.0609 77.9227 10.0609L77.0167 10.0609ZM77.0167 11.7438V12.9642H77.9914C78.4774 12.9642 78.7376 12.7496 78.7376 12.3558C78.7376 11.9389 78.4431 11.7438 77.8884 11.7438L77.0167 11.7438Z" fill="white"/>
</g>
<defs>
<clipPath id="clip0_1_12038">
<rect width="110.689" height="37" fill="white"/>
</clipPath>
</defs>
</svg>
