<svg width="29" height="28" viewBox="0 0 29 28" fill="none" xmlns="http://www.w3.org/2000/svg">
<path d="M24.7475 14.6036C25.0303 14.3612 25.1716 14.24 25.2234 14.0958C25.2689 13.9692 25.2689 13.8308 25.2234 13.7042C25.1716 13.56 25.0303 13.4388 24.7475 13.1964L14.9356 4.78619C14.4488 4.36896 14.2054 4.16035 13.9994 4.15524C13.8203 4.1508 13.6492 4.22947 13.536 4.36833C13.4058 4.52811 13.4058 4.84866 13.4058 5.48977V10.4651C10.9332 10.8977 8.67009 12.1506 6.98832 14.0319C5.15482 16.0829 4.14059 18.7371 4.13916 21.4882V22.1971C5.35465 20.7328 6.87225 19.5486 8.58804 18.7255C10.1008 17.9998 11.736 17.57 13.4058 17.4567V22.3102C13.4058 22.9513 13.4058 23.2719 13.536 23.4317C13.6492 23.5705 13.8203 23.6492 13.9994 23.6447C14.2054 23.6396 14.4488 23.431 14.9356 23.0138L24.7475 14.6036Z" stroke="black" stroke-width="1.5" stroke-linecap="round" stroke-linejoin="round"/>
</svg>
