<svg width="9" height="16" viewBox="0 0 9 16" fill="none" xmlns="http://www.w3.org/2000/svg">
<path d="M0 7.9954C0 8.22563 0.0828226 8.42835 0.25767 8.60332L7.55524 15.742C7.71168 15.9079 7.91412 15.9908 8.15339 15.9908C8.63194 15.9908 9 15.6315 9 15.1525C9 14.9131 8.89878 14.7104 8.75154 14.5538L2.05215 7.9954L8.75154 1.43695C8.89878 1.28037 9 1.06851 9 0.838228C9 0.359239 8.63194 0 8.15339 0C7.91412 0 7.71168 0.0829016 7.55524 0.239493L0.25767 7.38744C0.0828226 7.55325 0 7.7651 0 7.9954Z" fill="black"/>
</svg>
