<svg width="12" height="11" viewBox="0 0 12 11" fill="none" xmlns="http://www.w3.org/2000/svg">
<g clip-path="url(#clip0_5_12601)">
<path d="M0.184814 3.85576C0.184814 6.326 2.17386 8.75559 5.31623 10.8431C5.43324 10.9185 5.60035 10.9997 5.71736 10.9997C5.83436 10.9997 6.00153 10.9185 6.1241 10.8431C9.26086 8.75559 11.2499 6.326 11.2499 3.85576C11.2499 1.80305 9.89604 0.353395 8.09085 0.353395C7.06009 0.353395 6.22437 0.863672 5.71736 1.64649C5.22152 0.869471 4.37462 0.353395 3.34389 0.353395C1.5387 0.353395 0.184814 1.80305 0.184814 3.85576ZM1.08184 3.85576C1.08184 2.31333 2.04014 1.28697 3.33274 1.28697C4.3802 1.28697 4.9819 1.96541 5.33848 2.54527C5.48891 2.77722 5.58367 2.84101 5.71736 2.84101C5.8511 2.84101 5.93468 2.77142 6.09624 2.54527C6.48068 1.97701 7.06009 1.28697 8.10197 1.28697C9.3946 1.28697 10.3529 2.31333 10.3529 3.85576C10.3529 6.01283 8.16326 8.33812 5.83436 9.95013C5.77864 9.9907 5.73966 10.0197 5.71736 10.0197C5.69506 10.0197 5.65608 9.9907 5.60592 9.95013C3.27146 8.33812 1.08184 6.01283 1.08184 3.85576Z" fill="#636366"/>
</g>
<defs>
<clipPath id="clip0_5_12601">
<rect width="11.0651" height="11" fill="white" transform="translate(0.184814 -0.000320435)"/>
</clipPath>
</defs>
</svg>
