<svg width="14" height="14" viewBox="0 0 14 14" fill="none" xmlns="http://www.w3.org/2000/svg">
<g clip-path="url(#clip0_45_5072)">
<path d="M7.01146 4.25195L6.14228 5.13421C7.00488 5.20609 7.5669 5.46096 7.99173 5.88575C9.13534 7.02942 9.12882 8.65012 7.99826 9.78073L5.86127 11.9112C4.72412 13.0483 3.11647 13.0549 1.97281 11.9177C0.829154 10.7675 0.835689 9.15988 1.97281 8.02274L3.2537 6.74188C3.07072 6.33016 3.02498 5.84002 3.09686 5.41522L1.17552 7.33C-0.386391 8.89844 -0.399461 11.1204 1.18205 12.702C2.7701 14.29 4.99206 14.2769 6.55395 12.715L8.78903 10.4735C10.3575 8.90502 10.3705 6.68305 8.78245 5.10153C8.37078 4.68981 7.84796 4.39573 7.01146 4.25195ZM6.84806 9.63696L7.71725 8.75468C6.85459 8.68932 6.29257 8.42794 5.86779 8.00316C4.72412 6.8595 4.73066 5.23877 5.86127 4.10818L7.99173 1.97771C9.13534 0.840591 10.743 0.834055 11.8867 1.97771C13.0303 3.12137 13.0173 4.73556 11.8867 5.86612L10.6058 7.14703C10.7888 7.56528 10.828 8.04889 10.7626 8.47367L12.684 6.55886C14.2459 4.99043 14.2589 2.77501 12.6774 1.18695C11.0894 -0.401095 8.86744 -0.388025 7.29899 1.18042L5.07049 3.41545C3.50204 4.98389 3.48897 7.20586 5.07702 8.78736C5.48874 9.19908 6.01156 9.4932 6.84806 9.63696Z" fill="black" fill-opacity="0.85"/>
</g>
<defs>
<clipPath id="clip0_45_5072">
<rect width="13.8595" height="14" fill="white"/>
</clipPath>
</defs>
</svg>
