<svg width="15" height="16" viewBox="0 0 15 16" fill="none" xmlns="http://www.w3.org/2000/svg">
<path d="M7.58845 5.53186L6.64774 6.47713C7.58133 6.55415 8.1896 6.82723 8.64939 7.28236C9.88711 8.50771 9.88005 10.2442 8.65645 11.4556L6.34361 13.7382C5.11288 14.9566 3.37293 14.9635 2.13516 13.7452C0.897387 12.5128 0.90446 10.7904 2.13516 9.57199L3.52146 8.19964C3.32342 7.75851 3.27391 7.23336 3.35171 6.77821L1.27225 8.82977C-0.418189 10.5102 -0.432334 12.8909 1.27933 14.5854C2.99806 16.2869 5.40287 16.2729 7.09329 14.5994L9.5123 12.1978C11.2098 10.5173 11.2239 8.13661 9.50518 6.44212C9.05963 6.00099 8.49379 5.68591 7.58845 5.53186ZM7.41161 11.3015L8.35232 10.3562C7.41867 10.2862 6.8104 10.0061 6.35067 9.55101C5.11288 8.32565 5.11995 6.58916 6.34361 5.37782L8.64939 3.09517C9.88711 1.87683 11.6271 1.86983 12.8648 3.09517C14.1026 4.32052 14.0885 6.05001 12.8648 7.26132L11.4786 8.63373C11.6766 9.08185 11.719 9.60001 11.6483 10.0551L13.7278 8.00354C15.4182 6.32308 15.4323 3.94942 13.7207 2.24793C12.002 0.546451 9.59716 0.560455 7.89965 2.24093L5.48775 4.63561C3.79024 6.31608 3.77609 8.69676 5.49482 10.3912C5.94042 10.8324 6.50627 11.1475 7.41161 11.3015Z" fill="#636366"/>
</svg>
