<svg width="57" height="57" viewBox="0 0 57 57" fill="none" xmlns="http://www.w3.org/2000/svg">
<g clip-path="url(#clip0_96_1928)">
<mask id="mask0_96_1928" style="mask-type:luminance" maskUnits="userSpaceOnUse" x="0" y="0" width="57" height="57">
<path d="M38.3986 0H18.6014C8.32813 0 0 8.32813 0 18.6014V38.3986C0 48.6719 8.32813 57 18.6014 57H38.3986C48.6719 57 57 48.6719 57 38.3986V18.6014C57 8.32813 48.6719 0 38.3986 0Z" fill="white"/>
</mask>
<g mask="url(#mask0_96_1928)">
<path d="M38.3986 0H18.6014C8.32813 0 0 8.32813 0 18.6014V38.3986C0 48.6719 8.32813 57 18.6014 57H38.3986C48.6719 57 57 48.6719 57 38.3986V18.6014C57 8.32813 48.6719 0 38.3986 0Z" fill="#FF004F"/>
<path d="M13.3931 25.2315C13.3931 19.0643 13.3931 15.9806 14.1172 13.4619C15.8869 7.3061 20.6992 2.49382 26.8549 0.724107C29.3738 0 32.4574 0 38.6245 0C44.7917 0 47.8753 0 50.3942 0.724107C56.5499 2.49382 61.3621 7.3061 63.1319 13.4619C63.856 15.9806 63.856 19.0643 63.856 25.2315V26.4949C63.856 32.1868 63.856 35.0328 62.995 37.0112C61.419 40.6329 57.9208 43.0439 53.9752 43.2278C51.8204 43.3285 49.1606 42.3155 43.8412 40.2898L38.6245 38.3032L33.4079 40.2898C28.0884 42.3155 25.4288 43.3285 23.2737 43.2278C19.3281 43.0439 15.8302 40.6329 14.254 37.0112C13.3931 35.0328 13.3931 32.1868 13.3931 26.4949V25.2315Z" fill="white"/>
<path d="M20.2489 18.3755C20.2489 8.227 28.476 0 38.6244 0C48.7728 0 57 8.227 57 18.3755V29.6286C57 32.6335 57 34.1357 56.3744 35.082C55.8105 35.9355 54.9243 36.5233 53.9188 36.7109C52.8035 36.919 51.4195 36.3344 48.6514 35.1657L38.6244 30.9315L28.5975 35.1657C25.8293 36.3344 24.4452 36.919 23.3302 36.7109C22.3246 36.5233 21.4384 35.9355 20.8744 35.082C20.2489 34.1357 20.2489 32.6335 20.2489 29.6286V18.3755Z" fill="#FF004F"/>
</g>
</g>
<defs>
<clipPath id="clip0_96_1928">
<rect width="57" height="57" fill="white"/>
</clipPath>
</defs>
</svg>
