<svg width="78" height="25" viewBox="0 0 78 25" fill="none" xmlns="http://www.w3.org/2000/svg">
<path fill-rule="evenodd" clip-rule="evenodd" d="M0.702241 4.84711C0 6.42834 0 8.45224 0 12.5C0 16.5478 0 18.5717 0.702241 20.1529C1.52268 22.0002 2.99972 23.4773 4.84711 24.2978C6.42834 25 8.45224 25 12.5 25C16.5478 25 18.5717 25 20.1529 24.2978C22.0002 23.4773 23.4773 22.0002 24.2978 20.1529C24.4821 19.7378 24.6181 19.2922 24.7183 18.7875C24.3823 18.8841 24.0321 18.9429 23.6733 18.9596C22.7282 19.0037 21.5617 18.5594 19.2286 17.671L16.9406 16.7997L14.6526 17.671C12.3195 18.5594 11.153 19.0037 10.2078 18.9596C8.47723 18.8789 6.94305 17.8214 6.25172 16.233C5.87413 15.3653 5.87413 14.117 5.87413 11.6205V11.0664C5.87413 8.36151 5.87413 7.00906 6.19171 5.90434C6.9679 3.20443 9.07856 1.09378 11.7784 0.317591C12.5643 0.0916741 13.4755 0.0264622 14.9097 0.00763845C14.1944 0 13.3969 0 12.5 0C8.45224 0 6.42834 0 4.84711 0.702241C2.99972 1.52268 1.52268 2.99972 0.702241 4.84711ZM16.1955 0.0339852C12.0936 0.409992 8.88112 3.85956 8.88112 8.05944V12.995C8.88112 14.3129 8.88112 14.9718 9.15544 15.3868C9.40281 15.7612 9.79153 16.019 10.2326 16.1013C10.7216 16.1925 11.3287 15.9361 12.5428 15.4235L16.9406 13.5664L21.3383 15.4235C22.5524 15.9361 23.1594 16.1925 23.6486 16.1013C24.0896 16.019 24.4783 15.7612 24.7256 15.3868C24.9717 15.0147 24.9971 14.4464 24.9996 13.3826C25 13.0994 25 12.8055 25 12.5C25 8.45224 25 6.42834 24.2978 4.84711C23.4773 2.99972 22.0002 1.52268 20.1529 0.702241C19.1479 0.25591 17.9641 0.0932585 16.1955 0.0339852Z" fill="url(#paint0_linear_1_12034)"/>
<path d="M41.4699 5H43.9053V19.6721H41.4699V13.2172C41.0532 13.5451 40.5575 13.8183 39.9828 14.0369C39.4225 14.2418 38.7544 14.3443 37.9785 14.3443C37.2888 14.3443 36.6351 14.2418 36.0173 14.0369C35.4138 13.832 34.8894 13.5383 34.444 13.1557C33.9986 12.7596 33.6466 12.2814 33.3879 11.7213C33.1293 11.1612 33 10.526 33 9.81557V5H35.4785V9.40574C35.4785 10.3074 35.7443 10.9973 36.2759 11.4754C36.8219 11.9399 37.5403 12.1721 38.4311 12.1721C39.092 12.1721 39.6667 12.0492 40.1552 11.8033C40.6581 11.5574 41.0963 11.2227 41.4699 10.7992V5Z" fill="black"/>
<path d="M50.4927 9.30328C51.2973 9.30328 52.0373 9.43989 52.7126 9.71311C53.3879 9.97268 53.9698 10.3415 54.4583 10.8197C54.9468 11.2978 55.3275 11.8648 55.6005 12.5205C55.8735 13.1762 56.01 13.8866 56.01 14.6516C56.01 15.4167 55.8735 16.127 55.6005 16.7828C55.3275 17.4385 54.9468 18.0055 54.4583 18.4836C53.9698 18.9617 53.3879 19.3374 52.7126 19.6107C52.0373 19.8702 51.2973 20 50.4927 20C49.6881 20 48.9482 19.8702 48.2729 19.6107C47.5976 19.3374 47.0157 18.9617 46.5272 18.4836C46.0387 18.0055 45.6579 17.4385 45.3849 16.7828C45.1119 16.127 44.9754 15.4167 44.9754 14.6516C44.9754 13.8866 45.1119 13.1762 45.3849 12.5205C45.6579 11.8648 46.0387 11.2978 46.5272 10.8197C47.0157 10.3415 47.5976 9.97268 48.2729 9.71311C48.9482 9.43989 49.6881 9.30328 50.4927 9.30328ZM50.4927 17.8893C50.895 17.8893 51.283 17.8142 51.6565 17.6639C52.0301 17.5137 52.3606 17.3019 52.6479 17.0287C52.9496 16.7555 53.1867 16.4208 53.3591 16.0246C53.5315 15.6148 53.6177 15.1571 53.6177 14.6516C53.6177 14.1462 53.5315 13.6954 53.3591 13.2992C53.1867 12.8893 52.9496 12.5478 52.6479 12.2746C52.3606 12.0014 52.0301 11.7896 51.6565 11.6393C51.283 11.4891 50.895 11.4139 50.4927 11.4139C50.0904 11.4139 49.7025 11.4891 49.3289 11.6393C48.9554 11.7896 48.6177 12.0014 48.316 12.2746C48.0286 12.5478 47.7987 12.8893 47.6263 13.2992C47.4539 13.6954 47.3677 14.1462 47.3677 14.6516C47.3677 15.1571 47.4539 15.6148 47.6263 16.0246C47.7987 16.4208 48.0286 16.7555 48.316 17.0287C48.6177 17.3019 48.9554 17.5137 49.3289 17.6639C49.7025 17.8142 50.0904 17.8893 50.4927 17.8893Z" fill="black"/>
<path d="M66.5832 19.6721H64.191V15.0205L64.3203 13.0533H64.191L59.3633 19.6721H56.9711V9.63115H59.3633V14.2828L59.234 16.25H59.3633L64.191 9.63115H66.5832V19.6721ZM61.928 8.03279C61.5545 8.03279 61.1953 7.96448 60.8504 7.82787C60.5056 7.69126 60.1967 7.50683 59.9237 7.27459C59.6651 7.04235 59.4567 6.76229 59.2987 6.43443C59.1406 6.10656 59.0616 5.75137 59.0616 5.36885H60.8504C60.8504 5.64208 60.9438 5.88798 61.1306 6.10656C61.3174 6.31148 61.5832 6.41393 61.928 6.41393C62.2585 6.41393 62.5171 6.31148 62.7039 6.10656C62.8907 5.88798 62.9841 5.64208 62.9841 5.36885H64.7513C64.7513 5.75137 64.6723 6.10656 64.5142 6.43443C64.3562 6.76229 64.1479 7.04235 63.8892 7.27459C63.6306 7.50683 63.3289 7.69126 62.9841 7.82787C62.6536 7.96448 62.3016 8.03279 61.928 8.03279Z" fill="black"/>
<path d="M78 17.1107C77.7988 17.5068 77.5474 17.8825 77.2457 18.2377C76.9583 18.5792 76.6135 18.8866 76.2112 19.1598C75.8233 19.4194 75.3707 19.6243 74.8534 19.7746C74.3362 19.9249 73.7686 20 73.1508 20C72.3462 20 71.6063 19.8702 70.931 19.6107C70.2557 19.3374 69.6738 18.9617 69.1853 18.4836C68.6968 18.0055 68.316 17.4385 68.043 16.7828C67.77 16.127 67.6335 15.4167 67.6335 14.6516C67.6335 13.8866 67.77 13.1762 68.043 12.5205C68.316 11.8648 68.6968 11.2978 69.1853 10.8197C69.6738 10.3415 70.2557 9.97268 70.931 9.71311C71.6063 9.43989 72.3462 9.30328 73.1508 9.30328C73.7686 9.30328 74.329 9.37841 74.8319 9.52869C75.3491 9.67896 75.8017 9.89071 76.1896 10.1639C76.5919 10.4235 76.9368 10.7309 77.2241 11.0861C77.5115 11.4276 77.7414 11.7896 77.9138 12.1721L75.7155 13.0533C75.4712 12.5342 75.1336 12.1311 74.7026 11.8443C74.2715 11.5574 73.7255 11.4139 73.0646 11.4139C72.6623 11.4139 72.2744 11.4959 71.9008 11.6598C71.5416 11.8101 71.2183 12.0287 70.931 12.3156C70.658 12.5888 70.4353 12.9235 70.2629 13.3197C70.1048 13.7158 70.0258 14.1598 70.0258 14.6516C70.0258 15.1434 70.1048 15.5874 70.2629 15.9836C70.4353 16.3798 70.658 16.7213 70.931 17.0082C71.2183 17.2814 71.5416 17.5 71.9008 17.6639C72.2744 17.8142 72.6623 17.8893 73.0646 17.8893C73.7255 17.8893 74.2859 17.7459 74.7457 17.459C75.2198 17.1585 75.5862 16.7486 75.8448 16.2295L78 17.1107Z" fill="black"/>
<defs>
<linearGradient id="paint0_linear_1_12034" x1="8.93915e-08" y1="7.38526" x2="25" y2="12.5" gradientUnits="userSpaceOnUse">
<stop stop-color="#FF00B3"/>
<stop offset="0.104167" stop-color="#FF00A5"/>
<stop offset="0.208333" stop-color="#FF0097"/>
<stop offset="0.317708" stop-color="#FF0088"/>
<stop offset="0.442708" stop-color="#FF007A"/>
<stop offset="0.5625" stop-color="#FF006C"/>
<stop offset="0.671875" stop-color="#FF005E"/>
<stop offset="0.776042" stop-color="#FF004F"/>
<stop offset="0.890625" stop-color="#FF0041"/>
<stop offset="1" stop-color="#FF0033"/>
</linearGradient>
</defs>
</svg>
