<svg width="6" height="13" viewBox="0 0 6 13" fill="none" xmlns="http://www.w3.org/2000/svg">
<path d="M6 6.97275C6 6.80002 5.9387 6.64113 5.82211 6.51678L0.963191 1.15582C0.852766 1.03837 0.717792 0.976196 0.558286 0.976196C0.2454 0.976196 0 1.24563 0 1.60487C0 1.77758 0.0613502 1.93647 0.15951 2.05391L4.62578 6.97275L0.15951 11.8915C0.0613502 12.009 0 12.161 0 12.3406C0 12.6998 0.2454 12.9693 0.558286 12.9693C0.717792 12.9693 0.852766 12.9071 0.963191 12.7827L5.82211 7.42868C5.9387 7.29746 6 7.14542 6 6.97275Z" fill="#636366"/>
</svg>
