<svg width="4" height="16" viewBox="0 0 4 16" fill="none" xmlns="http://www.w3.org/2000/svg">
<path d="M2.06684 12.4444C3.04868 12.4444 3.84462 13.2404 3.84462 14.2222C3.84462 15.2041 3.04868 16 2.06684 16C1.085 16 0.289063 15.2041 0.289063 14.2222C0.289063 13.2404 1.085 12.4444 2.06684 12.4444Z" fill="black"/>
<path d="M2.06684 6.22222C3.04868 6.22222 3.84462 7.01816 3.84462 8C3.84462 8.98184 3.04868 9.77778 2.06684 9.77778C1.085 9.77778 0.289063 8.98184 0.289063 8C0.289063 7.01816 1.085 6.22222 2.06684 6.22222Z" fill="black"/>
<path d="M2.06684 0C3.04868 0 3.84462 0.795938 3.84462 1.77778C3.84462 2.75962 3.04868 3.55556 2.06684 3.55556C1.085 3.55556 0.289063 2.75962 0.289063 1.77778C0.289063 0.795938 1.085 0 2.06684 0Z" fill="black"/>
</svg>
