<svg width="214" height="214" viewBox="0 0 214 214" fill="none" xmlns="http://www.w3.org/2000/svg">
<path d="M172.509 3.00019L176.46 3.00002C188.55 2.99948 194.595 2.99921 199.213 5.4659C203.275 7.63567 206.577 11.098 208.647 15.3566C211 20.198 211 26.5359 211 39.2116V41.4911" stroke="#F8D749" stroke-width="5"/>
<path d="M211 172.509L211 176.46C211.001 188.55 211.001 194.595 208.534 199.213C206.364 203.275 202.902 206.577 198.643 208.647C193.802 211 187.464 211 174.788 211H172.509" stroke="#F8D749" stroke-width="5"/>
<path d="M41.4912 211L37.5398 211C25.4498 211.001 19.4048 211.001 14.7871 208.534C10.7251 206.364 7.42268 202.902 5.35301 198.643C3.00011 193.802 3.00011 187.464 3.00011 174.788V172.509" stroke="#F8D749" stroke-width="5"/>
<path d="M3.00019 41.4912L3.00002 37.5398C2.99948 25.4498 2.99921 19.4048 5.4659 14.7871C7.63567 10.7251 11.098 7.42268 15.3566 5.35301C20.198 3.00011 26.5359 3.00011 39.2116 3.00011H41.4911" stroke="#F8D749" stroke-width="5"/>
</svg>
