<svg width="160" height="160" viewBox="0 0 160 160" fill="none" xmlns="http://www.w3.org/2000/svg">
<path d="M44.5425 6.07788V2.3479C44.5425 1.28668 45.4028 0.426393 46.464 0.426393H48.2725C49.3337 0.426393 50.194 1.28668 50.194 2.3479V6.07788H44.5425Z" fill="black"/>
<path d="M66.6426 6.07788L60.9911 6.07788V2.3479C60.9911 1.28668 61.8514 0.426393 62.9126 0.426393L66.6426 0.426393V6.07788Z" fill="black"/>
<path d="M72.121 0.426758H66.4695V6.07825H72.121V0.426758Z" fill="black"/>
<path d="M71.9504 6.07788V2.3479C71.9504 1.28668 72.8107 0.426393 73.8719 0.426393H75.6804C76.7416 0.426393 77.6019 1.28668 77.6019 2.3479V6.07788H71.9504Z" fill="black"/>
<path d="M88.3965 2.04308V4.46757C88.3965 5.36051 89.1199 6.07825 90.0128 6.07825H92.4373C93.3359 6.07825 94.0536 5.35486 94.0536 4.46192V2.04308C94.048 1.1445 93.3246 0.426758 92.4316 0.426758H90.0128C89.1199 0.426758 88.3965 1.15015 88.3965 2.04308Z" fill="black"/>
<path d="M97.8096 5.96541V6.07844H99.5333V4.35474H99.4202C99.4202 5.24767 98.6969 5.96541 97.8096 5.96541Z" fill="black"/>
<path d="M99.3594 6.07788V2.3479C99.3594 1.28668 100.22 0.426393 101.281 0.426393H103.089C104.151 0.426393 105.011 1.28668 105.011 2.3479V6.07788H99.3594Z" fill="black"/>
<path d="M110.327 2.04308V4.46757C110.327 5.36051 111.051 6.07825 111.944 6.07825H114.368C115.267 6.07825 115.985 5.35486 115.985 4.46192V2.04308C115.979 1.1445 115.255 0.426758 114.363 0.426758H111.944C111.051 0.426758 110.327 1.15015 110.327 2.04308Z" fill="black"/>
<path d="M50.1937 5.90869H44.5422V11.5602H50.1937V5.90869Z" fill="black"/>
<path d="M50.0234 11.5601V7.83008C50.0234 6.76886 50.8837 5.90857 51.9449 5.90857H53.7534C54.8146 5.90857 55.6749 6.76886 55.6749 7.83008V11.5601H50.0234Z" fill="black"/>
<path d="M59.4329 11.4471V11.5601H61.1566V9.83643H61.0435C61.0435 10.7294 60.3201 11.4471 59.4329 11.4471Z" fill="black"/>
<path d="M66.6427 5.90894H60.9912V11.5604H66.6427V5.90894Z" fill="black"/>
<path d="M75.8789 11.4471V11.5601H77.6026V9.83643H77.4896C77.4896 10.7294 76.7662 11.4471 75.8789 11.4471Z" fill="black"/>
<path d="M77.4333 11.5601V7.83008C77.4333 6.76886 78.2936 5.90857 79.3549 5.90857H81.1633C82.2246 5.90857 83.0848 6.76886 83.0848 7.83008V11.5601H77.4333Z" fill="black"/>
<path d="M99.5325 11.5601H95.8025C94.7413 11.5601 93.881 10.6998 93.881 9.63855V7.83008C93.881 6.76886 94.7413 5.90857 95.8025 5.90857L99.5325 5.90857V11.5601Z" fill="black"/>
<path d="M105.011 5.90894H99.3594V11.5604H105.011V5.90894Z" fill="black"/>
<path d="M104.844 11.5601V5.90857H108.574C109.635 5.90857 110.496 6.76886 110.496 7.83008V11.5601H104.844Z" fill="black"/>
<path d="M50.1936 11.3909V15.1209C50.1936 16.1821 49.3333 17.0424 48.2721 17.0424H46.4636C45.4024 17.0424 44.5421 16.1821 44.5421 15.1209V11.3909H50.1936Z" fill="black"/>
<path d="M53.9519 16.929V17.0421H55.6756V15.3184H55.5626C55.5626 16.2113 54.8392 16.929 53.9519 16.929Z" fill="black"/>
<path d="M61.1558 17.0422H55.5043V13.3123C55.5043 12.251 56.3646 11.3907 57.4258 11.3907H61.1558V17.0422Z" fill="black"/>
<path d="M66.6427 11.3909H60.9912V17.0424H66.6427V11.3909Z" fill="black"/>
<path d="M70.394 16.929V17.0421H72.1177V15.3184H72.0047C72.0047 16.2113 71.2813 16.929 70.394 16.929Z" fill="black"/>
<path d="M77.6018 17.0422H71.9503V13.3123C71.9503 12.251 72.8106 11.3907 73.8718 11.3907H77.6018V17.0422Z" fill="black"/>
<path d="M83.0848 11.3909H77.4333V17.0424H83.0848V11.3909Z" fill="black"/>
<path d="M88.5668 11.3909H82.9153V17.0424H88.5668V11.3909Z" fill="black"/>
<path d="M88.3965 17.0422V13.3123C88.3965 12.251 89.2568 11.3907 90.318 11.3907H92.1265C93.1877 11.3907 94.048 12.251 94.048 13.3123V17.0422H88.3965Z" fill="black"/>
<path d="M110.496 11.3909H104.844V17.0424H110.496V11.3909Z" fill="black"/>
<path d="M110.327 17.0422V13.3123C110.327 12.251 111.188 11.3907 112.249 11.3907H114.057C115.119 11.3907 115.979 12.251 115.979 13.3123V17.0422H110.327Z" fill="black"/>
<path d="M55.6746 22.5242H51.9446C50.8834 22.5242 50.0231 21.6639 50.0231 20.6027V18.7942C50.0231 17.733 50.8834 16.8727 51.9446 16.8727H55.6746V22.5242Z" fill="black"/>
<path d="M61.1559 16.8726H55.5044V22.524H61.1559V16.8726Z" fill="black"/>
<path d="M66.6427 16.8726H60.9912V22.524H66.6427V16.8726Z" fill="black"/>
<path d="M72.121 16.8726H66.4695V22.524H72.121V16.8726Z" fill="black"/>
<path d="M77.6019 16.8728H71.9504V22.5243H77.6019V16.8728Z" fill="black"/>
<path d="M83.0848 16.8726H77.4333V22.524H83.0848V16.8726Z" fill="black"/>
<path d="M82.9153 16.8726H88.5668V20.6025C88.5668 21.6638 87.7065 22.524 86.6453 22.524H82.9153V16.8726Z" fill="black"/>
<path d="M93.8813 18.4889V20.9134C93.8813 21.8063 94.6047 22.524 95.4977 22.524H97.9222C98.8207 22.524 99.5385 21.8007 99.5385 20.9077V18.4889C99.5328 17.5903 98.8094 16.8726 97.9165 16.8726H95.4977C94.6047 16.8726 93.8813 17.5959 93.8813 18.4889Z" fill="black"/>
<path d="M103.289 22.411V22.524H105.013V20.8003H104.899C104.899 21.6932 104.176 22.411 103.289 22.411Z" fill="black"/>
<path d="M110.496 16.8726H104.844V22.524H110.496V16.8726Z" fill="black"/>
<path d="M66.6426 22.3545V28.006H62.9126C61.8514 28.006 60.9911 27.1457 60.9911 26.0845V22.3545H66.6426Z" fill="black"/>
<path d="M72.121 22.3545H66.4695V28.006H72.121V22.3545Z" fill="black"/>
<path d="M83.0848 22.3545H77.4333V28.006H83.0848V22.3545Z" fill="black"/>
<path d="M86.843 27.8929V28.0059H88.5667V26.2822H88.4537C88.4537 27.1752 87.7303 27.8929 86.843 27.8929Z" fill="black"/>
<path d="M88.3965 28.0056V24.2756C88.3965 23.2144 89.2568 22.3541 90.318 22.3541H92.1265C93.1877 22.3541 94.048 23.2144 94.048 24.2756V28.0056H88.3965Z" fill="black"/>
<path d="M105.011 28.0056H99.3593V24.2756C99.3593 23.2144 100.22 22.3541 101.281 22.3541H105.011V28.0056Z" fill="black"/>
<path d="M110.496 22.3545H104.844V28.006H110.496V22.3545Z" fill="black"/>
<path d="M110.327 28.0056V24.2756C110.327 23.2144 111.188 22.3541 112.249 22.3541H114.057C115.119 22.3541 115.979 23.2144 115.979 24.2756V28.0056H110.327Z" fill="black"/>
<path d="M50.1936 33.4885H44.5421V29.7585C44.5421 28.6973 45.4024 27.837 46.4636 27.837H50.1936V33.4885Z" fill="black"/>
<path d="M55.6749 27.8372H50.0234V33.4886H55.6749V27.8372Z" fill="black"/>
<path d="M55.5044 33.4883V27.8368H59.2344C60.2956 27.8368 61.1559 28.6971 61.1559 29.7583V33.4883H55.5044Z" fill="black"/>
<path d="M72.121 27.8372H66.4695V33.4886H72.121V27.8372Z" fill="black"/>
<path d="M77.6019 27.8372H71.9504V33.4886H77.6019V27.8372Z" fill="black"/>
<path d="M83.0848 27.8372H77.4333V33.4886H83.0848V27.8372Z" fill="black"/>
<path d="M88.5668 27.8372H82.9153V33.4886H88.5668V27.8372Z" fill="black"/>
<path d="M94.048 27.8372H88.3965V33.4886H94.048V27.8372Z" fill="black"/>
<path d="M105.011 27.8372H99.3594V33.4886H105.011V27.8372Z" fill="black"/>
<path d="M50.1937 33.3186H44.5422V38.9701H50.1937V33.3186Z" fill="black"/>
<path d="M61.1559 33.3186H55.5044V38.9701H61.1559V33.3186Z" fill="black"/>
<path d="M72.1206 33.3186V37.0486C72.1206 38.1098 71.2603 38.9701 70.1991 38.9701H68.3906C67.3294 38.9701 66.4691 38.1098 66.4691 37.0486V33.3186H72.1206Z" fill="black"/>
<path d="M83.0848 33.3186H77.4333V38.9701H83.0848V33.3186Z" fill="black"/>
<path d="M94.0476 33.3186V37.0486C94.0476 38.1098 93.1873 38.9701 92.1261 38.9701H90.3176C89.2564 38.9701 88.3961 38.1098 88.3961 37.0486V33.3186H94.0476Z" fill="black"/>
<path d="M105.011 33.3186V37.0486C105.011 38.1098 104.15 38.9701 103.089 38.9701H101.281C100.22 38.9701 99.3593 38.1098 99.3593 37.0486V33.3186H105.011Z" fill="black"/>
<path d="M110.327 38.97V35.24C110.327 34.1788 111.188 33.3185 112.249 33.3185H114.057C115.119 33.3185 115.979 34.1788 115.979 35.24V38.97H110.327Z" fill="black"/>
<path d="M50.1937 38.8005H44.5422V44.452H50.1937V38.8005Z" fill="black"/>
<path d="M55.6749 38.8005H50.0234V44.452H55.6749V38.8005Z" fill="black"/>
<path d="M55.5044 38.8003H61.1559V42.5303C61.1559 43.5915 60.2956 44.4518 59.2344 44.4518H55.5044V38.8003Z" fill="black"/>
<path d="M77.6018 44.4519H73.8718C72.8106 44.4519 71.9503 43.5916 71.9503 42.5304V40.7219C71.9503 39.6607 72.8106 38.8004 73.8718 38.8004H77.6018V44.4519Z" fill="black"/>
<path d="M83.0848 38.8003H77.4333V44.4518H83.0848V38.8003Z" fill="black"/>
<path d="M82.9153 44.4517V40.7217C82.9153 39.6605 83.7756 38.8002 84.8368 38.8002H86.6453C87.7065 38.8002 88.5668 39.6605 88.5668 40.7217V44.4517H82.9153Z" fill="black"/>
<path d="M115.979 38.8005V42.5305C115.979 43.5917 115.118 44.452 114.057 44.452H112.249C111.188 44.452 110.327 43.5917 110.327 42.5305V38.8005H115.979Z" fill="black"/>
<path d="M10.0986 49.8204V49.9334H11.8223V48.2097H11.7093C11.7093 49.1027 10.9859 49.8204 10.0986 49.8204Z" fill="black"/>
<path d="M17.2998 49.9343H11.6483V46.2043C11.6483 45.1431 12.5086 44.2828 13.5698 44.2828H17.2998V49.9343Z" fill="black"/>
<path d="M22.7848 44.2832H17.1333V49.9347H22.7848V44.2832Z" fill="black"/>
<path d="M22.6145 49.9343V44.2828H26.3445C27.4057 44.2828 28.266 45.1431 28.266 46.2043V49.9343H22.6145Z" fill="black"/>
<path d="M33.5754 45.8995V48.324C33.5754 49.217 34.2988 49.9347 35.1918 49.9347H37.6163C38.5148 49.9347 39.2326 49.2113 39.2326 48.3184V45.8995C39.2269 45.0009 38.5035 44.2832 37.6106 44.2832H35.1918C34.2988 44.2832 33.5754 45.0066 33.5754 45.8995Z" fill="black"/>
<path d="M50.1936 44.283V49.9344H46.4636C45.4024 49.9344 44.5421 49.0742 44.5421 48.0129V44.283H50.1936Z" fill="black"/>
<path d="M50.0234 44.2832H55.6749V48.0132C55.6749 49.0744 54.8146 49.9347 53.7534 49.9347H50.0234V44.2832Z" fill="black"/>
<path d="M60.9912 45.8995V48.324C60.9912 49.217 61.7146 49.9347 62.6075 49.9347H65.032C65.9306 49.9347 66.6484 49.2113 66.6484 48.3184V45.8995C66.6427 45.0009 65.9193 44.2832 65.0264 44.2832H62.6075C61.7146 44.2832 60.9912 45.0066 60.9912 45.8995Z" fill="black"/>
<path d="M83.0847 44.2832V48.0132C83.0847 49.0744 82.2244 49.9347 81.1632 49.9347H79.3547C78.2935 49.9347 77.4332 49.0744 77.4332 48.0132V44.2832H83.0847Z" fill="black"/>
<path d="M105.011 49.9343H101.281C100.22 49.9343 99.3593 49.074 99.3593 48.0128V46.2043C99.3593 45.1431 100.22 44.2828 101.281 44.2828H105.011V49.9343Z" fill="black"/>
<path d="M104.844 49.9343V46.2043C104.844 45.1431 105.705 44.2828 106.766 44.2828H108.574C109.635 44.2828 110.496 45.1431 110.496 46.2043V49.9343H104.844Z" fill="black"/>
<path d="M121.459 49.9343H117.729C116.668 49.9343 115.807 49.074 115.807 48.0128V46.2043C115.807 45.1431 116.668 44.2828 117.729 44.2828H121.459V49.9343Z" fill="black"/>
<path d="M126.938 44.2832H121.287V49.9347H126.938V44.2832Z" fill="black"/>
<path d="M126.771 49.9343V44.2828H130.501C131.563 44.2828 132.423 45.1431 132.423 46.2043V49.9343H126.771Z" fill="black"/>
<path d="M148.869 49.9343H145.139C144.077 49.9343 143.217 49.074 143.217 48.0128V46.2043C143.217 45.1431 144.077 44.2828 145.139 44.2828H148.869V49.9343Z" fill="black"/>
<path d="M154.349 44.2832H148.698V49.9347H154.349V44.2832Z" fill="black"/>
<path d="M154.18 49.9343V44.2828H157.91C158.972 44.2828 159.832 45.1431 159.832 46.2043V49.9343H154.18Z" fill="black"/>
<path d="M4.61377 55.3031V55.4161H6.33747V53.6924H6.22444C6.22444 54.5853 5.50105 55.3031 4.61377 55.3031Z" fill="black"/>
<path d="M11.8176 55.4158H6.16614L6.16614 51.6858C6.16614 50.6246 7.02643 49.7643 8.08764 49.7643H11.8176V55.4158Z" fill="black"/>
<path d="M17.2999 49.7649H11.6484V55.4164H17.2999V49.7649Z" fill="black"/>
<path d="M22.7848 49.7646H17.1333V55.4161H22.7848V49.7646Z" fill="black"/>
<path d="M22.6145 49.7649H28.266V53.4949C28.266 54.5561 27.4057 55.4164 26.3445 55.4164H22.6145V49.7649Z" fill="black"/>
<path d="M82.9153 51.3812V53.8057C82.9153 54.6986 83.6387 55.4164 84.5316 55.4164H86.9561C87.8547 55.4164 88.5724 54.693 88.5724 53.8001V51.3812C88.5668 50.4826 87.8434 49.7649 86.9504 49.7649H84.5316C83.6387 49.7649 82.9153 50.4883 82.9153 51.3812Z" fill="black"/>
<path d="M132.423 49.7649H126.771V55.4164H132.423V49.7649Z" fill="black"/>
<path d="M132.253 55.416V49.7645H135.983C137.044 49.7645 137.905 50.6248 137.905 51.686V55.416H132.253Z" fill="black"/>
<path d="M159.832 49.7649V53.4949C159.832 54.5561 158.971 55.4164 157.91 55.4164H156.102C155.04 55.4164 154.18 54.5561 154.18 53.4949V49.7649H159.832Z" fill="black"/>
<path d="M6.33667 60.8979H0.685182L0.685182 57.168C0.685182 56.1067 1.54547 55.2465 2.60669 55.2465H6.33667L6.33667 60.8979Z" fill="black"/>
<path d="M11.818 55.2463H6.1665V60.8978H11.818V55.2463Z" fill="black"/>
<path d="M17.2999 55.2463H11.6484V60.8978H17.2999V55.2463Z" fill="black"/>
<path d="M22.7848 55.2466H17.1333V60.8981H22.7848V55.2466Z" fill="black"/>
<path d="M33.7476 60.8977H28.0961V57.1677C28.0961 56.1065 28.9564 55.2462 30.0176 55.2462H33.7476V60.8977Z" fill="black"/>
<path d="M39.2269 55.2466H33.5754V60.8981H39.2269V55.2466Z" fill="black"/>
<path d="M44.7118 55.2463H39.0603V60.8978H44.7118V55.2463Z" fill="black"/>
<path d="M50.1937 55.2463H44.5422V60.8978H50.1937V55.2463Z" fill="black"/>
<path d="M55.6749 55.2466H50.0234V60.8981H55.6749V55.2466Z" fill="black"/>
<path d="M61.1559 55.2463H55.5044V60.8978H61.1559V55.2463Z" fill="black"/>
<path d="M66.6427 55.2463H60.9912V60.8978H66.6427V55.2463Z" fill="black"/>
<path d="M66.4695 60.8979V57.168C66.4695 56.1067 67.3298 55.2465 68.391 55.2465H70.1995C71.2607 55.2465 72.121 56.1067 72.121 57.168V60.8979H66.4695Z" fill="black"/>
<path d="M94.0476 60.8977H88.3961V57.1677C88.3961 56.1065 89.2564 55.2462 90.3176 55.2462H94.0476V60.8977Z" fill="black"/>
<path d="M93.8813 60.8977V55.2462H97.6113C98.6725 55.2462 99.5328 56.1065 99.5328 57.1677V60.8977H93.8813Z" fill="black"/>
<path d="M115.979 60.8977H112.249C111.188 60.8977 110.327 60.0374 110.327 58.9762V57.1677C110.327 56.1065 111.188 55.2462 112.249 55.2462H115.979V60.8977Z" fill="black"/>
<path d="M121.459 55.2463H115.807V60.8978H121.459V55.2463Z" fill="black"/>
<path d="M126.938 55.2463H121.287V60.8978H126.938V55.2463Z" fill="black"/>
<path d="M132.423 55.2463H126.771V60.8978H132.423V55.2463Z" fill="black"/>
<path d="M132.253 55.2463H137.905V58.9763C137.905 60.0375 137.044 60.8978 135.983 60.8978H132.253V55.2463Z" fill="black"/>
<path d="M143.217 56.8627V59.2872C143.217 60.1801 143.941 60.8978 144.834 60.8978H147.258C148.157 60.8978 148.874 60.1744 148.874 59.2815V56.8627C148.869 55.9641 148.145 55.2463 147.252 55.2463H144.834C143.941 55.2463 143.217 55.9697 143.217 56.8627Z" fill="black"/>
<path d="M6.33704 60.7278H0.685547V66.3793H6.33704V60.7278Z" fill="black"/>
<path d="M22.7848 60.7278H17.1333V66.3793H22.7848V60.7278Z" fill="black"/>
<path d="M33.7476 60.7278V64.4578C33.7476 65.519 32.8873 66.3793 31.8261 66.3793H30.0176C28.9564 66.3793 28.0961 65.519 28.0961 64.4578V60.7278H33.7476Z" fill="black"/>
<path d="M55.6746 60.7278V64.4578C55.6746 65.519 54.8143 66.3793 53.7531 66.3793H51.9446C50.8834 66.3793 50.0231 65.519 50.0231 64.4578V60.7278H55.6746Z" fill="black"/>
<path d="M66.6427 60.7278H60.9912V66.3793H66.6427V60.7278Z" fill="black"/>
<path d="M94.048 60.7278H88.3965V66.3793H94.048V60.7278Z" fill="black"/>
<path d="M93.8813 60.7278H99.5328V64.4578C99.5328 65.519 98.6725 66.3793 97.6113 66.3793H93.8813V60.7278Z" fill="black"/>
<path d="M121.459 60.7278H115.807V66.3793H121.459V60.7278Z" fill="black"/>
<path d="M121.287 60.7278H126.938V64.4578C126.938 65.519 126.078 66.3793 125.017 66.3793H121.287V60.7278Z" fill="black"/>
<path d="M137.734 66.3789V62.6489C137.734 61.5877 138.595 60.7274 139.656 60.7274H141.464C142.526 60.7274 143.386 61.5877 143.386 62.6489V66.3789H137.734Z" fill="black"/>
<path d="M147.146 66.2667V66.3797H148.869V64.656H148.756C148.756 65.5489 148.033 66.2667 147.146 66.2667Z" fill="black"/>
<path d="M148.698 66.3789V62.6489C148.698 61.5877 149.558 60.7274 150.619 60.7274H152.427C153.489 60.7274 154.349 61.5877 154.349 62.6489V66.3789H148.698Z" fill="black"/>
<path d="M6.33667 66.2097V71.8612H2.60669C1.54547 71.8612 0.685182 71.0009 0.685182 69.9397V66.2097H6.33667Z" fill="black"/>
<path d="M6.1665 71.8611V66.2096H9.89649C10.9577 66.2096 11.818 67.0699 11.818 68.1311V71.8611H6.1665Z" fill="black"/>
<path d="M22.7848 66.2097H17.1333V71.8612H22.7848V66.2097Z" fill="black"/>
<path d="M22.6145 71.8611V68.1311C22.6145 67.0699 23.4748 66.2096 24.536 66.2096H26.3445C27.4057 66.2096 28.266 67.0699 28.266 68.1311V71.8611H22.6145Z" fill="black"/>
<path d="M39.2268 71.8613H35.4968C34.4356 71.8613 33.5753 71.001 33.5753 69.9398V68.1313C33.5753 67.0701 34.4356 66.2098 35.4968 66.2098H39.2268V71.8613Z" fill="black"/>
<path d="M39.0603 71.8611V68.1311C39.0603 67.0699 39.9206 66.2096 40.9818 66.2096H42.7903C43.8515 66.2096 44.7118 67.0699 44.7118 68.1311V71.8611H39.0603Z" fill="black"/>
<path d="M61.1558 71.8611H57.4258C56.3646 71.8611 55.5043 71.0008 55.5043 69.9396V68.1311C55.5043 67.0699 56.3646 66.2096 57.4258 66.2096H61.1558V71.8611Z" fill="black"/>
<path d="M66.6427 66.21H60.9912V71.8614H66.6427V66.21Z" fill="black"/>
<path d="M72.121 66.2097H66.4695V71.8612H72.121V66.2097Z" fill="black"/>
<path d="M71.9504 71.8611V68.1311C71.9504 67.0699 72.8107 66.2096 73.8719 66.2096H75.6804C76.7416 66.2096 77.6019 67.0699 77.6019 68.1311V71.8611H71.9504Z" fill="black"/>
<path d="M94.0476 66.21V69.9399C94.0476 71.0012 93.1873 71.8614 92.1261 71.8614H90.3176C89.2564 71.8614 88.3961 71.0012 88.3961 69.9399V66.21H94.0476Z" fill="black"/>
<path d="M97.8096 71.7481V71.8612H99.5333V70.1375H99.4202C99.4202 71.0304 98.6969 71.7481 97.8096 71.7481Z" fill="black"/>
<path d="M99.3594 71.8611V68.1311C99.3594 67.0699 100.22 66.2096 101.281 66.2096H103.089C104.151 66.2096 105.011 67.0699 105.011 68.1311V71.8611H99.3594Z" fill="black"/>
<path d="M114.252 71.7481V71.8612H115.975V70.1375H115.862C115.862 71.0304 115.139 71.7481 114.252 71.7481Z" fill="black"/>
<path d="M121.459 66.21H115.807V71.8614H121.459V66.21Z" fill="black"/>
<path d="M126.771 67.8263V70.2508C126.771 71.1437 127.495 71.8614 128.388 71.8614H130.812C131.711 71.8614 132.429 71.1381 132.429 70.2451V67.8263C132.423 66.9277 131.7 66.21 130.807 66.21H128.388C127.495 66.21 126.771 66.9334 126.771 67.8263Z" fill="black"/>
<path d="M136.181 71.7481V71.8612H137.904V70.1375H137.791C137.791 71.0304 137.068 71.7481 136.181 71.7481Z" fill="black"/>
<path d="M143.386 66.21H137.734V71.8614H143.386V66.21Z" fill="black"/>
<path d="M148.869 66.21H143.217V71.8614H148.869V66.21Z" fill="black"/>
<path d="M154.349 66.21H148.698V71.8614H154.349V66.21Z" fill="black"/>
<path d="M154.18 71.8611V66.2096H157.91C158.972 66.2096 159.832 67.0699 159.832 68.1311V71.8611H154.18Z" fill="black"/>
<path d="M11.8176 71.6921V75.4221C11.8176 76.4833 10.9573 77.3436 9.89612 77.3436H8.08764C7.02643 77.3436 6.16614 76.4833 6.16614 75.4221V71.6921H11.8176Z" fill="black"/>
<path d="M22.7847 71.6921V75.4221C22.7847 76.4833 21.9244 77.3436 20.8632 77.3436H19.0547C17.9935 77.3436 17.1332 76.4833 17.1332 75.4221V71.6921H22.7847Z" fill="black"/>
<path d="M72.1206 71.6921V75.4221C72.1206 76.4833 71.2603 77.3436 70.1991 77.3436H68.3906C67.3294 77.3436 66.4691 76.4833 66.4691 75.4221V71.6921H72.1206Z" fill="black"/>
<path d="M83.0847 77.3428H79.3547C78.2935 77.3428 77.4332 76.4825 77.4332 75.4213V73.6128C77.4332 72.5516 78.2935 71.6913 79.3547 71.6913H83.0847V77.3428Z" fill="black"/>
<path d="M82.9153 77.3428V73.6128C82.9153 72.5516 83.7756 71.6913 84.8368 71.6913H86.6453C87.7065 71.6913 88.5668 72.5516 88.5668 73.6128V77.3428H82.9153Z" fill="black"/>
<path d="M99.5325 77.3428H93.881V73.6128C93.881 72.5516 94.7413 71.6913 95.8025 71.6913H99.5325V77.3428Z" fill="black"/>
<path d="M105.011 71.6921H99.3594V77.3436H105.011V71.6921Z" fill="black"/>
<path d="M110.496 71.6921H104.844V77.3436H110.496V71.6921Z" fill="black"/>
<path d="M115.979 71.6919H110.327V77.3434H115.979V71.6919Z" fill="black"/>
<path d="M121.459 71.6921H115.807V77.3436H121.459V71.6921Z" fill="black"/>
<path d="M121.287 77.3428V71.6913H125.017C126.078 71.6913 126.938 72.5516 126.938 73.6128V77.3428H121.287Z" fill="black"/>
<path d="M137.905 77.3428H134.175C133.113 77.3428 132.253 76.4825 132.253 75.4213V73.6128C132.253 72.5516 133.113 71.6913 134.175 71.6913H137.905V77.3428Z" fill="black"/>
<path d="M137.734 71.6921H143.386V75.4221C143.386 76.4833 142.526 77.3436 141.464 77.3436H137.734V71.6921Z" fill="black"/>
<path d="M159.832 71.6921V75.4221C159.832 76.4833 158.971 77.3436 157.91 77.3436H156.102C155.04 77.3436 154.18 76.4833 154.18 75.4221V71.6921H159.832Z" fill="black"/>
<path d="M26.5408 82.7127V82.8258H28.2645V81.1021H28.1514C28.1514 81.995 27.4281 82.7127 26.5408 82.7127Z" fill="black"/>
<path d="M33.7476 82.8245H28.0961V79.0945C28.0961 78.0333 28.9564 77.173 30.0176 77.173H33.7476V82.8245Z" fill="black"/>
<path d="M39.2269 77.1731H33.5754V82.8246H39.2269V77.1731Z" fill="black"/>
<path d="M44.7118 77.1731H39.0603V82.8246H44.7118V77.1731Z" fill="black"/>
<path d="M44.5425 82.8245V79.0945C44.5425 78.0333 45.4028 77.173 46.464 77.173H48.2725C49.3337 77.173 50.194 78.0333 50.194 79.0945V82.8245H44.5425Z" fill="black"/>
<path d="M60.9912 78.7894V81.2139C60.9912 82.1068 61.7146 82.8246 62.6075 82.8246H65.032C65.9306 82.8246 66.6484 82.1012 66.6484 81.2083V78.7894C66.6427 77.8908 65.9193 77.1731 65.0264 77.1731H62.6075C61.7146 77.1731 60.9912 77.8965 60.9912 78.7894Z" fill="black"/>
<path d="M70.394 82.7127V82.8258H72.1177V81.1021H72.0047C72.0047 81.995 71.2813 82.7127 70.394 82.7127Z" fill="black"/>
<path d="M71.9504 82.8245V79.0945C71.9504 78.0333 72.8107 77.173 73.8719 77.173H75.6804C76.7416 77.173 77.6019 78.0333 77.6019 79.0945V82.8245H71.9504Z" fill="black"/>
<path d="M92.323 82.7127V82.8258H94.0467V81.1021H93.9337C93.9337 81.995 93.2103 82.7127 92.323 82.7127Z" fill="black"/>
<path d="M99.5328 77.1731H93.8813V82.8246H99.5328V77.1731Z" fill="black"/>
<path d="M105.011 77.1731H99.3594V82.8246H105.011V77.1731Z" fill="black"/>
<path d="M115.979 77.1731V82.8246H112.249C111.188 82.8246 110.327 81.9643 110.327 80.9031V77.1731H115.979Z" fill="black"/>
<path d="M121.459 77.1731H115.807V82.8246H121.459V77.1731Z" fill="black"/>
<path d="M126.938 77.1731H121.287V82.8246H126.938V77.1731Z" fill="black"/>
<path d="M126.771 82.8245V79.0945C126.771 78.0333 127.632 77.173 128.693 77.173H130.501C131.563 77.173 132.423 78.0333 132.423 79.0945V82.8245H126.771Z" fill="black"/>
<path d="M0.685547 84.2721V86.6966C0.685547 87.5895 1.40894 88.3073 2.30187 88.3073H4.72636C5.62495 88.3073 6.34269 87.5839 6.34269 86.6909V84.2721C6.33704 83.3735 5.61365 82.6558 4.72071 82.6558H2.30187C1.40894 82.6558 0.685547 83.3792 0.685547 84.2721Z" fill="black"/>
<path d="M22.7847 88.3071H17.1332V84.5771C17.1332 83.5159 17.9935 82.6556 19.0547 82.6556H22.7847V88.3071Z" fill="black"/>
<path d="M28.266 82.6558H22.6145V88.3073H28.266V82.6558Z" fill="black"/>
<path d="M33.7479 82.6558H28.0964V88.3073H33.7479V82.6558Z" fill="black"/>
<path d="M44.7118 82.6558H39.0603V88.3073H44.7118V82.6558Z" fill="black"/>
<path d="M55.5044 84.2721V86.6966C55.5044 87.5895 56.2278 88.3073 57.1207 88.3073H59.5452C60.4438 88.3073 61.1615 87.5839 61.1615 86.6909V84.2721C61.1559 83.3735 60.4325 82.6558 59.5396 82.6558H57.1207C56.2278 82.6558 55.5044 83.3792 55.5044 84.2721Z" fill="black"/>
<path d="M72.1206 88.3071H68.3906C67.3294 88.3071 66.4691 87.4468 66.4691 86.3856V84.5771C66.4691 83.5159 67.3294 82.6556 68.3906 82.6556H72.1206V88.3071Z" fill="black"/>
<path d="M77.6019 82.656H71.9504V88.3075H77.6019V82.656Z" fill="black"/>
<path d="M81.3618 88.1942V88.3072H83.0855V86.5835H82.9725C82.9725 87.4764 82.2491 88.1942 81.3618 88.1942Z" fill="black"/>
<path d="M88.5667 88.3071H82.9152V84.5771C82.9152 83.5159 83.7754 82.6556 84.8367 82.6556H88.5667V88.3071Z" fill="black"/>
<path d="M94.048 82.6558H88.3965V88.3073H94.048V82.6558Z" fill="black"/>
<path d="M99.5328 82.6558H93.8813V88.3073H99.5328V82.6558Z" fill="black"/>
<path d="M105.011 82.6558H99.3594V88.3073H105.011V82.6558Z" fill="black"/>
<path d="M104.844 88.3071V84.5771C104.844 83.5159 105.705 82.6556 106.766 82.6556H108.574C109.635 82.6556 110.496 83.5159 110.496 84.5771V88.3071H104.844Z" fill="black"/>
<path d="M121.459 82.6558V86.3857C121.459 87.447 120.598 88.3073 119.537 88.3073H117.729C116.668 88.3073 115.807 87.447 115.807 86.3857V82.6558H121.459Z" fill="black"/>
<path d="M137.905 88.3074H134.175C133.113 88.3074 132.253 87.4471 132.253 86.3859V84.5774C132.253 83.5162 133.113 82.6559 134.175 82.6559H137.905V88.3074Z" fill="black"/>
<path d="M137.734 88.3071V82.6556H141.464C142.526 82.6556 143.386 83.5159 143.386 84.5771V88.3071H137.734Z" fill="black"/>
<path d="M154.349 88.3071H150.619C149.557 88.3071 148.697 87.4468 148.697 86.3856V84.5771C148.697 83.5159 149.557 82.6556 150.619 82.6556H154.349V88.3071Z" fill="black"/>
<path d="M154.18 88.3071V82.6556H157.91C158.972 82.6556 159.832 83.5159 159.832 84.5771V88.3071H154.18Z" fill="black"/>
<path d="M4.61377 93.6768V93.7899H6.33747V92.0662H6.22444C6.22444 92.9591 5.50105 93.6768 4.61377 93.6768Z" fill="black"/>
<path d="M6.1665 93.7888V90.0588C6.1665 88.9976 7.02679 88.1373 8.08801 88.1373H9.89649C10.9577 88.1373 11.818 88.9976 11.818 90.0588V93.7888H6.1665Z" fill="black"/>
<path d="M22.7847 88.1377V93.7892H19.0547C17.9935 93.7892 17.1332 92.9289 17.1332 91.8677V88.1377H22.7847Z" fill="black"/>
<path d="M28.266 88.1377H22.6145V93.7892H28.266V88.1377Z" fill="black"/>
<path d="M33.7479 88.1377H28.0964V93.7892H33.7479V88.1377Z" fill="black"/>
<path d="M39.2269 88.1377H33.5754V93.7892H39.2269V88.1377Z" fill="black"/>
<path d="M44.7118 88.1377H39.0603V93.7892H44.7118V88.1377Z" fill="black"/>
<path d="M60.9912 93.7888V90.0588C60.9912 88.9976 61.8515 88.1373 62.9127 88.1373H64.7212C65.7824 88.1373 66.6427 88.9976 66.6427 90.0588V93.7888H60.9912Z" fill="black"/>
<path d="M77.6018 88.1375V93.7889H73.8718C72.8106 93.7889 71.9503 92.9287 71.9503 91.8674V88.1375H77.6018Z" fill="black"/>
<path d="M83.0848 88.1377H77.4333V93.7892H83.0848V88.1377Z" fill="black"/>
<path d="M88.5668 88.1377H82.9153V93.7892H88.5668V88.1377Z" fill="black"/>
<path d="M88.3965 88.1377H94.048V91.8677C94.048 92.9289 93.1877 93.7892 92.1265 93.7892H88.3965V88.1377Z" fill="black"/>
<path d="M108.769 93.6768V93.7899H110.493V92.0662H110.379C110.379 92.9591 109.656 93.6768 108.769 93.6768Z" fill="black"/>
<path d="M110.327 93.7888V90.0588C110.327 88.9976 111.188 88.1373 112.249 88.1373H114.057C115.119 88.1373 115.979 88.9976 115.979 90.0588V93.7888H110.327Z" fill="black"/>
<path d="M126.771 89.754V92.1785C126.771 93.0714 127.495 93.7892 128.388 93.7892H130.812C131.711 93.7892 132.429 93.0658 132.429 92.1729V89.754C132.423 88.8554 131.7 88.1377 130.807 88.1377H128.388C127.495 88.1377 126.771 88.8611 126.771 89.754Z" fill="black"/>
<path d="M143.386 88.1377H137.734V93.7892H143.386V88.1377Z" fill="black"/>
<path d="M143.217 93.7888V90.0588C143.217 88.9976 144.078 88.1373 145.139 88.1373H146.947C148.008 88.1373 148.869 88.9976 148.869 90.0588V93.7888H143.217Z" fill="black"/>
<path d="M159.832 88.1377H154.18V93.7892H159.832V88.1377Z" fill="black"/>
<path d="M6.33667 99.2705H0.685182L0.685182 95.5405C0.685182 94.4793 1.54547 93.619 2.60669 93.619H6.33667L6.33667 99.2705Z" fill="black"/>
<path d="M11.818 93.6191H6.1665V99.2706H11.818V93.6191Z" fill="black"/>
<path d="M11.6484 99.2705V93.619H15.3784C16.4396 93.619 17.2999 94.4793 17.2999 95.5405V99.2705H11.6484Z" fill="black"/>
<path d="M44.7118 93.6191H39.0603V99.2706H44.7118V93.6191Z" fill="black"/>
<path d="M44.5425 99.2705V93.619H48.2725C49.3337 93.619 50.194 94.4793 50.194 95.5405V99.2705H44.5425Z" fill="black"/>
<path d="M59.4329 99.1588V99.2718H61.1566V97.5481H61.0435C61.0435 98.441 60.3201 99.1588 59.4329 99.1588Z" fill="black"/>
<path d="M66.6427 93.6191H60.9912V99.2706H66.6427V93.6191Z" fill="black"/>
<path d="M66.4695 99.2705V95.5405C66.4695 94.4793 67.3298 93.619 68.391 93.619H70.1995C71.2607 93.619 72.121 94.4793 72.121 95.5405V99.2705H66.4695Z" fill="black"/>
<path d="M83.0847 93.6191V97.3491C83.0847 98.4103 82.2244 99.2706 81.1632 99.2706H79.3547C78.2935 99.2706 77.4332 98.4103 77.4332 97.3491V93.6191H83.0847Z" fill="black"/>
<path d="M99.5325 99.2705H95.8025C94.7413 99.2705 93.881 98.4102 93.881 97.349V95.5405C93.881 94.4793 94.7413 93.619 95.8025 93.619H99.5325V99.2705Z" fill="black"/>
<path d="M105.011 93.6191H99.3594V99.2706H105.011V93.6191Z" fill="black"/>
<path d="M110.496 93.6191H104.844V99.2706H110.496V93.6191Z" fill="black"/>
<path d="M115.979 93.6194H110.327V99.2709H115.979V93.6194Z" fill="black"/>
<path d="M121.459 93.6191H115.807V99.2706H121.459V93.6191Z" fill="black"/>
<path d="M121.287 99.2705V93.619H125.017C126.078 93.619 126.938 94.4793 126.938 95.5405V99.2705H121.287Z" fill="black"/>
<path d="M137.905 99.2705H134.175C133.113 99.2705 132.253 98.4102 132.253 97.349V95.5405C132.253 94.4793 133.113 93.619 134.175 93.619H137.905V99.2705Z" fill="black"/>
<path d="M143.386 93.6191H137.734V99.2706H143.386V93.6191Z" fill="black"/>
<path d="M154.349 99.2705H150.619C149.557 99.2705 148.697 98.4102 148.697 97.349V95.5405C148.697 94.4793 149.557 93.619 150.619 93.619H154.349V99.2705Z" fill="black"/>
<path d="M154.18 93.6191H159.832V97.3491C159.832 98.4103 158.972 99.2706 157.91 99.2706H154.18V93.6191Z" fill="black"/>
<path d="M6.33704 99.1018H0.685547V104.753H6.33704V99.1018Z" fill="black"/>
<path d="M17.2998 99.1018V104.753H13.5698C12.5086 104.753 11.6483 103.893 11.6483 102.832V99.1018H17.2998Z" fill="black"/>
<path d="M22.7848 99.1018H17.1333V104.753H22.7848V99.1018Z" fill="black"/>
<path d="M28.266 99.1018H22.6145V104.753H28.266V99.1018Z" fill="black"/>
<path d="M33.7479 99.1018H28.0964V104.753H33.7479V99.1018Z" fill="black"/>
<path d="M39.2269 99.1018H33.5754V104.753H39.2269V99.1018Z" fill="black"/>
<path d="M44.7118 99.1018H39.0603V104.753H44.7118V99.1018Z" fill="black"/>
<path d="M50.1937 99.1018H44.5422V104.753H50.1937V99.1018Z" fill="black"/>
<path d="M61.1558 104.753H55.5043V101.023C55.5043 99.962 56.3646 99.1017 57.4258 99.1017H61.1558V104.753Z" fill="black"/>
<path d="M66.6427 99.1018H60.9912V104.753H66.6427V99.1018Z" fill="black"/>
<path d="M71.9504 104.753V101.023C71.9504 99.962 72.8107 99.1017 73.8719 99.1017H75.6804C76.7416 99.1017 77.6019 99.962 77.6019 101.023V104.753H71.9504Z" fill="black"/>
<path d="M88.3965 100.718V103.143C88.3965 104.036 89.1199 104.753 90.0128 104.753H92.4373C93.3359 104.753 94.0536 104.03 94.0536 103.137V100.718C94.048 99.8195 93.3246 99.1018 92.4316 99.1018H90.0128C89.1199 99.1018 88.3965 99.8252 88.3965 100.718Z" fill="black"/>
<path d="M105.011 99.1018V102.832C105.011 103.893 104.15 104.753 103.089 104.753H101.281C100.22 104.753 99.3593 103.893 99.3593 102.832V99.1018H105.011Z" fill="black"/>
<path d="M115.979 99.1018H110.327V104.753H115.979V99.1018Z" fill="black"/>
<path d="M126.938 99.1018H121.287V104.753H126.938V99.1018Z" fill="black"/>
<path d="M126.771 104.753V101.023C126.771 99.962 127.632 99.1017 128.693 99.1017H130.501C131.563 99.1017 132.423 99.962 132.423 101.023V104.753H126.771Z" fill="black"/>
<path d="M143.386 99.1018V102.832C143.386 103.893 142.525 104.753 141.464 104.753H139.656C138.595 104.753 137.734 103.893 137.734 102.832V99.1018H143.386Z" fill="black"/>
<path d="M6.33704 104.584H0.685547V110.235H6.33704V104.584Z" fill="black"/>
<path d="M22.7848 104.584H17.1333V110.235H22.7848V104.584Z" fill="black"/>
<path d="M50.1936 104.584V108.314C50.1936 109.375 49.3333 110.235 48.2721 110.235H46.4636C45.4024 110.235 44.5421 109.375 44.5421 108.314V104.584H50.1936Z" fill="black"/>
<path d="M61.1558 104.584V110.235H57.4258C56.3646 110.235 55.5043 109.375 55.5043 108.314V104.584H61.1558Z" fill="black"/>
<path d="M60.9912 104.584H66.6427V108.314C66.6427 109.375 65.7824 110.235 64.7212 110.235H60.9912V104.584Z" fill="black"/>
<path d="M77.6018 104.584V108.314C77.6018 109.375 76.7415 110.235 75.6803 110.235H73.8718C72.8106 110.235 71.9503 109.375 71.9503 108.314V104.584H77.6018Z" fill="black"/>
<path d="M82.9153 106.2V108.625C82.9153 109.517 83.6387 110.235 84.5316 110.235H86.9561C87.8547 110.235 88.5724 109.512 88.5724 108.619V106.2C88.5668 105.301 87.8434 104.584 86.9504 104.584H84.5316C83.6387 104.584 82.9153 105.307 82.9153 106.2Z" fill="black"/>
<path d="M93.8813 106.2V108.625C93.8813 109.517 94.6047 110.235 95.4977 110.235H97.9222C98.8207 110.235 99.5385 109.512 99.5385 108.619V106.2C99.5328 105.301 98.8094 104.584 97.9165 104.584H95.4977C94.6047 104.584 93.8813 105.307 93.8813 106.2Z" fill="black"/>
<path d="M115.979 104.584H110.327V110.235H115.979V104.584Z" fill="black"/>
<path d="M119.737 110.122V110.235H121.461V108.511H121.347C121.347 109.404 120.624 110.122 119.737 110.122Z" fill="black"/>
<path d="M126.938 104.584H121.287V110.235H126.938V104.584Z" fill="black"/>
<path d="M130.7 110.122V110.235H132.423V108.511H132.31C132.31 109.404 131.587 110.122 130.7 110.122Z" fill="black"/>
<path d="M132.253 110.235V106.505C132.253 105.444 133.113 104.584 134.175 104.584H135.983C137.044 104.584 137.905 105.444 137.905 106.505V110.235H132.253Z" fill="black"/>
<path d="M154.349 110.235H150.619C149.557 110.235 148.697 109.375 148.697 108.313V106.505C148.697 105.444 149.557 104.583 150.619 104.583H154.349V110.235Z" fill="black"/>
<path d="M154.18 110.235V106.505C154.18 105.444 155.041 104.583 156.102 104.583H157.91C158.972 104.583 159.832 105.444 159.832 106.505V110.235H154.18Z" fill="black"/>
<path d="M6.33667 110.065V113.795C6.33667 114.857 5.47638 115.717 4.41516 115.717H2.60669C1.54547 115.717 0.685182 114.857 0.685182 113.795V110.065H6.33667Z" fill="black"/>
<path d="M22.7847 110.065V115.717H19.0547C17.9935 115.717 17.1332 114.857 17.1332 113.795V110.065H22.7847Z" fill="black"/>
<path d="M28.266 110.065H22.6145V115.717H28.266V110.065Z" fill="black"/>
<path d="M33.7479 110.065H28.0964V115.717H33.7479V110.065Z" fill="black"/>
<path d="M39.2269 110.065H33.5754V115.717H39.2269V110.065Z" fill="black"/>
<path d="M39.0603 115.717V111.987C39.0603 110.925 39.9206 110.065 40.9818 110.065H42.7903C43.8515 110.065 44.7118 110.925 44.7118 111.987V115.717H39.0603Z" fill="black"/>
<path d="M50.0234 111.682V114.106C50.0234 114.999 50.7468 115.717 51.6398 115.717H54.0643C54.9628 115.717 55.6806 114.994 55.6806 114.101V111.682C55.6749 110.783 54.9515 110.065 54.0586 110.065H51.6398C50.7468 110.065 50.0234 110.789 50.0234 111.682Z" fill="black"/>
<path d="M77.4333 115.717V111.987C77.4333 110.925 78.2936 110.065 79.3549 110.065H81.1633C82.2246 110.065 83.0848 110.925 83.0848 111.987V115.717H77.4333Z" fill="black"/>
<path d="M99.3594 111.682V114.106C99.3594 114.999 100.083 115.717 100.976 115.717H103.4C104.299 115.717 105.017 114.994 105.017 114.101V111.682C105.011 110.783 104.287 110.065 103.395 110.065H100.976C100.083 110.065 99.3594 110.789 99.3594 111.682Z" fill="black"/>
<path d="M115.979 110.065H110.327V115.717H115.979V110.065Z" fill="black"/>
<path d="M121.459 110.065H115.807V115.717H121.459V110.065Z" fill="black"/>
<path d="M126.938 110.065H121.287V115.717H126.938V110.065Z" fill="black"/>
<path d="M132.423 110.065H126.771V115.717H132.423V110.065Z" fill="black"/>
<path d="M137.905 110.065H132.253V115.717H137.905V110.065Z" fill="black"/>
<path d="M143.217 111.682V114.106C143.217 114.999 143.941 115.717 144.834 115.717H147.258C148.157 115.717 148.874 114.994 148.874 114.101V111.682C148.869 110.783 148.145 110.065 147.252 110.065H144.834C143.941 110.065 143.217 110.789 143.217 111.682Z" fill="black"/>
<path d="M44.5422 117.164V119.589C44.5422 120.482 45.2656 121.199 46.1586 121.199H48.5831C49.4816 121.199 50.1994 120.476 50.1994 119.583V117.164C50.1937 116.266 49.4703 115.548 48.5774 115.548H46.1586C45.2656 115.548 44.5422 116.271 44.5422 117.164Z" fill="black"/>
<path d="M55.5044 117.164V119.589C55.5044 120.482 56.2278 121.199 57.1207 121.199H59.5452C60.4438 121.199 61.1615 120.476 61.1615 119.583V117.164C61.1559 116.266 60.4325 115.548 59.5396 115.548H57.1207C56.2278 115.548 55.5044 116.271 55.5044 117.164Z" fill="black"/>
<path d="M66.4695 117.164V119.589C66.4695 120.482 67.1929 121.199 68.0858 121.199H70.5103C71.4089 121.199 72.1266 120.476 72.1266 119.583V117.164C72.121 116.266 71.3976 115.548 70.5046 115.548H68.0858C67.1929 115.548 66.4695 116.271 66.4695 117.164Z" fill="black"/>
<path d="M75.8789 121.086V121.199H77.6026V119.475H77.4896C77.4896 120.368 76.7662 121.086 75.8789 121.086Z" fill="black"/>
<path d="M83.0848 115.548H77.4333V121.199H83.0848V115.548Z" fill="black"/>
<path d="M108.769 121.086V121.199H110.493V119.475H110.379C110.379 120.368 109.656 121.086 108.769 121.086Z" fill="black"/>
<path d="M115.979 115.548H110.327V121.199H115.979V115.548Z" fill="black"/>
<path d="M137.905 115.548H132.253V121.199H137.905V115.548Z" fill="black"/>
<path d="M137.734 121.199V117.469C137.734 116.408 138.595 115.548 139.656 115.548H141.464C142.526 115.548 143.386 116.408 143.386 117.469V121.199H137.734Z" fill="black"/>
<path d="M154.349 121.199H148.697V117.469C148.697 116.408 149.557 115.548 150.619 115.548H154.349V121.199Z" fill="black"/>
<path d="M154.18 121.199V117.469C154.18 116.408 155.041 115.548 156.102 115.548H157.91C158.972 115.548 159.832 116.408 159.832 117.469V121.199H154.18Z" fill="black"/>
<path d="M60.9912 126.681V122.951C60.9912 121.89 61.8515 121.029 62.9127 121.029H64.7212C65.7824 121.029 66.6427 121.89 66.6427 122.951V126.681H60.9912Z" fill="black"/>
<path d="M77.6018 126.681H73.8718C72.8106 126.681 71.9503 125.821 71.9503 124.759V122.951C71.9503 121.89 72.8106 121.029 73.8718 121.029H77.6018V126.681Z" fill="black"/>
<path d="M83.0848 121.03H77.4333V126.681H83.0848V121.03Z" fill="black"/>
<path d="M97.8096 126.568V126.681H99.5333V124.957H99.4202C99.4202 125.85 98.6969 126.568 97.8096 126.568Z" fill="black"/>
<path d="M105.011 126.681H99.3593V122.951C99.3593 121.89 100.22 121.029 101.281 121.029H105.011V126.681Z" fill="black"/>
<path d="M110.496 121.03H104.844V126.681H110.496V121.03Z" fill="black"/>
<path d="M115.979 121.03H110.327V126.681H115.979V121.03Z" fill="black"/>
<path d="M121.287 122.646V125.07C121.287 125.963 122.01 126.681 122.903 126.681H125.327C126.226 126.681 126.944 125.958 126.944 125.065V122.646C126.938 121.747 126.215 121.03 125.322 121.03H122.903C122.01 121.03 121.287 121.753 121.287 122.646Z" fill="black"/>
<path d="M137.905 121.03H132.253V126.681H137.905V121.03Z" fill="black"/>
<path d="M154.349 121.03V124.76C154.349 125.821 153.488 126.681 152.427 126.681H150.619C149.557 126.681 148.697 125.821 148.697 124.76V121.03H154.349Z" fill="black"/>
<path d="M66.6426 126.511V132.163H62.9126C61.8514 132.163 60.9911 131.303 60.9911 130.241V126.511H66.6426Z" fill="black"/>
<path d="M66.4695 132.163V126.511H70.1995C71.2607 126.511 72.121 127.371 72.121 128.433V132.163H66.4695Z" fill="black"/>
<path d="M83.0847 126.511V130.241C83.0847 131.303 82.2244 132.163 81.1632 132.163H79.3547C78.2935 132.163 77.4332 131.303 77.4332 130.241V126.511H83.0847Z" fill="black"/>
<path d="M99.5325 132.163H95.8025C94.7413 132.163 93.881 131.302 93.881 130.241V128.433C93.881 127.371 94.7413 126.511 95.8025 126.511H99.5325V132.163Z" fill="black"/>
<path d="M105.011 126.511H99.3594V132.163H105.011V126.511Z" fill="black"/>
<path d="M110.496 126.511H104.844V132.163H110.496V126.511Z" fill="black"/>
<path d="M115.979 126.511H110.327V132.163H115.979V126.511Z" fill="black"/>
<path d="M130.7 132.05V132.163H132.423V130.439H132.31C132.31 131.332 131.587 132.05 130.7 132.05Z" fill="black"/>
<path d="M137.905 126.511H132.253V132.163H137.905V126.511Z" fill="black"/>
<path d="M137.734 132.163V126.511H141.464C142.526 126.511 143.386 127.371 143.386 128.433V132.163H137.734Z" fill="black"/>
<path d="M152.627 132.05V132.163H154.35V130.439H154.237C154.237 131.332 153.514 132.05 152.627 132.05Z" fill="black"/>
<path d="M154.18 132.163V128.433C154.18 127.371 155.041 126.511 156.102 126.511H157.91C158.972 126.511 159.832 127.371 159.832 128.433V132.163H154.18Z" fill="black"/>
<path d="M50.1936 137.645H44.5421V133.915C44.5421 132.854 45.4024 131.994 46.4636 131.994H50.1936V137.645Z" fill="black"/>
<path d="M50.0234 137.645V133.915C50.0234 132.854 50.8837 131.994 51.9449 131.994H53.7534C54.8146 131.994 55.6749 132.854 55.6749 133.915V137.645H50.0234Z" fill="black"/>
<path d="M72.1206 131.994V135.724C72.1206 136.785 71.2603 137.646 70.1991 137.646H68.3906C67.3294 137.646 66.4691 136.785 66.4691 135.724V131.994H72.1206Z" fill="black"/>
<path d="M82.9153 137.645V133.915C82.9153 132.854 83.7756 131.994 84.8368 131.994H86.6453C87.7065 131.994 88.5668 132.854 88.5668 133.915V137.645H82.9153Z" fill="black"/>
<path d="M115.979 131.994H110.327V137.646H115.979V131.994Z" fill="black"/>
<path d="M121.459 131.994H115.807V137.646H121.459V131.994Z" fill="black"/>
<path d="M126.938 131.994H121.287V137.646H126.938V131.994Z" fill="black"/>
<path d="M132.423 131.994H126.771V137.646H132.423V131.994Z" fill="black"/>
<path d="M137.905 131.994H132.253V137.646H137.905V131.994Z" fill="black"/>
<path d="M143.386 131.994H137.734V137.646H143.386V131.994Z" fill="black"/>
<path d="M148.869 131.994H143.217V137.646H148.869V131.994Z" fill="black"/>
<path d="M154.349 131.994H148.698V137.646H154.349V131.994Z" fill="black"/>
<path d="M154.18 131.994H159.832V135.724C159.832 136.785 158.972 137.646 157.91 137.646H154.18V131.994Z" fill="black"/>
<path d="M50.1937 137.476H44.5422V143.127H50.1937V137.476Z" fill="black"/>
<path d="M81.3618 143.014V143.127H83.0855V141.404H82.9725C82.9725 142.296 82.2491 143.014 81.3618 143.014Z" fill="black"/>
<path d="M88.5668 137.476H82.9153V143.127H88.5668V137.476Z" fill="black"/>
<path d="M99.5325 143.127H93.881V139.397C93.881 138.336 94.7413 137.475 95.8025 137.475H99.5325V143.127Z" fill="black"/>
<path d="M105.011 137.476H99.3594V143.127H105.011V137.476Z" fill="black"/>
<path d="M110.496 137.476H104.844V143.127H110.496V137.476Z" fill="black"/>
<path d="M115.979 137.476H110.327V143.127H115.979V137.476Z" fill="black"/>
<path d="M121.459 137.476H115.807V143.127H121.459V137.476Z" fill="black"/>
<path d="M132.423 137.476H126.771V143.127H132.423V137.476Z" fill="black"/>
<path d="M143.386 137.476H137.734V143.127H143.386V137.476Z" fill="black"/>
<path d="M148.869 137.476H143.217V143.127H148.869V137.476Z" fill="black"/>
<path d="M50.1936 142.957V146.687C50.1936 147.748 49.3333 148.609 48.2721 148.609H46.4636C45.4024 148.609 44.5421 147.748 44.5421 146.687V142.957H50.1936Z" fill="black"/>
<path d="M64.9155 148.496V148.609H66.6392V146.885H66.5262C66.5262 147.778 65.8028 148.496 64.9155 148.496Z" fill="black"/>
<path d="M66.4695 148.609V144.879C66.4695 143.817 67.3298 142.957 68.391 142.957H70.1995C71.2607 142.957 72.121 143.817 72.121 144.879V148.609H66.4695Z" fill="black"/>
<path d="M83.0847 148.609H79.3547C78.2935 148.609 77.4332 147.748 77.4332 146.687V144.879C77.4332 143.817 78.2935 142.957 79.3547 142.957H83.0847V148.609Z" fill="black"/>
<path d="M82.9153 142.957H88.5668V146.687C88.5668 147.748 87.7065 148.609 86.6453 148.609H82.9153V142.957Z" fill="black"/>
<path d="M92.323 148.496V148.609H94.0467V146.885H93.9337C93.9337 147.778 93.2103 148.496 92.323 148.496Z" fill="black"/>
<path d="M99.5328 142.957H93.8813V148.609H99.5328V142.957Z" fill="black"/>
<path d="M110.496 142.957H104.844V148.609H110.496V142.957Z" fill="black"/>
<path d="M115.979 142.957H110.327V148.609H115.979V142.957Z" fill="black"/>
<path d="M121.459 142.957H115.807V148.609H121.459V142.957Z" fill="black"/>
<path d="M126.938 142.957H121.287V148.609H126.938V142.957Z" fill="black"/>
<path d="M132.423 142.957H126.771V148.609H132.423V142.957Z" fill="black"/>
<path d="M137.905 142.957H132.253V148.609H137.905V142.957Z" fill="black"/>
<path d="M143.386 142.957H137.734V148.609H143.386V142.957Z" fill="black"/>
<path d="M148.869 142.957H143.217V148.609H148.869V142.957Z" fill="black"/>
<path d="M148.698 148.609V142.957H152.427C153.489 142.957 154.349 143.817 154.349 144.879V148.609H148.698Z" fill="black"/>
<path d="M61.1558 154.091H57.4258C56.3646 154.091 55.5043 153.231 55.5043 152.17V150.361C55.5043 149.3 56.3646 148.44 57.4258 148.44H61.1558V154.091Z" fill="black"/>
<path d="M66.6427 148.44H60.9912V154.092H66.6427V148.44Z" fill="black"/>
<path d="M72.121 148.44H66.4695V154.092H72.121V148.44Z" fill="black"/>
<path d="M71.9504 154.092V148.44H75.6804C76.7416 148.44 77.6019 149.3 77.6019 150.362V154.092H71.9504Z" fill="black"/>
<path d="M94.0476 154.091H90.3176C89.2564 154.091 88.3961 153.231 88.3961 152.17V150.361C88.3961 149.3 89.2564 148.44 90.3176 148.44H94.0476V154.091Z" fill="black"/>
<path d="M93.8813 148.44H99.5328V152.17C99.5328 153.231 98.6725 154.092 97.6113 154.092H93.8813V148.44Z" fill="black"/>
<path d="M110.496 148.44H104.844V154.092H110.496V148.44Z" fill="black"/>
<path d="M115.979 148.44H110.327V154.091H115.979V148.44Z" fill="black"/>
<path d="M121.459 148.44H115.807V154.092H121.459V148.44Z" fill="black"/>
<path d="M126.938 148.44H121.287V154.092H126.938V148.44Z" fill="black"/>
<path d="M137.905 148.44H132.253V154.091H137.905V148.44Z" fill="black"/>
<path d="M154.349 148.44V152.17C154.349 153.231 153.488 154.092 152.427 154.092H150.619C149.557 154.092 148.697 153.231 148.697 152.17V148.44H154.349Z" fill="black"/>
<path d="M72.1206 153.922V159.573H68.3906C67.3294 159.573 66.4691 158.713 66.4691 157.652V153.922H72.1206Z" fill="black"/>
<path d="M77.6019 153.922H71.9504V159.573H77.6019V153.922Z" fill="black"/>
<path d="M83.0848 153.922H77.4333V159.573H83.0848V153.922Z" fill="black"/>
<path d="M82.9153 159.573V155.843C82.9153 154.782 83.7756 153.921 84.8368 153.921H86.6453C87.7065 153.921 88.5668 154.782 88.5668 155.843V159.573H82.9153Z" fill="black"/>
<path d="M110.496 153.922V157.652C110.496 158.713 109.635 159.573 108.574 159.573H106.766C105.704 159.573 104.844 158.713 104.844 157.652V153.922H110.496Z" fill="black"/>
<path d="M126.938 153.922V157.652C126.938 158.713 126.077 159.573 125.016 159.573H123.208C122.147 159.573 121.286 158.713 121.286 157.652V153.922H126.938Z" fill="black"/>
<path d="M137.905 153.922V159.573H134.175C133.113 159.573 132.253 158.713 132.253 157.652V153.922H137.905Z" fill="black"/>
<path d="M143.386 153.922H137.734V159.573H143.386V153.922Z" fill="black"/>
<path d="M143.217 159.573V155.843C143.217 154.782 144.078 153.921 145.139 153.921H146.947C148.008 153.921 148.869 154.782 148.869 155.843V159.573H143.217Z" fill="black"/>
<path d="M34.5951 26.2727V14.1406C34.5951 8.75549 33.8625 7.44154 33.5474 7.12577C33.2317 6.81071 31.9177 6.07815 26.5319 6.07815H14.4005C9.01477 6.07815 7.70082 6.81071 7.38575 7.12577C7.07069 7.44154 6.33742 8.75549 6.33742 14.1406V26.2727C6.33742 31.6584 7.07069 32.9724 7.38575 33.2882C7.70082 33.6025 9.01477 34.3358 14.4005 34.3358H26.5319C31.9177 34.3358 33.2317 33.6025 33.5474 33.2882C33.8625 32.9724 34.5951 31.6584 34.5951 26.2727ZM26.5319 0.426758C37.6094 0.426758 40.2465 3.06384 40.2465 14.1406C40.2465 25.218 40.2465 15.196 40.2465 26.2727C40.2465 37.3501 37.6094 39.9872 26.5319 39.9872C15.4552 39.9872 25.4773 39.9872 14.4005 39.9872C3.32311 39.9872 0.686035 37.3501 0.686035 26.2727C0.686035 15.196 0.686035 20.3267 0.686035 14.1406C0.686035 3.06384 3.32311 0.426758 14.4005 0.426758C25.4773 0.426758 15.4552 0.426758 26.5319 0.426758ZM23.0657 11.7297C27.8134 11.7297 28.9435 12.8605 28.9435 17.6068C28.9435 22.3544 28.9435 18.0595 28.9435 22.8065C28.9435 27.5534 27.8134 28.6842 23.0657 28.6842C18.3188 28.6842 22.6137 28.6842 17.8667 28.6842C13.1198 28.6842 11.989 27.5534 11.989 22.8065C11.989 18.0595 11.989 20.2582 11.989 17.6068C11.989 12.8605 13.1198 11.7297 17.8667 11.7297C22.6137 11.7297 18.3188 11.7297 23.0657 11.7297Z" fill="black"/>
<path d="M153.956 26.2727V14.1406C153.956 8.75549 153.223 7.44154 152.908 7.12577C152.593 6.81071 151.279 6.07815 145.893 6.07815H133.761C128.376 6.07815 127.062 6.81071 126.747 7.12577C126.432 7.44154 125.698 8.75549 125.698 14.1406V26.2727C125.698 31.6584 126.432 32.9724 126.747 33.2882C127.062 33.6025 128.376 34.3358 133.761 34.3358H145.893C151.279 34.3358 152.593 33.6025 152.908 33.2882C153.223 32.9724 153.956 31.6584 153.956 26.2727ZM145.893 0.426758C156.97 0.426758 159.607 3.06384 159.607 14.1406C159.607 25.218 159.607 15.196 159.607 26.2727C159.607 37.3501 156.97 39.9872 145.893 39.9872C134.816 39.9872 144.838 39.9872 133.761 39.9872C122.684 39.9872 120.047 37.3501 120.047 26.2727C120.047 15.196 120.047 20.3267 120.047 14.1406C120.047 3.06384 122.684 0.426758 133.761 0.426758C144.838 0.426758 134.816 0.426758 145.893 0.426758ZM142.427 11.7297C147.174 11.7297 148.304 12.8605 148.304 17.6068C148.304 22.3544 148.304 18.0595 148.304 22.8065C148.304 27.5534 147.174 28.6842 142.427 28.6842C137.68 28.6842 141.975 28.6842 137.228 28.6842C132.481 28.6842 131.35 27.5534 131.35 22.8065C131.35 18.0595 131.35 20.2582 131.35 17.6068C131.35 12.8605 132.481 11.7297 137.228 11.7297C141.975 11.7297 137.68 11.7297 142.427 11.7297Z" fill="black"/>
<path d="M34.5951 145.632V133.5C34.5951 128.115 33.8625 126.801 33.5474 126.485C33.2317 126.17 31.9177 125.438 26.5319 125.438H14.4005C9.01477 125.438 7.70082 126.17 7.38575 126.485C7.07069 126.801 6.33742 128.115 6.33742 133.5V145.632C6.33742 151.018 7.07069 152.332 7.38575 152.648C7.70082 152.962 9.01477 153.695 14.4005 153.695H26.5319C31.9177 153.695 33.2317 152.962 33.5474 152.648C33.8625 152.332 34.5951 151.018 34.5951 145.632ZM26.5319 119.786C37.6094 119.786 40.2465 122.423 40.2465 133.5C40.2465 144.578 40.2465 134.556 40.2465 145.632C40.2465 156.71 37.6094 159.347 26.5319 159.347C15.4552 159.347 25.4773 159.347 14.4005 159.347C3.32311 159.347 0.686035 156.71 0.686035 145.632C0.686035 134.556 0.686035 139.686 0.686035 133.5C0.686035 122.423 3.32311 119.786 14.4005 119.786C25.4773 119.786 15.4552 119.786 26.5319 119.786ZM23.0657 131.089C27.8134 131.089 28.9435 132.22 28.9435 136.966C28.9435 141.714 28.9435 137.419 28.9435 142.166C28.9435 146.913 27.8134 148.044 23.0657 148.044C18.3188 148.044 22.6137 148.044 17.8667 148.044C13.1198 148.044 11.989 146.913 11.989 142.166C11.989 137.419 11.989 139.618 11.989 136.966C11.989 132.22 13.1198 131.089 17.8667 131.089C22.6137 131.089 18.3188 131.089 23.0657 131.089Z" fill="black"/>
</svg>
