<svg width="214" height="214" viewBox="0 0 214 214" fill="none" xmlns="http://www.w3.org/2000/svg">
<path d="M172.509 3.00019L176.46 3.00002C188.55 2.99948 194.595 2.99921 199.213 5.4659C203.275 7.63567 206.577 11.098 208.647 15.3566C211 20.198 211 26.5359 211 39.2116V41.4911" stroke="#F8D749" stroke-width="5"/>
<path d="M211 172.509L211 176.46C211.001 188.55 211.001 194.595 208.534 199.213C206.364 203.275 202.902 206.577 198.643 208.647C193.802 211 187.464 211 174.788 211H172.509" stroke="#F8D749" stroke-width="5"/>
<path d="M41.4912 211L37.5398 211C25.4498 211.001 19.4048 211.001 14.7871 208.534C10.7251 206.364 7.42268 202.902 5.35301 198.643C3.00011 193.802 3.00011 187.464 3.00011 174.788V172.509" stroke="#F8D749" stroke-width="5"/>
<path d="M3.00019 41.4911L3.00002 37.5397C2.99948 25.4497 2.99921 19.4047 5.4659 14.7869C7.63567 10.725 11.098 7.42256 15.3566 5.35289C20.198 2.99999 26.5359 2.99998 39.2116 2.99998H41.4911" stroke="#F8D749" stroke-width="5"/>
<path d="M70.5425 33.078V29.348C70.5425 28.2868 71.4028 27.4265 72.464 27.4265H74.2725C75.3337 27.4265 76.194 28.2868 76.194 29.348V33.078H70.5425Z" fill="black"/>
<path d="M92.6426 33.078H86.9911V29.348C86.9911 28.2868 87.8514 27.4265 88.9126 27.4265H92.6426V33.078Z" fill="black"/>
<path d="M98.121 27.4266H92.4695V33.0781H98.121V27.4266Z" fill="black"/>
<path d="M97.9504 33.078V29.348C97.9504 28.2868 98.8107 27.4265 99.8719 27.4265H101.68C102.742 27.4265 103.602 28.2868 103.602 29.348V33.078H97.9504Z" fill="black"/>
<path d="M114.396 29.043V31.4674C114.396 32.3604 115.12 33.0781 116.013 33.0781H118.437C119.336 33.0781 120.054 32.3547 120.054 31.4618V29.043C120.048 28.1444 119.325 27.4266 118.432 27.4266H116.013C115.12 27.4266 114.396 28.15 114.396 29.043Z" fill="black"/>
<path d="M123.81 32.9655V33.0785H125.533V31.3548H125.42C125.42 32.2477 124.697 32.9655 123.81 32.9655Z" fill="black"/>
<path d="M125.359 33.078V29.348C125.359 28.2868 126.22 27.4265 127.281 27.4265H129.089C130.151 27.4265 131.011 28.2868 131.011 29.348V33.078H125.359Z" fill="black"/>
<path d="M136.327 29.0431V31.4676C136.327 32.3606 137.051 33.0783 137.944 33.0783H140.368C141.267 33.0783 141.985 32.3549 141.985 31.462V29.0431C141.979 28.1446 141.255 27.4268 140.363 27.4268H137.944C137.051 27.4268 136.327 28.1502 136.327 29.0431Z" fill="black"/>
<path d="M76.1937 32.9087H70.5422V38.5602H76.1937V32.9087Z" fill="black"/>
<path d="M76.0234 38.5602V34.8303C76.0234 33.769 76.8837 32.9088 77.9449 32.9088H79.7534C80.8146 32.9088 81.6749 33.769 81.6749 34.8303V38.5602H76.0234Z" fill="black"/>
<path d="M85.4329 38.4472V38.5603H87.1566V36.8365H87.0435C87.0435 37.7295 86.3201 38.4472 85.4329 38.4472Z" fill="black"/>
<path d="M92.6427 32.9089H86.9912V38.5604H92.6427V32.9089Z" fill="black"/>
<path d="M101.879 38.4472V38.5603H103.603V36.8365H103.49C103.49 37.7295 102.766 38.4472 101.879 38.4472Z" fill="black"/>
<path d="M103.433 38.5602V34.8303C103.433 33.769 104.294 32.9088 105.355 32.9088H107.163C108.225 32.9088 109.085 33.769 109.085 34.8303V38.5602H103.433Z" fill="black"/>
<path d="M125.532 38.5602H121.802C120.741 38.5602 119.881 37.7 119.881 36.6387V34.8303C119.881 33.769 120.741 32.9088 121.802 32.9088H125.532V38.5602Z" fill="black"/>
<path d="M131.011 32.9089H125.359V38.5604H131.011V32.9089Z" fill="black"/>
<path d="M130.844 38.5602V32.9088H134.574C135.635 32.9088 136.496 33.769 136.496 34.8303V38.5602H130.844Z" fill="black"/>
<path d="M76.1936 38.3909V42.1209C76.1936 43.1821 75.3333 44.0424 74.2721 44.0424H72.4636C71.4024 44.0424 70.5421 43.1821 70.5421 42.1209V38.3909H76.1936Z" fill="black"/>
<path d="M79.9519 43.929V44.042H81.6756V42.3183H81.5626C81.5626 43.2112 80.8392 43.929 79.9519 43.929Z" fill="black"/>
<path d="M87.1558 44.0422H81.5043V40.3123C81.5043 39.251 82.3646 38.3907 83.4258 38.3907H87.1558V44.0422Z" fill="black"/>
<path d="M92.6427 38.3909H86.9912V44.0424H92.6427V38.3909Z" fill="black"/>
<path d="M96.394 43.929V44.042H98.1177V42.3183H98.0047C98.0047 43.2112 97.2813 43.929 96.394 43.929Z" fill="black"/>
<path d="M103.602 44.0422H97.9503V40.3123C97.9503 39.251 98.8106 38.3907 99.8718 38.3907H103.602V44.0422Z" fill="black"/>
<path d="M109.085 38.3909H103.433V44.0424H109.085V38.3909Z" fill="black"/>
<path d="M114.567 38.3909H108.915V44.0424H114.567V38.3909Z" fill="black"/>
<path d="M114.396 44.0422V40.3123C114.396 39.251 115.257 38.3907 116.318 38.3907H118.126C119.188 38.3907 120.048 39.251 120.048 40.3123V44.0422H114.396Z" fill="black"/>
<path d="M136.496 38.3909H130.844V44.0424H136.496V38.3909Z" fill="black"/>
<path d="M136.327 44.0422V40.3123C136.327 39.251 137.188 38.3907 138.249 38.3907H140.057C141.119 38.3907 141.979 39.251 141.979 40.3123V44.0422H136.327Z" fill="black"/>
<path d="M81.6746 49.524H77.9446C76.8834 49.524 76.0231 48.6637 76.0231 47.6025V45.794C76.0231 44.7328 76.8834 43.8725 77.9446 43.8725H81.6746V49.524Z" fill="black"/>
<path d="M87.1559 43.8726H81.5044V49.5241H87.1559V43.8726Z" fill="black"/>
<path d="M92.6427 43.8726H86.9912V49.5241H92.6427V43.8726Z" fill="black"/>
<path d="M98.121 43.8726H92.4695V49.5241H98.121V43.8726Z" fill="black"/>
<path d="M103.602 43.8727H97.9504V49.5242H103.602V43.8727Z" fill="black"/>
<path d="M109.085 43.8726H103.433V49.5241H109.085V43.8726Z" fill="black"/>
<path d="M108.915 43.8726H114.567V47.6026C114.567 48.6638 113.706 49.5241 112.645 49.5241H108.915V43.8726Z" fill="black"/>
<path d="M119.881 45.4889V47.9134C119.881 48.8064 120.605 49.5241 121.498 49.5241H123.922C124.821 49.5241 125.538 48.8007 125.538 47.9078V45.4889C125.533 44.5904 124.809 43.8726 123.917 43.8726H121.498C120.605 43.8726 119.881 44.596 119.881 45.4889Z" fill="black"/>
<path d="M129.289 49.411V49.524H131.013V47.8003H130.899C130.899 48.6932 130.176 49.411 129.289 49.411Z" fill="black"/>
<path d="M136.496 43.8726H130.844V49.5241H136.496V43.8726Z" fill="black"/>
<path d="M92.6426 49.3544V55.0059H88.9126C87.8514 55.0059 86.9911 54.1456 86.9911 53.0844V49.3544H92.6426Z" fill="black"/>
<path d="M98.121 49.3544H92.4695V55.0059H98.121V49.3544Z" fill="black"/>
<path d="M109.085 49.3544H103.433V55.0059H109.085V49.3544Z" fill="black"/>
<path d="M112.843 54.893V55.006H114.567V53.2823H114.454C114.454 54.1752 113.73 54.893 112.843 54.893Z" fill="black"/>
<path d="M114.396 55.0057V51.2758C114.396 50.2145 115.257 49.3542 116.318 49.3542H118.126C119.188 49.3542 120.048 50.2145 120.048 51.2758V55.0057H114.396Z" fill="black"/>
<path d="M131.011 55.0057H125.359V51.2758C125.359 50.2145 126.22 49.3542 127.281 49.3542H131.011V55.0057Z" fill="black"/>
<path d="M136.496 49.3544H130.844V55.0059H136.496V49.3544Z" fill="black"/>
<path d="M136.327 55.0057V51.2758C136.327 50.2145 137.188 49.3542 138.249 49.3542H140.057C141.119 49.3542 141.979 50.2145 141.979 51.2758V55.0057H136.327Z" fill="black"/>
<path d="M76.1936 60.4885H70.5421V56.7585C70.5421 55.6973 71.4024 54.837 72.4636 54.837H76.1936V60.4885Z" fill="black"/>
<path d="M81.6749 54.8371H76.0234V60.4886H81.6749V54.8371Z" fill="black"/>
<path d="M81.5044 60.4885V54.837H85.2344C86.2956 54.837 87.1559 55.6973 87.1559 56.7585V60.4885H81.5044Z" fill="black"/>
<path d="M98.121 54.8371H92.4695V60.4886H98.121V54.8371Z" fill="black"/>
<path d="M103.602 54.8372H97.9504V60.4886H103.602V54.8372Z" fill="black"/>
<path d="M109.085 54.8371H103.433V60.4886H109.085V54.8371Z" fill="black"/>
<path d="M114.567 54.8371H108.915V60.4886H114.567V54.8371Z" fill="black"/>
<path d="M120.048 54.8371H114.396V60.4886H120.048V54.8371Z" fill="black"/>
<path d="M131.011 54.8371H125.359V60.4886H131.011V54.8371Z" fill="black"/>
<path d="M76.1937 60.3187H70.5422V65.9702H76.1937V60.3187Z" fill="black"/>
<path d="M87.1559 60.3186H81.5044V65.9701H87.1559V60.3186Z" fill="black"/>
<path d="M98.1206 60.3186V64.0486C98.1206 65.1098 97.2603 65.9701 96.1991 65.9701H94.3906C93.3294 65.9701 92.4691 65.1098 92.4691 64.0486V60.3186H98.1206Z" fill="black"/>
<path d="M109.085 60.3186H103.433V65.9701H109.085V60.3186Z" fill="black"/>
<path d="M120.048 60.3186V64.0486C120.048 65.1098 119.187 65.9701 118.126 65.9701H116.318C115.256 65.9701 114.396 65.1098 114.396 64.0486V60.3186H120.048Z" fill="black"/>
<path d="M131.011 60.3186V64.0486C131.011 65.1098 130.15 65.9701 129.089 65.9701H127.281C126.22 65.9701 125.359 65.1098 125.359 64.0486V60.3186H131.011Z" fill="black"/>
<path d="M136.327 65.97V62.24C136.327 61.1788 137.188 60.3185 138.249 60.3185H140.057C141.119 60.3185 141.979 61.1788 141.979 62.24V65.97H136.327Z" fill="black"/>
<path d="M76.1937 65.8005H70.5422V71.452H76.1937V65.8005Z" fill="black"/>
<path d="M81.6749 65.8006H76.0234V71.4521H81.6749V65.8006Z" fill="black"/>
<path d="M81.5044 65.8004H87.1559V69.5303C87.1559 70.5916 86.2956 71.4518 85.2344 71.4518H81.5044V65.8004Z" fill="black"/>
<path d="M103.602 71.4517H99.8718C98.8106 71.4517 97.9503 70.5914 97.9503 69.5302V67.7217C97.9503 66.6605 98.8106 65.8002 99.8718 65.8002H103.602V71.4517Z" fill="black"/>
<path d="M109.085 65.8004H103.433V71.4518H109.085V65.8004Z" fill="black"/>
<path d="M108.915 71.4517V67.7217C108.915 66.6605 109.776 65.8002 110.837 65.8002H112.645C113.706 65.8002 114.567 66.6605 114.567 67.7217V71.4517H108.915Z" fill="black"/>
<path d="M141.979 65.8004V69.5303C141.979 70.5916 141.118 71.4518 140.057 71.4518H138.249C137.188 71.4518 136.327 70.5916 136.327 69.5303V65.8004H141.979Z" fill="black"/>
<path d="M36.0986 76.8205V76.9335H37.8223V75.2098H37.7093C37.7093 76.1027 36.9859 76.8205 36.0986 76.8205Z" fill="black"/>
<path d="M43.2998 76.9344H37.6483V73.2045C37.6483 72.1432 38.5086 71.283 39.5698 71.283H43.2998V76.9344Z" fill="black"/>
<path d="M48.7848 71.2831H43.1333V76.9346H48.7848V71.2831Z" fill="black"/>
<path d="M48.6145 76.9344V71.283H52.3445C53.4057 71.283 54.266 72.1432 54.266 73.2045V76.9344H48.6145Z" fill="black"/>
<path d="M59.5754 72.8994V75.3239C59.5754 76.2168 60.2988 76.9346 61.1918 76.9346H63.6163C64.5148 76.9346 65.2326 76.2112 65.2326 75.3182V72.8994C65.2269 72.0008 64.5035 71.2831 63.6106 71.2831H61.1918C60.2988 71.2831 59.5754 72.0065 59.5754 72.8994Z" fill="black"/>
<path d="M76.1936 71.2831V76.9346H72.4636C71.4024 76.9346 70.5421 76.0743 70.5421 75.0131V71.2831H76.1936Z" fill="black"/>
<path d="M76.0234 71.2831H81.6749V75.0131C81.6749 76.0743 80.8146 76.9346 79.7534 76.9346H76.0234V71.2831Z" fill="black"/>
<path d="M86.9912 72.8994V75.3239C86.9912 76.2168 87.7146 76.9346 88.6075 76.9346H91.032C91.9306 76.9346 92.6484 76.2112 92.6484 75.3182V72.8994C92.6427 72.0008 91.9193 71.2831 91.0264 71.2831H88.6075C87.7146 71.2831 86.9912 72.0065 86.9912 72.8994Z" fill="black"/>
<path d="M109.085 71.2831V75.0131C109.085 76.0743 108.224 76.9346 107.163 76.9346H105.355C104.294 76.9346 103.433 76.0743 103.433 75.0131V71.2831H109.085Z" fill="black"/>
<path d="M131.011 76.9344H127.281C126.22 76.9344 125.359 76.0742 125.359 75.0129V73.2045C125.359 72.1432 126.22 71.283 127.281 71.283H131.011V76.9344Z" fill="black"/>
<path d="M130.844 76.9344V73.2045C130.844 72.1432 131.705 71.283 132.766 71.283H134.574C135.635 71.283 136.496 72.1432 136.496 73.2045V76.9344H130.844Z" fill="black"/>
<path d="M147.459 76.9344H143.729C142.668 76.9344 141.807 76.0742 141.807 75.0129V73.2045C141.807 72.1432 142.668 71.283 143.729 71.283H147.459V76.9344Z" fill="black"/>
<path d="M152.938 71.2831H147.287V76.9346H152.938V71.2831Z" fill="black"/>
<path d="M152.771 76.9344V71.283H156.501C157.563 71.283 158.423 72.1432 158.423 73.2045V76.9344H152.771Z" fill="black"/>
<path d="M174.869 76.9344H171.139C170.077 76.9344 169.217 76.0742 169.217 75.0129V73.2045C169.217 72.1432 170.077 71.283 171.139 71.283H174.869V76.9344Z" fill="black"/>
<path d="M180.349 71.2831H174.698V76.9346H180.349V71.2831Z" fill="black"/>
<path d="M180.18 76.9344V71.283H183.91C184.972 71.283 185.832 72.1432 185.832 73.2045V76.9344H180.18Z" fill="black"/>
<path d="M30.6138 82.3032V82.4162H32.3375V80.6925H32.2244C32.2244 81.5854 31.5011 82.3032 30.6138 82.3032Z" fill="black"/>
<path d="M37.8176 82.416H32.1661V78.686C32.1661 77.6248 33.0264 76.7645 34.0876 76.7645H37.8176V82.416Z" fill="black"/>
<path d="M43.2999 76.7648H37.6484V82.4163H43.2999V76.7648Z" fill="black"/>
<path d="M48.7848 76.7646H43.1333V82.4161H48.7848V76.7646Z" fill="black"/>
<path d="M48.6145 76.7648H54.266V80.4948C54.266 81.556 53.4057 82.4163 52.3445 82.4163H48.6145V76.7648Z" fill="black"/>
<path d="M108.915 78.3812V80.8056C108.915 81.6986 109.639 82.4163 110.532 82.4163H112.956C113.855 82.4163 114.572 81.6929 114.572 80.8V78.3812C114.567 77.4826 113.843 76.7648 112.95 76.7648H110.532C109.639 76.7648 108.915 77.4882 108.915 78.3812Z" fill="black"/>
<path d="M158.423 76.7648H152.771V82.4163H158.423V76.7648Z" fill="black"/>
<path d="M158.253 82.416V76.7645H161.983C163.044 76.7645 163.905 77.6248 163.905 78.686V82.416H158.253Z" fill="black"/>
<path d="M185.832 76.7648V80.4948C185.832 81.556 184.971 82.4163 183.91 82.4163H182.102C181.04 82.4163 180.18 81.556 180.18 80.4948V76.7648H185.832Z" fill="black"/>
<path d="M32.3367 87.8979H26.6852V84.168C26.6852 83.1067 27.5455 82.2465 28.6067 82.2465H32.3367V87.8979Z" fill="black"/>
<path d="M37.818 82.2464H32.1665V87.8979H37.818V82.2464Z" fill="black"/>
<path d="M43.2999 82.2464H37.6484V87.8979H43.2999V82.2464Z" fill="black"/>
<path d="M48.7848 82.2466H43.1333V87.8981H48.7848V82.2466Z" fill="black"/>
<path d="M59.7476 87.8977H54.0961V84.1677C54.0961 83.1065 54.9564 82.2462 56.0176 82.2462H59.7476V87.8977Z" fill="black"/>
<path d="M65.2269 82.2466H59.5754V87.8981H65.2269V82.2466Z" fill="black"/>
<path d="M70.7118 82.2464H65.0603V87.8979H70.7118V82.2464Z" fill="black"/>
<path d="M76.1937 82.2464H70.5422V87.8979H76.1937V82.2464Z" fill="black"/>
<path d="M81.6749 82.2466H76.0234V87.8981H81.6749V82.2466Z" fill="black"/>
<path d="M87.1559 82.2464H81.5044V87.8979H87.1559V82.2464Z" fill="black"/>
<path d="M92.6427 82.2464H86.9912V87.8979H92.6427V82.2464Z" fill="black"/>
<path d="M92.4695 87.8979V84.168C92.4695 83.1067 93.3298 82.2465 94.391 82.2465H96.1995C97.2607 82.2465 98.121 83.1067 98.121 84.168V87.8979H92.4695Z" fill="black"/>
<path d="M120.048 87.8977H114.396V84.1677C114.396 83.1065 115.256 82.2462 116.318 82.2462H120.048V87.8977Z" fill="black"/>
<path d="M119.881 87.8977V82.2462H123.611C124.673 82.2462 125.533 83.1065 125.533 84.1677V87.8977H119.881Z" fill="black"/>
<path d="M141.979 87.8978H138.249C137.188 87.8978 136.327 87.0375 136.327 85.9763V84.1678C136.327 83.1066 137.188 82.2463 138.249 82.2463H141.979V87.8978Z" fill="black"/>
<path d="M147.459 82.2464H141.807V87.8979H147.459V82.2464Z" fill="black"/>
<path d="M152.938 82.2464H147.287V87.8979H152.938V82.2464Z" fill="black"/>
<path d="M158.423 82.2464H152.771V87.8979H158.423V82.2464Z" fill="black"/>
<path d="M158.253 82.2464H163.905V85.9764C163.905 87.0376 163.044 87.8979 161.983 87.8979H158.253V82.2464Z" fill="black"/>
<path d="M169.217 83.8627V86.2872C169.217 87.1801 169.941 87.8979 170.834 87.8979H173.258C174.157 87.8979 174.874 87.1745 174.874 86.2816V83.8627C174.869 82.9641 174.145 82.2464 173.252 82.2464H170.834C169.941 82.2464 169.217 82.9698 169.217 83.8627Z" fill="black"/>
<path d="M32.337 87.7277H26.6855V93.3791H32.337V87.7277Z" fill="black"/>
<path d="M48.7848 87.7277H43.1333V93.3791H48.7848V87.7277Z" fill="black"/>
<path d="M59.7476 87.7277V91.4576C59.7476 92.5189 58.8873 93.3791 57.8261 93.3791H56.0176C54.9564 93.3791 54.0961 92.5189 54.0961 91.4576V87.7277H59.7476Z" fill="black"/>
<path d="M81.6746 87.7277V91.4576C81.6746 92.5189 80.8143 93.3791 79.7531 93.3791H77.9446C76.8834 93.3791 76.0231 92.5189 76.0231 91.4576V87.7277H81.6746Z" fill="black"/>
<path d="M92.6427 87.7277H86.9912V93.3791H92.6427V87.7277Z" fill="black"/>
<path d="M120.048 87.7277H114.396V93.3791H120.048V87.7277Z" fill="black"/>
<path d="M119.881 87.7277H125.533V91.4576C125.533 92.5189 124.673 93.3791 123.611 93.3791H119.881V87.7277Z" fill="black"/>
<path d="M147.459 87.7277H141.807V93.3791H147.459V87.7277Z" fill="black"/>
<path d="M147.287 87.7277H152.938V91.4576C152.938 92.5189 152.078 93.3791 151.017 93.3791H147.287V87.7277Z" fill="black"/>
<path d="M163.734 93.379V89.649C163.734 88.5878 164.595 87.7275 165.656 87.7275H167.464C168.526 87.7275 169.386 88.5878 169.386 89.649V93.379H163.734Z" fill="black"/>
<path d="M173.146 93.2666V93.3796H174.869V91.6559H174.756C174.756 92.5488 174.033 93.2666 173.146 93.2666Z" fill="black"/>
<path d="M174.698 93.379V89.649C174.698 88.5878 175.558 87.7275 176.619 87.7275H178.427C179.489 87.7275 180.349 88.5878 180.349 89.649V93.379H174.698Z" fill="black"/>
<path d="M32.3367 93.2097V98.8611H28.6067C27.5455 98.8611 26.6852 98.0009 26.6852 96.9396V93.2097H32.3367Z" fill="black"/>
<path d="M32.1665 98.8613V93.2098H35.8965C36.9577 93.2098 37.818 94.0701 37.818 95.1313V98.8613H32.1665Z" fill="black"/>
<path d="M48.7848 93.2097H43.1333V98.8611H48.7848V93.2097Z" fill="black"/>
<path d="M48.6145 98.8613V95.1313C48.6145 94.0701 49.4748 93.2098 50.536 93.2098H52.3445C53.4057 93.2098 54.266 94.0701 54.266 95.1313V98.8613H48.6145Z" fill="black"/>
<path d="M65.2268 98.8614H61.4968C60.4356 98.8614 59.5753 98.0011 59.5753 96.9399V95.1314C59.5753 94.0702 60.4356 93.2099 61.4968 93.2099H65.2268V98.8614Z" fill="black"/>
<path d="M65.0603 98.8613V95.1313C65.0603 94.0701 65.9206 93.2098 66.9818 93.2098H68.7903C69.8515 93.2098 70.7118 94.0701 70.7118 95.1313V98.8613H65.0603Z" fill="black"/>
<path d="M87.1558 98.8613H83.4258C82.3646 98.8613 81.5043 98.001 81.5043 96.9398V95.1313C81.5043 94.0701 82.3646 93.2098 83.4258 93.2098H87.1558V98.8613Z" fill="black"/>
<path d="M92.6427 93.2099H86.9912V98.8614H92.6427V93.2099Z" fill="black"/>
<path d="M98.121 93.2097H92.4695V98.8611H98.121V93.2097Z" fill="black"/>
<path d="M97.9504 98.8613V95.1313C97.9504 94.0701 98.8107 93.2098 99.8719 93.2098H101.68C102.742 93.2098 103.602 94.0701 103.602 95.1313V98.8613H97.9504Z" fill="black"/>
<path d="M120.048 93.2099V96.9399C120.048 98.0011 119.187 98.8614 118.126 98.8614H116.318C115.256 98.8614 114.396 98.0011 114.396 96.9399V93.2099H120.048Z" fill="black"/>
<path d="M123.81 98.7482V98.8612H125.533V97.1375H125.42C125.42 98.0304 124.697 98.7482 123.81 98.7482Z" fill="black"/>
<path d="M125.359 98.8613V95.1313C125.359 94.0701 126.22 93.2098 127.281 93.2098H129.089C130.151 93.2098 131.011 94.0701 131.011 95.1313V98.8613H125.359Z" fill="black"/>
<path d="M140.252 98.7482V98.8612H141.975V97.1375H141.862C141.862 98.0304 141.139 98.7482 140.252 98.7482Z" fill="black"/>
<path d="M147.459 93.2099H141.807V98.8614H147.459V93.2099Z" fill="black"/>
<path d="M152.771 94.8262V97.2507C152.771 98.1436 153.495 98.8614 154.388 98.8614H156.812C157.711 98.8614 158.429 98.138 158.429 97.2451V94.8262C158.423 93.9276 157.7 93.2099 156.807 93.2099H154.388C153.495 93.2099 152.771 93.9333 152.771 94.8262Z" fill="black"/>
<path d="M162.181 98.7482V98.8612H163.904V97.1375H163.791C163.791 98.0304 163.068 98.7482 162.181 98.7482Z" fill="black"/>
<path d="M169.386 93.2099H163.734V98.8614H169.386V93.2099Z" fill="black"/>
<path d="M174.869 93.2099H169.217V98.8614H174.869V93.2099Z" fill="black"/>
<path d="M180.349 93.2099H174.698V98.8614H180.349V93.2099Z" fill="black"/>
<path d="M180.18 98.8613V93.2098H183.91C184.972 93.2098 185.832 94.0701 185.832 95.1313V98.8613H180.18Z" fill="black"/>
<path d="M37.8176 98.6921V102.422C37.8176 103.483 36.9573 104.344 35.8961 104.344H34.0876C33.0264 104.344 32.1661 103.483 32.1661 102.422V98.6921H37.8176Z" fill="black"/>
<path d="M48.7847 98.6921V102.422C48.7847 103.483 47.9244 104.344 46.8632 104.344H45.0547C43.9935 104.344 43.1332 103.483 43.1332 102.422V98.6921H48.7847Z" fill="black"/>
<path d="M98.1206 98.6921V102.422C98.1206 103.483 97.2603 104.344 96.1991 104.344H94.3906C93.3294 104.344 92.4691 103.483 92.4691 102.422V98.6921H98.1206Z" fill="black"/>
<path d="M109.085 104.343H105.355C104.294 104.343 103.433 103.482 103.433 102.421V100.613C103.433 99.5516 104.294 98.6913 105.355 98.6913H109.085V104.343Z" fill="black"/>
<path d="M108.915 104.343V100.613C108.915 99.5516 109.776 98.6913 110.837 98.6913H112.645C113.706 98.6913 114.567 99.5516 114.567 100.613V104.343H108.915Z" fill="black"/>
<path d="M125.532 104.343H119.881V100.613C119.881 99.5516 120.741 98.6913 121.802 98.6913H125.532V104.343Z" fill="black"/>
<path d="M131.011 98.6921H125.359V104.344H131.011V98.6921Z" fill="black"/>
<path d="M136.496 98.6921H130.844V104.344H136.496V98.6921Z" fill="black"/>
<path d="M141.979 98.6919H136.327V104.343H141.979V98.6919Z" fill="black"/>
<path d="M147.459 98.6921H141.807V104.344H147.459V98.6921Z" fill="black"/>
<path d="M147.287 104.343V98.6913H151.017C152.078 98.6913 152.938 99.5516 152.938 100.613V104.343H147.287Z" fill="black"/>
<path d="M163.905 104.343H160.175C159.113 104.343 158.253 103.482 158.253 102.421V100.613C158.253 99.5516 159.113 98.6913 160.175 98.6913H163.905V104.343Z" fill="black"/>
<path d="M163.734 98.6921H169.386V102.422C169.386 103.483 168.526 104.344 167.464 104.344H163.734V98.6921Z" fill="black"/>
<path d="M185.832 98.6921V102.422C185.832 103.483 184.971 104.344 183.91 104.344H182.102C181.04 104.344 180.18 103.483 180.18 102.422V98.6921H185.832Z" fill="black"/>
<path d="M52.5408 109.713V109.826H54.2645V108.102H54.1514C54.1514 108.995 53.4281 109.713 52.5408 109.713Z" fill="black"/>
<path d="M59.7476 109.825H54.0961V106.095C54.0961 105.033 54.9564 104.173 56.0176 104.173H59.7476V109.825Z" fill="black"/>
<path d="M65.2269 104.173H59.5754V109.825H65.2269V104.173Z" fill="black"/>
<path d="M70.7118 104.173H65.0603V109.825H70.7118V104.173Z" fill="black"/>
<path d="M70.5425 109.825V106.095C70.5425 105.033 71.4028 104.173 72.464 104.173H74.2725C75.3337 104.173 76.194 105.033 76.194 106.095V109.825H70.5425Z" fill="black"/>
<path d="M86.9912 105.789V108.214C86.9912 109.107 87.7146 109.825 88.6075 109.825H91.032C91.9306 109.825 92.6484 109.101 92.6484 108.208V105.789C92.6427 104.891 91.9193 104.173 91.0264 104.173H88.6075C87.7146 104.173 86.9912 104.897 86.9912 105.789Z" fill="black"/>
<path d="M96.394 109.713V109.826H98.1177V108.102H98.0047C98.0047 108.995 97.2813 109.713 96.394 109.713Z" fill="black"/>
<path d="M97.9504 109.825V106.095C97.9504 105.033 98.8107 104.173 99.8719 104.173H101.68C102.742 104.173 103.602 105.033 103.602 106.095V109.825H97.9504Z" fill="black"/>
<path d="M118.323 109.713V109.826H120.047V108.102H119.934C119.934 108.995 119.21 109.713 118.323 109.713Z" fill="black"/>
<path d="M125.533 104.173H119.881V109.825H125.533V104.173Z" fill="black"/>
<path d="M131.011 104.173H125.359V109.825H131.011V104.173Z" fill="black"/>
<path d="M141.979 104.173V109.825H138.249C137.188 109.825 136.327 108.964 136.327 107.903V104.173H141.979Z" fill="black"/>
<path d="M147.459 104.173H141.807V109.825H147.459V104.173Z" fill="black"/>
<path d="M152.938 104.173H147.287V109.825H152.938V104.173Z" fill="black"/>
<path d="M152.771 109.825V106.095C152.771 105.033 153.632 104.173 154.693 104.173H156.501C157.563 104.173 158.423 105.033 158.423 106.095V109.825H152.771Z" fill="black"/>
<path d="M26.6855 111.272V113.697C26.6855 114.59 27.4089 115.307 28.3019 115.307H30.7264C31.6249 115.307 32.3427 114.584 32.3427 113.691V111.272C32.337 110.374 31.6136 109.656 30.7207 109.656H28.3019C27.4089 109.656 26.6855 110.379 26.6855 111.272Z" fill="black"/>
<path d="M48.7847 115.307H43.1332V111.577C43.1332 110.516 43.9935 109.656 45.0547 109.656H48.7847V115.307Z" fill="black"/>
<path d="M54.266 109.656H48.6145V115.307H54.266V109.656Z" fill="black"/>
<path d="M59.7479 109.656H54.0964V115.307H59.7479V109.656Z" fill="black"/>
<path d="M70.7118 109.656H65.0603V115.307H70.7118V109.656Z" fill="black"/>
<path d="M81.5044 111.272V113.697C81.5044 114.59 82.2278 115.307 83.1207 115.307H85.5452C86.4438 115.307 87.1615 114.584 87.1615 113.691V111.272C87.1559 110.374 86.4325 109.656 85.5396 109.656H83.1207C82.2278 109.656 81.5044 110.379 81.5044 111.272Z" fill="black"/>
<path d="M98.1206 115.307H94.3906C93.3294 115.307 92.4691 114.447 92.4691 113.386V111.577C92.4691 110.516 93.3294 109.656 94.3906 109.656H98.1206V115.307Z" fill="black"/>
<path d="M103.602 109.656H97.9504V115.307H103.602V109.656Z" fill="black"/>
<path d="M107.362 115.194V115.307H109.086V113.583H108.972C108.972 114.476 108.249 115.194 107.362 115.194Z" fill="black"/>
<path d="M114.567 115.307H108.915V111.577C108.915 110.516 109.775 109.656 110.837 109.656H114.567V115.307Z" fill="black"/>
<path d="M120.048 109.656H114.396V115.307H120.048V109.656Z" fill="black"/>
<path d="M125.533 109.656H119.881V115.307H125.533V109.656Z" fill="black"/>
<path d="M131.011 109.656H125.359V115.307H131.011V109.656Z" fill="black"/>
<path d="M130.844 115.307V111.577C130.844 110.516 131.705 109.656 132.766 109.656H134.574C135.635 109.656 136.496 110.516 136.496 111.577V115.307H130.844Z" fill="black"/>
<path d="M147.459 109.656V113.386C147.459 114.447 146.598 115.307 145.537 115.307H143.729C142.668 115.307 141.807 114.447 141.807 113.386V109.656H147.459Z" fill="black"/>
<path d="M163.905 115.307H160.175C159.113 115.307 158.253 114.447 158.253 113.386V111.577C158.253 110.516 159.113 109.656 160.175 109.656H163.905V115.307Z" fill="black"/>
<path d="M163.734 115.307V109.656H167.464C168.526 109.656 169.386 110.516 169.386 111.577V115.307H163.734Z" fill="black"/>
<path d="M180.349 115.307H176.619C175.557 115.307 174.697 114.447 174.697 113.386V111.577C174.697 110.516 175.557 109.656 176.619 109.656H180.349V115.307Z" fill="black"/>
<path d="M180.18 115.307V109.656H183.91C184.972 109.656 185.832 110.516 185.832 111.577V115.307H180.18Z" fill="black"/>
<path d="M30.6138 120.677V120.79H32.3375V119.066H32.2244C32.2244 119.959 31.5011 120.677 30.6138 120.677Z" fill="black"/>
<path d="M32.1665 120.789V117.059C32.1665 115.998 33.0268 115.138 34.088 115.138H35.8965C36.9577 115.138 37.818 115.998 37.818 117.059V120.789H32.1665Z" fill="black"/>
<path d="M48.7847 115.138V120.789H45.0547C43.9935 120.789 43.1332 119.929 43.1332 118.868V115.138H48.7847Z" fill="black"/>
<path d="M54.266 115.138H48.6145V120.789H54.266V115.138Z" fill="black"/>
<path d="M59.7479 115.138H54.0964V120.789H59.7479V115.138Z" fill="black"/>
<path d="M65.2269 115.138H59.5754V120.789H65.2269V115.138Z" fill="black"/>
<path d="M70.7118 115.138H65.0603V120.789H70.7118V115.138Z" fill="black"/>
<path d="M86.9912 120.789V117.059C86.9912 115.998 87.8515 115.138 88.9127 115.138H90.7212C91.7824 115.138 92.6427 115.998 92.6427 117.059V120.789H86.9912Z" fill="black"/>
<path d="M103.602 115.138V120.789H99.8718C98.8106 120.789 97.9503 119.929 97.9503 118.868V115.138H103.602Z" fill="black"/>
<path d="M109.085 115.138H103.433V120.789H109.085V115.138Z" fill="black"/>
<path d="M114.567 115.138H108.915V120.789H114.567V115.138Z" fill="black"/>
<path d="M114.396 115.138H120.048V118.868C120.048 119.929 119.188 120.789 118.126 120.789H114.396V115.138Z" fill="black"/>
<path d="M134.769 120.677V120.79H136.493V119.066H136.379C136.379 119.959 135.656 120.677 134.769 120.677Z" fill="black"/>
<path d="M136.327 120.789V117.059C136.327 115.998 137.188 115.138 138.249 115.138H140.057C141.119 115.138 141.979 115.998 141.979 117.059V120.789H136.327Z" fill="black"/>
<path d="M152.771 116.754V119.178C152.771 120.071 153.495 120.789 154.388 120.789H156.812C157.711 120.789 158.429 120.066 158.429 119.173V116.754C158.423 115.855 157.7 115.138 156.807 115.138H154.388C153.495 115.138 152.771 115.861 152.771 116.754Z" fill="black"/>
<path d="M169.386 115.138H163.734V120.789H169.386V115.138Z" fill="black"/>
<path d="M169.217 120.789V117.059C169.217 115.998 170.078 115.138 171.139 115.138H172.947C174.008 115.138 174.869 115.998 174.869 117.059V120.789H169.217Z" fill="black"/>
<path d="M185.832 115.138H180.18V120.789H185.832V115.138Z" fill="black"/>
<path d="M32.3367 126.271H26.6852V122.541C26.6852 121.479 27.5455 120.619 28.6067 120.619H32.3367V126.271Z" fill="black"/>
<path d="M37.818 120.619H32.1665V126.271H37.818V120.619Z" fill="black"/>
<path d="M37.6484 126.271V120.619H41.3784C42.4396 120.619 43.2999 121.479 43.2999 122.541V126.271H37.6484Z" fill="black"/>
<path d="M70.7118 120.619H65.0603V126.271H70.7118V120.619Z" fill="black"/>
<path d="M70.5425 126.271V120.619H74.2725C75.3337 120.619 76.194 121.479 76.194 122.541V126.271H70.5425Z" fill="black"/>
<path d="M85.4329 126.159V126.272H87.1566V124.548H87.0435C87.0435 125.441 86.3201 126.159 85.4329 126.159Z" fill="black"/>
<path d="M92.6427 120.619H86.9912V126.271H92.6427V120.619Z" fill="black"/>
<path d="M92.4695 126.271V122.541C92.4695 121.479 93.3298 120.619 94.391 120.619H96.1995C97.2607 120.619 98.121 121.479 98.121 122.541V126.271H92.4695Z" fill="black"/>
<path d="M109.085 120.619V124.349C109.085 125.41 108.224 126.271 107.163 126.271H105.355C104.294 126.271 103.433 125.41 103.433 124.349V120.619H109.085Z" fill="black"/>
<path d="M125.532 126.271H121.802C120.741 126.271 119.881 125.41 119.881 124.349V122.541C119.881 121.479 120.741 120.619 121.802 120.619H125.532V126.271Z" fill="black"/>
<path d="M131.011 120.619H125.359V126.271H131.011V120.619Z" fill="black"/>
<path d="M136.496 120.619H130.844V126.271H136.496V120.619Z" fill="black"/>
<path d="M141.979 120.619H136.327V126.271H141.979V120.619Z" fill="black"/>
<path d="M147.459 120.619H141.807V126.271H147.459V120.619Z" fill="black"/>
<path d="M147.287 126.271V120.619H151.017C152.078 120.619 152.938 121.479 152.938 122.541V126.271H147.287Z" fill="black"/>
<path d="M163.905 126.271H160.175C159.113 126.271 158.253 125.41 158.253 124.349V122.541C158.253 121.479 159.113 120.619 160.175 120.619H163.905V126.271Z" fill="black"/>
<path d="M169.386 120.619H163.734V126.271H169.386V120.619Z" fill="black"/>
<path d="M180.349 126.271H176.619C175.557 126.271 174.697 125.41 174.697 124.349V122.541C174.697 121.479 175.557 120.619 176.619 120.619H180.349V126.271Z" fill="black"/>
<path d="M180.18 120.619H185.832V124.349C185.832 125.41 184.972 126.271 183.91 126.271H180.18V120.619Z" fill="black"/>
<path d="M32.337 126.102H26.6855V131.753H32.337V126.102Z" fill="black"/>
<path d="M43.2998 126.102V131.753H39.5698C38.5086 131.753 37.6483 130.893 37.6483 129.832V126.102H43.2998Z" fill="black"/>
<path d="M48.7848 126.102H43.1333V131.753H48.7848V126.102Z" fill="black"/>
<path d="M54.266 126.102H48.6145V131.753H54.266V126.102Z" fill="black"/>
<path d="M59.7479 126.102H54.0964V131.753H59.7479V126.102Z" fill="black"/>
<path d="M65.2269 126.102H59.5754V131.753H65.2269V126.102Z" fill="black"/>
<path d="M70.7118 126.102H65.0603V131.753H70.7118V126.102Z" fill="black"/>
<path d="M76.1937 126.102H70.5422V131.753H76.1937V126.102Z" fill="black"/>
<path d="M87.1558 131.753H81.5043V128.023C81.5043 126.962 82.3646 126.102 83.4258 126.102H87.1558V131.753Z" fill="black"/>
<path d="M92.6427 126.102H86.9912V131.753H92.6427V126.102Z" fill="black"/>
<path d="M97.9504 131.753V128.023C97.9504 126.962 98.8107 126.102 99.8719 126.102H101.68C102.742 126.102 103.602 126.962 103.602 128.023V131.753H97.9504Z" fill="black"/>
<path d="M114.396 127.718V130.143C114.396 131.036 115.12 131.753 116.013 131.753H118.437C119.336 131.753 120.054 131.03 120.054 130.137V127.718C120.048 126.82 119.325 126.102 118.432 126.102H116.013C115.12 126.102 114.396 126.825 114.396 127.718Z" fill="black"/>
<path d="M131.011 126.102V129.832C131.011 130.893 130.15 131.753 129.089 131.753H127.281C126.22 131.753 125.359 130.893 125.359 129.832V126.102H131.011Z" fill="black"/>
<path d="M141.979 126.102H136.327V131.753H141.979V126.102Z" fill="black"/>
<path d="M152.938 126.102H147.287V131.753H152.938V126.102Z" fill="black"/>
<path d="M152.771 131.753V128.023C152.771 126.962 153.632 126.102 154.693 126.102H156.501C157.563 126.102 158.423 126.962 158.423 128.023V131.753H152.771Z" fill="black"/>
<path d="M169.386 126.102V129.832C169.386 130.893 168.525 131.753 167.464 131.753H165.656C164.595 131.753 163.734 130.893 163.734 129.832V126.102H169.386Z" fill="black"/>
<path d="M32.337 131.584H26.6855V137.235H32.337V131.584Z" fill="black"/>
<path d="M48.7848 131.584H43.1333V137.235H48.7848V131.584Z" fill="black"/>
<path d="M76.1936 131.584V135.314C76.1936 136.375 75.3333 137.235 74.2721 137.235H72.4636C71.4024 137.235 70.5421 136.375 70.5421 135.314V131.584H76.1936Z" fill="black"/>
<path d="M87.1558 131.584V137.235H83.4258C82.3646 137.235 81.5043 136.375 81.5043 135.314V131.584H87.1558Z" fill="black"/>
<path d="M86.9912 131.584H92.6427V135.314C92.6427 136.375 91.7824 137.235 90.7212 137.235H86.9912V131.584Z" fill="black"/>
<path d="M103.602 131.584V135.314C103.602 136.375 102.742 137.235 101.68 137.235H99.8718C98.8106 137.235 97.9503 136.375 97.9503 135.314V131.584H103.602Z" fill="black"/>
<path d="M108.915 133.2V135.624C108.915 136.517 109.639 137.235 110.532 137.235H112.956C113.855 137.235 114.572 136.512 114.572 135.619V133.2C114.567 132.301 113.843 131.584 112.95 131.584H110.532C109.639 131.584 108.915 132.307 108.915 133.2Z" fill="black"/>
<path d="M119.881 133.2V135.624C119.881 136.517 120.605 137.235 121.498 137.235H123.922C124.821 137.235 125.538 136.512 125.538 135.619V133.2C125.533 132.301 124.809 131.584 123.917 131.584H121.498C120.605 131.584 119.881 132.307 119.881 133.2Z" fill="black"/>
<path d="M141.979 131.584H136.327V137.235H141.979V131.584Z" fill="black"/>
<path d="M145.737 137.122V137.235H147.461V135.511H147.347C147.347 136.404 146.624 137.122 145.737 137.122Z" fill="black"/>
<path d="M152.938 131.584H147.287V137.235H152.938V131.584Z" fill="black"/>
<path d="M156.7 137.122V137.235H158.423V135.511H158.31C158.31 136.404 157.587 137.122 156.7 137.122Z" fill="black"/>
<path d="M158.253 137.235V133.505C158.253 132.444 159.113 131.584 160.175 131.584H161.983C163.044 131.584 163.905 132.444 163.905 133.505V137.235H158.253Z" fill="black"/>
<path d="M180.349 137.235H176.619C175.557 137.235 174.697 136.375 174.697 135.313V133.505C174.697 132.444 175.557 131.583 176.619 131.583H180.349V137.235Z" fill="black"/>
<path d="M180.18 137.235V133.505C180.18 132.444 181.041 131.583 182.102 131.583H183.91C184.972 131.583 185.832 132.444 185.832 133.505V137.235H180.18Z" fill="black"/>
<path d="M32.3367 137.065V140.795C32.3367 141.857 31.4764 142.717 30.4152 142.717H28.6067C27.5455 142.717 26.6852 141.857 26.6852 140.795V137.065H32.3367Z" fill="black"/>
<path d="M48.7847 137.065V142.717H45.0547C43.9935 142.717 43.1332 141.857 43.1332 140.795V137.065H48.7847Z" fill="black"/>
<path d="M54.266 137.065H48.6145V142.717H54.266V137.065Z" fill="black"/>
<path d="M59.7479 137.065H54.0964V142.717H59.7479V137.065Z" fill="black"/>
<path d="M65.2269 137.065H59.5754V142.717H65.2269V137.065Z" fill="black"/>
<path d="M65.0603 142.717V138.987C65.0603 137.926 65.9206 137.065 66.9818 137.065H68.7903C69.8515 137.065 70.7118 137.926 70.7118 138.987V142.717H65.0603Z" fill="black"/>
<path d="M76.0234 138.682V141.106C76.0234 141.999 76.7468 142.717 77.6398 142.717H80.0643C80.9628 142.717 81.6806 141.993 81.6806 141.101V138.682C81.6749 137.783 80.9515 137.065 80.0586 137.065H77.6398C76.7468 137.065 76.0234 137.789 76.0234 138.682Z" fill="black"/>
<path d="M103.433 142.717V138.987C103.433 137.926 104.294 137.065 105.355 137.065H107.163C108.225 137.065 109.085 137.926 109.085 138.987V142.717H103.433Z" fill="black"/>
<path d="M125.359 138.682V141.106C125.359 141.999 126.083 142.717 126.976 142.717H129.4C130.299 142.717 131.017 141.993 131.017 141.101V138.682C131.011 137.783 130.287 137.065 129.395 137.065H126.976C126.083 137.065 125.359 137.789 125.359 138.682Z" fill="black"/>
<path d="M141.979 137.066H136.327V142.717H141.979V137.066Z" fill="black"/>
<path d="M147.459 137.065H141.807V142.717H147.459V137.065Z" fill="black"/>
<path d="M152.938 137.065H147.287V142.717H152.938V137.065Z" fill="black"/>
<path d="M158.423 137.065H152.771V142.717H158.423V137.065Z" fill="black"/>
<path d="M163.905 137.066H158.253V142.717H163.905V137.066Z" fill="black"/>
<path d="M169.217 138.682V141.106C169.217 141.999 169.941 142.717 170.834 142.717H173.258C174.157 142.717 174.874 141.993 174.874 141.101V138.682C174.869 137.783 174.145 137.065 173.252 137.065H170.834C169.941 137.065 169.217 137.789 169.217 138.682Z" fill="black"/>
<path d="M70.5422 144.164V146.589C70.5422 147.481 71.2656 148.199 72.1586 148.199H74.5831C75.4816 148.199 76.1994 147.476 76.1994 146.583V144.164C76.1937 143.265 75.4703 142.548 74.5774 142.548H72.1586C71.2656 142.548 70.5422 143.271 70.5422 144.164Z" fill="black"/>
<path d="M81.5044 144.164V146.589C81.5044 147.482 82.2278 148.199 83.1207 148.199H85.5452C86.4438 148.199 87.1615 147.476 87.1615 146.583V144.164C87.1559 143.266 86.4325 142.548 85.5396 142.548H83.1207C82.2278 142.548 81.5044 143.271 81.5044 144.164Z" fill="black"/>
<path d="M92.4695 144.164V146.589C92.4695 147.482 93.1929 148.199 94.0858 148.199H96.5103C97.4089 148.199 98.1266 147.476 98.1266 146.583V144.164C98.121 143.266 97.3976 142.548 96.5046 142.548H94.0858C93.1929 142.548 92.4695 143.271 92.4695 144.164Z" fill="black"/>
<path d="M101.879 148.086V148.199H103.603V146.475H103.49C103.49 147.368 102.766 148.086 101.879 148.086Z" fill="black"/>
<path d="M109.085 142.548H103.433V148.199H109.085V142.548Z" fill="black"/>
<path d="M134.769 148.086V148.199H136.493V146.475H136.379C136.379 147.368 135.656 148.086 134.769 148.086Z" fill="black"/>
<path d="M141.979 142.548H136.327V148.199H141.979V142.548Z" fill="black"/>
<path d="M163.905 142.548H158.253V148.199H163.905V142.548Z" fill="black"/>
<path d="M163.734 148.199V144.469C163.734 143.408 164.595 142.548 165.656 142.548H167.464C168.526 142.548 169.386 143.408 169.386 144.469V148.199H163.734Z" fill="black"/>
<path d="M180.349 148.199H174.697V144.469C174.697 143.408 175.557 142.548 176.619 142.548H180.349V148.199Z" fill="black"/>
<path d="M180.18 148.199V144.469C180.18 143.408 181.041 142.548 182.102 142.548H183.91C184.972 142.548 185.832 143.408 185.832 144.469V148.199H180.18Z" fill="black"/>
<path d="M86.9912 153.681V149.951C86.9912 148.89 87.8515 148.029 88.9127 148.029H90.7212C91.7824 148.029 92.6427 148.89 92.6427 149.951V153.681H86.9912Z" fill="black"/>
<path d="M103.602 153.681H99.8718C98.8106 153.681 97.9503 152.821 97.9503 151.759V149.951C97.9503 148.89 98.8106 148.029 99.8718 148.029H103.602V153.681Z" fill="black"/>
<path d="M109.085 148.03H103.433V153.681H109.085V148.03Z" fill="black"/>
<path d="M123.81 153.568V153.681H125.533V151.957H125.42C125.42 152.85 124.697 153.568 123.81 153.568Z" fill="black"/>
<path d="M131.011 153.681H125.359V149.951C125.359 148.89 126.22 148.029 127.281 148.029H131.011V153.681Z" fill="black"/>
<path d="M136.496 148.03H130.844V153.681H136.496V148.03Z" fill="black"/>
<path d="M141.979 148.03H136.327V153.681H141.979V148.03Z" fill="black"/>
<path d="M147.287 149.646V152.07C147.287 152.963 148.01 153.681 148.903 153.681H151.327C152.226 153.681 152.944 152.958 152.944 152.065V149.646C152.938 148.747 152.215 148.03 151.322 148.03H148.903C148.01 148.03 147.287 148.753 147.287 149.646Z" fill="black"/>
<path d="M163.905 148.03H158.253V153.681H163.905V148.03Z" fill="black"/>
<path d="M180.349 148.03V151.76C180.349 152.821 179.488 153.681 178.427 153.681H176.619C175.557 153.681 174.697 152.821 174.697 151.76V148.03H180.349Z" fill="black"/>
<path d="M92.6426 153.511V159.163H88.9126C87.8514 159.163 86.9911 158.303 86.9911 157.241V153.511H92.6426Z" fill="black"/>
<path d="M92.4695 159.163V153.511H96.1995C97.2607 153.511 98.121 154.372 98.121 155.433V159.163H92.4695Z" fill="black"/>
<path d="M109.085 153.511V157.241C109.085 158.303 108.224 159.163 107.163 159.163H105.355C104.294 159.163 103.433 158.303 103.433 157.241V153.511H109.085Z" fill="black"/>
<path d="M125.532 159.163H121.802C120.741 159.163 119.881 158.302 119.881 157.241V155.433C119.881 154.372 120.741 153.511 121.802 153.511H125.532V159.163Z" fill="black"/>
<path d="M131.011 153.511H125.359V159.163H131.011V153.511Z" fill="black"/>
<path d="M136.496 153.511H130.844V159.163H136.496V153.511Z" fill="black"/>
<path d="M141.979 153.511H136.327V159.163H141.979V153.511Z" fill="black"/>
<path d="M156.7 159.05V159.163H158.423V157.439H158.31C158.31 158.332 157.587 159.05 156.7 159.05Z" fill="black"/>
<path d="M163.905 153.511H158.253V159.163H163.905V153.511Z" fill="black"/>
<path d="M163.734 159.163V153.511H167.464C168.526 153.511 169.386 154.372 169.386 155.433V159.163H163.734Z" fill="black"/>
<path d="M178.627 159.05V159.163H180.35V157.439H180.237C180.237 158.332 179.514 159.05 178.627 159.05Z" fill="black"/>
<path d="M180.18 159.163V155.433C180.18 154.372 181.041 153.511 182.102 153.511H183.91C184.972 153.511 185.832 154.372 185.832 155.433V159.163H180.18Z" fill="black"/>
<path d="M76.1936 164.645H70.5421V160.915C70.5421 159.854 71.4024 158.994 72.4636 158.994H76.1936V164.645Z" fill="black"/>
<path d="M76.0234 164.645V160.915C76.0234 159.854 76.8837 158.994 77.9449 158.994H79.7534C80.8146 158.994 81.6749 159.854 81.6749 160.915V164.645H76.0234Z" fill="black"/>
<path d="M98.1206 158.994V162.724C98.1206 163.785 97.2603 164.646 96.1991 164.646H94.3906C93.3294 164.646 92.4691 163.785 92.4691 162.724V158.994H98.1206Z" fill="black"/>
<path d="M108.915 164.645V160.915C108.915 159.854 109.776 158.994 110.837 158.994H112.645C113.706 158.994 114.567 159.854 114.567 160.915V164.645H108.915Z" fill="black"/>
<path d="M141.979 158.994H136.327V164.646H141.979V158.994Z" fill="black"/>
<path d="M147.459 158.994H141.807V164.646H147.459V158.994Z" fill="black"/>
<path d="M152.938 158.994H147.287V164.646H152.938V158.994Z" fill="black"/>
<path d="M158.423 158.994H152.771V164.646H158.423V158.994Z" fill="black"/>
<path d="M163.905 158.994H158.253V164.646H163.905V158.994Z" fill="black"/>
<path d="M169.386 158.994H163.734V164.646H169.386V158.994Z" fill="black"/>
<path d="M174.869 158.994H169.217V164.646H174.869V158.994Z" fill="black"/>
<path d="M180.349 158.994H174.698V164.646H180.349V158.994Z" fill="black"/>
<path d="M180.18 158.994H185.832V162.724C185.832 163.785 184.972 164.646 183.91 164.646H180.18V158.994Z" fill="black"/>
<path d="M76.1937 164.476H70.5422V170.127H76.1937V164.476Z" fill="black"/>
<path d="M107.362 170.014V170.127H109.086V168.404H108.972C108.972 169.296 108.249 170.014 107.362 170.014Z" fill="black"/>
<path d="M114.567 164.476H108.915V170.127H114.567V164.476Z" fill="black"/>
<path d="M125.532 170.127H119.881V166.397C119.881 165.336 120.741 164.475 121.802 164.475H125.532V170.127Z" fill="black"/>
<path d="M131.011 164.476H125.359V170.127H131.011V164.476Z" fill="black"/>
<path d="M136.496 164.476H130.844V170.127H136.496V164.476Z" fill="black"/>
<path d="M141.979 164.476H136.327V170.127H141.979V164.476Z" fill="black"/>
<path d="M147.459 164.476H141.807V170.127H147.459V164.476Z" fill="black"/>
<path d="M158.423 164.476H152.771V170.127H158.423V164.476Z" fill="black"/>
<path d="M169.386 164.476H163.734V170.127H169.386V164.476Z" fill="black"/>
<path d="M174.869 164.476H169.217V170.127H174.869V164.476Z" fill="black"/>
<path d="M76.1936 169.957V173.687C76.1936 174.749 75.3333 175.609 74.2721 175.609H72.4636C71.4024 175.609 70.5421 174.749 70.5421 173.687V169.957H76.1936Z" fill="black"/>
<path d="M90.9155 175.496V175.609H92.6392V173.885H92.5262C92.5262 174.778 91.8028 175.496 90.9155 175.496Z" fill="black"/>
<path d="M92.4695 175.609V171.879C92.4695 170.818 93.3298 169.957 94.391 169.957H96.1995C97.2607 169.957 98.121 170.818 98.121 171.879V175.609H92.4695Z" fill="black"/>
<path d="M109.085 175.609H105.355C104.294 175.609 103.433 174.748 103.433 173.687V171.879C103.433 170.818 104.294 169.957 105.355 169.957H109.085V175.609Z" fill="black"/>
<path d="M108.915 169.957H114.567V173.687C114.567 174.749 113.706 175.609 112.645 175.609H108.915V169.957Z" fill="black"/>
<path d="M118.323 175.496V175.609H120.047V173.885H119.934C119.934 174.778 119.21 175.496 118.323 175.496Z" fill="black"/>
<path d="M125.533 169.957H119.881V175.609H125.533V169.957Z" fill="black"/>
<path d="M136.496 169.957H130.844V175.609H136.496V169.957Z" fill="black"/>
<path d="M141.979 169.957H136.327V175.609H141.979V169.957Z" fill="black"/>
<path d="M147.459 169.957H141.807V175.609H147.459V169.957Z" fill="black"/>
<path d="M152.938 169.957H147.287V175.609H152.938V169.957Z" fill="black"/>
<path d="M158.423 169.957H152.771V175.609H158.423V169.957Z" fill="black"/>
<path d="M163.905 169.957H158.253V175.609H163.905V169.957Z" fill="black"/>
<path d="M169.386 169.957H163.734V175.609H169.386V169.957Z" fill="black"/>
<path d="M174.869 169.957H169.217V175.609H174.869V169.957Z" fill="black"/>
<path d="M174.698 175.609V169.957H178.427C179.489 169.957 180.349 170.818 180.349 171.879V175.609H174.698Z" fill="black"/>
<path d="M87.1558 181.091H83.4258C82.3646 181.091 81.5043 180.231 81.5043 179.17V177.361C81.5043 176.3 82.3646 175.44 83.4258 175.44H87.1558V181.091Z" fill="black"/>
<path d="M92.6427 175.44H86.9912V181.092H92.6427V175.44Z" fill="black"/>
<path d="M98.121 175.44H92.4695V181.092H98.121V175.44Z" fill="black"/>
<path d="M97.9504 181.091V175.44H101.68C102.742 175.44 103.602 176.3 103.602 177.362V181.091H97.9504Z" fill="black"/>
<path d="M120.048 181.091H116.318C115.256 181.091 114.396 180.231 114.396 179.17V177.361C114.396 176.3 115.256 175.44 116.318 175.44H120.048V181.091Z" fill="black"/>
<path d="M119.881 175.44H125.533V179.17C125.533 180.231 124.673 181.092 123.611 181.092H119.881V175.44Z" fill="black"/>
<path d="M136.496 175.44H130.844V181.092H136.496V175.44Z" fill="black"/>
<path d="M141.979 175.44H136.327V181.091H141.979V175.44Z" fill="black"/>
<path d="M147.459 175.44H141.807V181.092H147.459V175.44Z" fill="black"/>
<path d="M152.938 175.44H147.287V181.092H152.938V175.44Z" fill="black"/>
<path d="M163.905 175.44H158.253V181.091H163.905V175.44Z" fill="black"/>
<path d="M180.349 175.44V179.17C180.349 180.231 179.488 181.092 178.427 181.092H176.619C175.557 181.092 174.697 180.231 174.697 179.17V175.44H180.349Z" fill="black"/>
<path d="M98.1206 180.922V186.573H94.3906C93.3294 186.573 92.4691 185.713 92.4691 184.652V180.922H98.1206Z" fill="black"/>
<path d="M103.602 180.922H97.9504V186.573H103.602V180.922Z" fill="black"/>
<path d="M109.085 180.922H103.433V186.573H109.085V180.922Z" fill="black"/>
<path d="M108.915 186.573V182.843C108.915 181.782 109.776 180.922 110.837 180.922H112.645C113.706 180.922 114.567 181.782 114.567 182.843V186.573H108.915Z" fill="black"/>
<path d="M136.496 180.922V184.652C136.496 185.713 135.635 186.573 134.574 186.573H132.766C131.704 186.573 130.844 185.713 130.844 184.652V180.922H136.496Z" fill="black"/>
<path d="M152.938 180.922V184.652C152.938 185.713 152.077 186.573 151.016 186.573H149.208C148.147 186.573 147.286 185.713 147.286 184.652V180.922H152.938Z" fill="black"/>
<path d="M163.905 180.922V186.573H160.175C159.113 186.573 158.253 185.713 158.253 184.652V180.922H163.905Z" fill="black"/>
<path d="M169.386 180.922H163.734V186.573H169.386V180.922Z" fill="black"/>
<path d="M169.217 186.573V182.843C169.217 181.782 170.078 180.922 171.139 180.922H172.947C174.008 180.922 174.869 181.782 174.869 182.843V186.573H169.217Z" fill="black"/>
<path d="M60.5951 53.2727V41.1406C60.5951 35.7556 59.8625 34.4416 59.5474 34.1258C59.2317 33.8108 57.9177 33.0782 52.5319 33.0782H40.4005C35.0148 33.0782 33.7008 33.8108 33.3858 34.1258C33.0707 34.4416 32.3374 35.7556 32.3374 41.1406V53.2727C32.3374 58.6585 33.0707 59.9725 33.3858 60.2882C33.7008 60.6026 35.0148 61.3358 40.4005 61.3358H52.5319C57.9177 61.3358 59.2317 60.6026 59.5474 60.2882C59.8625 59.9725 60.5951 58.6585 60.5951 53.2727ZM52.5319 27.4268C63.6094 27.4268 66.2465 30.0639 66.2465 41.1406C66.2465 52.218 66.2465 42.196 66.2465 53.2727C66.2465 64.3502 63.6094 66.9872 52.5319 66.9872C41.4552 66.9872 51.4773 66.9872 40.4005 66.9872C29.3231 66.9872 26.686 64.3502 26.686 53.2727C26.686 42.196 26.686 47.3268 26.686 41.1406C26.686 30.0639 29.3231 27.4268 40.4005 27.4268C51.4773 27.4268 41.4552 27.4268 52.5319 27.4268ZM49.0657 38.7298C53.8134 38.7298 54.9435 39.8606 54.9435 44.6068C54.9435 49.3545 54.9435 45.0596 54.9435 49.8065C54.9435 54.5535 53.8134 55.6843 49.0657 55.6843C44.3188 55.6843 48.6137 55.6843 43.8667 55.6843C39.1198 55.6843 37.989 54.5535 37.989 49.8065C37.989 45.0596 37.989 47.2582 37.989 44.6068C37.989 39.8606 39.1198 38.7298 43.8667 38.7298C48.6137 38.7298 44.3188 38.7298 49.0657 38.7298Z" fill="black"/>
<path d="M179.956 53.2727V41.1406C179.956 35.7556 179.223 34.4416 178.908 34.1258C178.593 33.8108 177.279 33.0782 171.893 33.0782H159.761C154.376 33.0782 153.062 33.8108 152.747 34.1258C152.432 34.4416 151.698 35.7556 151.698 41.1406V53.2727C151.698 58.6585 152.432 59.9725 152.747 60.2882C153.062 60.6026 154.376 61.3358 159.761 61.3358H171.893C177.279 61.3358 178.593 60.6026 178.908 60.2882C179.223 59.9725 179.956 58.6585 179.956 53.2727ZM171.893 27.4268C182.97 27.4268 185.607 30.0639 185.607 41.1406C185.607 52.218 185.607 42.196 185.607 53.2727C185.607 64.3502 182.97 66.9872 171.893 66.9872C160.816 66.9872 170.838 66.9872 159.761 66.9872C148.684 66.9872 146.047 64.3502 146.047 53.2727C146.047 42.196 146.047 47.3268 146.047 41.1406C146.047 30.0639 148.684 27.4268 159.761 27.4268C170.838 27.4268 160.816 27.4268 171.893 27.4268ZM168.427 38.7298C173.174 38.7298 174.304 39.8606 174.304 44.6068C174.304 49.3545 174.304 45.0596 174.304 49.8065C174.304 54.5535 173.174 55.6843 168.427 55.6843C163.68 55.6843 167.975 55.6843 163.228 55.6843C158.481 55.6843 157.35 54.5535 157.35 49.8065C157.35 45.0596 157.35 47.2582 157.35 44.6068C157.35 39.8606 158.481 38.7298 163.228 38.7298C167.975 38.7298 163.68 38.7298 168.427 38.7298Z" fill="black"/>
<path d="M60.5951 172.632V160.5C60.5951 155.115 59.8625 153.801 59.5474 153.485C59.2317 153.17 57.9177 152.438 52.5319 152.438H40.4005C35.0148 152.438 33.7008 153.17 33.3858 153.485C33.0707 153.801 32.3374 155.115 32.3374 160.5V172.632C32.3374 178.018 33.0707 179.332 33.3858 179.648C33.7008 179.962 35.0148 180.695 40.4005 180.695H52.5319C57.9177 180.695 59.2317 179.962 59.5474 179.648C59.8625 179.332 60.5951 178.018 60.5951 172.632ZM52.5319 146.786C63.6094 146.786 66.2465 149.423 66.2465 160.5C66.2465 171.577 66.2465 161.555 66.2465 172.632C66.2465 183.71 63.6094 186.347 52.5319 186.347C41.4552 186.347 51.4773 186.347 40.4005 186.347C29.3231 186.347 26.686 183.71 26.686 172.632C26.686 161.555 26.686 166.686 26.686 160.5C26.686 149.423 29.3231 146.786 40.4005 146.786C51.4773 146.786 41.4552 146.786 52.5319 146.786ZM49.0657 158.089C53.8134 158.089 54.9435 159.22 54.9435 163.966C54.9435 168.714 54.9435 164.419 54.9435 169.166C54.9435 173.913 53.8134 175.044 49.0657 175.044C44.3188 175.044 48.6137 175.044 43.8667 175.044C39.1198 175.044 37.989 173.913 37.989 169.166C37.989 164.419 37.989 166.618 37.989 163.966C37.989 159.22 39.1198 158.089 43.8667 158.089C48.6137 158.089 44.3188 158.089 49.0657 158.089Z" fill="black"/>
</svg>
