<svg width="12" height="12" viewBox="0 0 12 12" fill="none" xmlns="http://www.w3.org/2000/svg">
<g clip-path="url(#clip0_1_11039)">
<path d="M3.32503 0.330003C2.89003 0.770003 2.89003 1.48 3.32503 1.92L7.35503 6L3.32503 10.08C2.89003 10.52 2.89003 11.23 3.32503 11.67C3.42742 11.7743 3.54958 11.8572 3.68437 11.9137C3.81915 11.9703 3.96386 11.9994 4.11003 11.9994C4.2562 11.9994 4.40091 11.9703 4.53569 11.9137C4.67047 11.8572 4.79263 11.7743 4.89503 11.67L10.5 6L4.90003 0.330003C4.79755 0.224927 4.67508 0.141421 4.53984 0.0844055C4.40459 0.0273895 4.2593 -0.00198364 4.11253 -0.00198364C3.96576 -0.00198364 3.82047 0.0273895 3.68522 0.0844055C3.54997 0.141421 3.42751 0.224927 3.32503 0.330003Z" fill="#767676"/>
</g>
<defs>
<clipPath id="clip0_1_11039">
<rect width="12" height="12" fill="white"/>
</clipPath>
</defs>
</svg>
