<svg width="24" height="24" viewBox="0 0 24 24" fill="none" xmlns="http://www.w3.org/2000/svg">
<path fill-rule="evenodd" clip-rule="evenodd" d="M8.02167 2.39546C8.77668 0.971088 10.2742 0 12 0C13.7258 0 15.2233 0.971087 15.9783 2.39546C17.5194 1.92215 19.265 2.2944 20.4853 3.51472C21.7056 4.73503 22.0779 6.48061 21.6045 8.02167C23.0289 8.77668 24 10.2742 24 12C24 13.7258 23.0289 15.2233 21.6045 15.9783C22.0778 17.5194 21.7056 19.265 20.4853 20.4853C19.265 21.7056 17.5194 22.0778 15.9783 21.6045C15.2233 23.0289 13.7258 24 12 24C10.2742 24 8.77668 23.0289 8.02167 21.6045C6.48061 22.0778 4.73503 21.7056 3.51471 20.4853C2.29441 19.265 1.92216 17.5194 2.39546 15.9783C0.971089 15.2233 0 13.7258 0 12C0 10.2742 0.971087 8.77668 2.39546 8.02167C1.92215 6.48061 2.2944 4.73503 3.51472 3.51472C4.73503 2.2944 6.48061 1.92215 8.02167 2.39546ZM17.715 8.98869C17.8028 9.07656 17.8028 9.21903 17.715 9.30689L10.6085 16.4133C10.5207 16.5012 10.3782 16.5012 10.2903 16.4133L6.3659 12.4889C6.27803 12.401 6.27803 12.2585 6.3659 12.1707L7.63869 10.8979C7.72656 10.81 7.86902 10.81 7.95689 10.8979L10.2903 13.2313C10.3782 13.3192 10.5207 13.3192 10.6085 13.2313L16.124 7.7159C16.2118 7.62803 16.3543 7.62803 16.4422 7.7159L17.715 8.98869Z" fill="#0082FB"/>
<path d="M17.715 9.30689C17.8028 9.21903 17.8028 9.07656 17.715 8.98869L16.4422 7.7159C16.3543 7.62803 16.2118 7.62803 16.124 7.7159L10.6085 13.2313C10.5207 13.3192 10.3782 13.3192 10.2903 13.2313L7.95689 10.8979C7.86902 10.81 7.72656 10.81 7.63869 10.8979L6.3659 12.1707C6.27803 12.2585 6.27803 12.401 6.3659 12.4889L10.2903 16.4133C10.3782 16.5012 10.5207 16.5012 10.6085 16.4133L17.715 9.30689Z" fill="white"/>
</svg>
